<svg xmlns="http://www.w3.org/2000/svg" viewBox="0 0 32 32" width="32" height="32">
	<style>
		tspan { white-space:pre }
		.shp0 { fill: #792db8 } 
	</style>
	<g id="Layer">
		<path id="Layer" fill-rule="evenodd" class="shp0" d="M4.85 31.67L4.85 0L26.82 0L26.82 31.67L20.21 31.67L20.21 25.79L11.45 25.79L11.45 31.67L4.85 31.67ZM20.21 6.61L23.91 6.61L23.91 2.91L20.21 2.91L20.21 6.61ZM20.21 11.98L23.91 11.98L23.91 8.28L20.21 8.28L20.21 11.98ZM20.21 17.35L23.91 17.35L23.91 13.66L20.21 13.66L20.21 17.35ZM20.21 22.73L23.91 22.73L23.91 19.03L20.21 19.03L20.21 22.73ZM13.99 6.61L17.68 6.61L17.68 2.91L13.99 2.91L13.99 6.61ZM13.99 11.98L17.68 11.98L17.68 8.28L13.99 8.28L13.99 11.98ZM13.99 17.35L17.68 17.35L17.68 13.66L13.99 13.66L13.99 17.35ZM13.99 22.73L17.68 22.73L17.68 19.03L13.99 19.03L13.99 22.73ZM7.76 6.61L11.45 6.61L11.45 2.91L7.76 2.91L7.76 6.61ZM7.76 11.98L11.45 11.98L11.45 8.28L7.76 8.28L7.76 11.98ZM7.76 17.35L11.45 17.35L11.45 13.66L7.76 13.66L7.76 17.35ZM7.76 22.73L11.45 22.73L11.45 19.03L7.76 19.03L7.76 22.73Z" />
	</g>
	<g id="Layer">
	</g>
	<g id="Layer">
	</g>
	<g id="Layer">
	</g>
	<g id="Layer">
	</g>
	<g id="Layer">
	</g>
	<g id="Layer">
	</g>
	<g id="Layer">
	</g>
	<g id="Layer">
	</g>
	<g id="Layer">
	</g>
	<g id="Layer">
	</g>
	<g id="Layer">
	</g>
	<g id="Layer">
	</g>
	<g id="Layer">
	</g>
	<g id="Layer">
	</g>
	<g id="Layer">
	</g>
</svg>