<svg id="SvgjsSvg1001" width="288" height="288" xmlns="http://www.w3.org/2000/svg" version="1.1" xmlns:xlink="http://www.w3.org/1999/xlink" xmlns:svgjs="http://svgjs.com/svgjs"><defs id="SvgjsDefs1002"></defs><g id="SvgjsG1008" transform="matrix(1,0,0,1,0,0)"><svg xmlns="http://www.w3.org/2000/svg" enable-background="new 0 0 60 60" viewBox="0 0 60 60" width="288" height="288"><path d="M2,8h16.7c-2.8,2-4.7,5.3-4.7,9v4c0,2.5,0.7,4.7,2.2,6.6l1.6-1.2C16.6,24.8,16,23,16,21v-4c0-5,4-9,9-9s9,4,9,9v4
			c0,2-0.6,3.8-1.8,5.4l1.6,1.2c1.5-1.9,2.2-4.1,2.2-6.6v-4c0-3.7-1.8-7-4.7-9H48v16h2V7c0-0.6-0.4-1-1-1H1C0.4,6,0,6.4,0,7v24
			c0,0.6,0.4,1,1,1h8v-2H2L2,8L2,8z" fill="#613390" class="color000 svgShape"></path><path d="M59 28H11c-.6 0-1 .4-1 1v24c0 .6.4 1 1 1h48c.6 0 1-.4 1-1V29C60 28.4 59.6 28 59 28zM12 52V30h16.7c-2.8 2-4.7 5.3-4.7 9v4c0 3.7 1.8 7 4.7 9H12zM35 30c5 0 9 4 9 9v4c0 5-4 9-9 9s-9-4-9-9v-4C26 34 30 30 35 30zM58 52H41.3c2.8-2 4.7-5.3 4.7-9v-4c0-3.7-1.8-7-4.7-9H58V52zM4 11v4h2v-3h3v-2H5C4.4 10 4 10.4 4 11zM46 11c0-.6-.4-1-1-1h-4v2h3v3h2V11z" fill="#613390" class="color000 svgShape"></path><path d="M14 33v4h2v-3h3v-2h-4C14.4 32 14 32.4 14 33zM54 37h2v-4c0-.6-.4-1-1-1h-4v2h3V37zM56 49v-4h-2v3h-3v2h4C55.6 50 56 49.6 56 49zM16 45h-2v4c0 .6.4 1 1 1h4v-2h-3V45z" fill="#613390" class="color000 svgShape"></path><rect width="2" height="3" x="44" y="23" fill="#613390" class="color000 svgShape"></rect><path d="M6 23H4v4c0 .6.4 1 1 1h4v-2H6V23zM31.3 44.7l1.4-1.4L31.4 42H42v-2H31.4l1.3-1.3-1.4-1.4-3 3c-.4.4-.4 1 0 1.4L31.3 44.7zM28.7 21.7l3-3c.4-.4.4-1 0-1.4l-3-3-1.4 1.4 1.3 1.3H18v2h10.6l-1.3 1.3L28.7 21.7z" fill="#613390" class="color000 svgShape"></path><rect width="2" height="2" x="2" y="34" fill="#613390" class="color000 svgShape"></rect><rect width="2" height="2" x="6" y="34" fill="#613390" class="color000 svgShape"></rect><rect width="2" height="2" x="2" y="38" fill="#613390" class="color000 svgShape"></rect><rect width="2" height="2" x="6" y="38" fill="#613390" class="color000 svgShape"></rect><rect width="2" height="2" x="2" y="42" fill="#613390" class="color000 svgShape"></rect><rect width="2" height="2" x="6" y="42" fill="#613390" class="color000 svgShape"></rect><rect width="2" height="2" x="2" y="46" fill="#613390" class="color000 svgShape"></rect><rect width="2" height="2" x="6" y="46" fill="#613390" class="color000 svgShape"></rect><rect width="2" height="2" x="2" y="50" fill="#613390" class="color000 svgShape"></rect><rect width="2" height="2" x="6" y="50" fill="#613390" class="color000 svgShape"></rect><rect width="2" height="2" x="52" y="8" fill="#613390" class="color000 svgShape"></rect><rect width="2" height="2" x="56" y="8" fill="#613390" class="color000 svgShape"></rect><rect width="2" height="2" x="52" y="12" fill="#613390" class="color000 svgShape"></rect><rect width="2" height="2" x="56" y="12" fill="#613390" class="color000 svgShape"></rect><rect width="2" height="2" x="52" y="16" fill="#613390" class="color000 svgShape"></rect><rect width="2" height="2" x="56" y="16" fill="#613390" class="color000 svgShape"></rect><rect width="2" height="2" x="52" y="20" fill="#613390" class="color000 svgShape"></rect><rect width="2" height="2" x="56" y="20" fill="#613390" class="color000 svgShape"></rect><rect width="2" height="2" x="52" y="24" fill="#613390" class="color000 svgShape"></rect><rect width="2" height="2" x="56" y="24" fill="#613390" class="color000 svgShape"></rect></svg></g></svg>