<svg xmlns="http://www.w3.org/2000/svg" xmlns:xlink="http://www.w3.org/1999/xlink" width="900" zoomAndPan="magnify" viewBox="0 0 675 675.000002" height="900" preserveAspectRatio="xMidYMid meet" version="1.0"><defs><clipPath id="04db8f0b7d"><path d="M 2.445312 55.972656 L 479 55.972656 L 479 403 L 2.445312 403 Z M 2.445312 55.972656 " clip-rule="nonzero"/></clipPath><clipPath id="ae61a1e454"><path d="M 175 120 L 672.703125 120 L 672.703125 618.390625 L 175 618.390625 Z M 175 120 " clip-rule="nonzero"/></clipPath></defs><g clip-path="url(#04db8f0b7d)"><path fill="#ffffff" d="M 45.6875 55.988281 L 434.871094 55.988281 C 436.285156 55.988281 437.699219 56.058594 439.109375 56.199219 C 440.515625 56.335938 441.917969 56.542969 443.304688 56.820312 C 444.695312 57.097656 446.066406 57.441406 447.421875 57.851562 C 448.777344 58.261719 450.109375 58.738281 451.417969 59.28125 C 452.726562 59.824219 454.003906 60.429688 455.253906 61.097656 C 456.503906 61.765625 457.714844 62.492188 458.894531 63.28125 C 460.070312 64.066406 461.207031 64.910156 462.300781 65.808594 C 463.398438 66.707031 464.445312 67.65625 465.445312 68.660156 C 466.449219 69.660156 467.398438 70.710938 468.296875 71.804688 C 469.195312 72.902344 470.039062 74.039062 470.824219 75.214844 C 471.609375 76.394531 472.339844 77.605469 473.003906 78.855469 C 473.671875 80.105469 474.277344 81.386719 474.820312 82.695312 C 475.363281 84.003906 475.839844 85.335938 476.25 86.691406 C 476.660156 88.046875 477.003906 89.421875 477.28125 90.808594 C 477.558594 92.199219 477.765625 93.597656 477.902344 95.007812 C 478.042969 96.417969 478.113281 97.832031 478.113281 99.25 L 478.113281 358.8125 C 478.113281 360.230469 478.042969 361.644531 477.902344 363.050781 C 477.765625 364.460938 477.558594 365.863281 477.28125 367.253906 C 477.003906 368.640625 476.660156 370.015625 476.25 371.371094 C 475.839844 372.726562 475.363281 374.058594 474.820312 375.367188 C 474.277344 376.675781 473.671875 377.957031 473.003906 379.207031 C 472.339844 380.453125 471.609375 381.667969 470.824219 382.847656 C 470.039062 384.023438 469.195312 385.160156 468.296875 386.257812 C 467.398438 387.351562 466.449219 388.398438 465.445312 389.402344 C 464.445312 390.402344 463.398438 391.355469 462.300781 392.253906 C 461.207031 393.152344 460.070312 393.996094 458.894531 394.78125 C 457.714844 395.570312 456.503906 396.296875 455.253906 396.964844 C 454.003906 397.632812 452.726562 398.238281 451.417969 398.78125 C 450.109375 399.320312 448.777344 399.796875 447.421875 400.210938 C 446.066406 400.621094 444.695312 400.964844 443.304688 401.242188 C 441.917969 401.519531 440.515625 401.726562 439.109375 401.863281 C 437.699219 402.003906 436.285156 402.074219 434.871094 402.074219 L 45.6875 402.074219 C 44.273438 402.074219 42.859375 402.003906 41.449219 401.863281 C 40.039062 401.726562 38.640625 401.519531 37.25 401.242188 C 35.863281 400.964844 34.492188 400.621094 33.136719 400.210938 C 31.78125 399.796875 30.449219 399.320312 29.140625 398.78125 C 27.832031 398.238281 26.550781 397.632812 25.304688 396.964844 C 24.054688 396.296875 22.839844 395.570312 21.664062 394.78125 C 20.484375 393.996094 19.351562 393.152344 18.253906 392.253906 C 17.160156 391.355469 16.113281 390.402344 15.109375 389.402344 C 14.109375 388.398438 13.160156 387.351562 12.261719 386.257812 C 11.363281 385.160156 10.519531 384.023438 9.734375 382.847656 C 8.945312 381.667969 8.21875 380.453125 7.550781 379.207031 C 6.882812 377.957031 6.277344 376.675781 5.738281 375.367188 C 5.195312 374.058594 4.71875 372.726562 4.308594 371.371094 C 3.894531 370.015625 3.550781 368.640625 3.277344 367.253906 C 3 365.863281 2.792969 364.460938 2.652344 363.050781 C 2.515625 361.644531 2.445312 360.230469 2.445312 358.8125 L 2.445312 99.25 C 2.445312 97.832031 2.515625 96.417969 2.652344 95.007812 C 2.792969 93.597656 3 92.199219 3.277344 90.808594 C 3.550781 89.421875 3.894531 88.046875 4.308594 86.691406 C 4.71875 85.335938 5.195312 84.003906 5.738281 82.695312 C 6.277344 81.386719 6.882812 80.105469 7.550781 78.855469 C 8.21875 77.605469 8.945312 76.394531 9.734375 75.214844 C 10.519531 74.039062 11.363281 72.902344 12.261719 71.804688 C 13.160156 70.710938 14.109375 69.660156 15.109375 68.660156 C 16.113281 67.65625 17.160156 66.707031 18.253906 65.808594 C 19.351562 64.910156 20.484375 64.066406 21.664062 63.28125 C 22.839844 62.492188 24.054688 61.765625 25.304688 61.097656 C 26.550781 60.429688 27.832031 59.824219 29.140625 59.28125 C 30.449219 58.738281 31.78125 58.261719 33.136719 57.851562 C 34.492188 57.441406 35.863281 57.097656 37.25 56.820312 C 38.640625 56.542969 40.039062 56.335938 41.449219 56.199219 C 42.859375 56.058594 44.273438 55.988281 45.6875 55.988281 Z M 45.6875 55.988281 " fill-opacity="1" fill-rule="nonzero"/></g><path fill="#7b1919" d="M 359.195312 185.769531 C 360.613281 185.769531 362.023438 185.839844 363.433594 185.980469 C 364.84375 186.117188 366.242188 186.324219 367.632812 186.601562 C 369.019531 186.878906 370.390625 187.222656 371.746094 187.632812 C 373.101562 188.042969 374.433594 188.519531 375.742188 189.0625 C 377.050781 189.605469 378.332031 190.210938 379.578125 190.878906 C 380.828125 191.546875 382.042969 192.273438 383.21875 193.0625 C 384.398438 193.847656 385.53125 194.691406 386.628906 195.589844 C 387.722656 196.488281 388.769531 197.4375 389.773438 198.441406 C 390.773438 199.441406 391.722656 200.492188 392.621094 201.585938 C 393.519531 202.683594 394.363281 203.820312 395.148438 204.996094 C 395.9375 206.175781 396.664062 207.386719 397.332031 208.636719 C 398 209.886719 398.605469 211.167969 399.144531 212.476562 C 399.6875 213.785156 400.164062 215.117188 400.574219 216.472656 C 400.988281 217.828125 401.332031 219.203125 401.605469 220.589844 C 401.882812 221.980469 402.089844 223.378906 402.230469 224.789062 C 402.367188 226.199219 402.4375 227.613281 402.4375 229.03125 L 402.4375 239.847656 C 402.4375 241.261719 402.367188 242.675781 402.230469 244.085938 C 402.089844 245.496094 401.882812 246.894531 401.605469 248.285156 C 401.332031 249.675781 400.988281 251.046875 400.574219 252.402344 C 400.164062 253.757812 399.6875 255.09375 399.144531 256.402344 C 398.605469 257.710938 398 258.988281 397.332031 260.238281 C 396.664062 261.488281 395.9375 262.703125 395.148438 263.878906 C 394.363281 265.058594 393.519531 266.195312 392.621094 267.289062 C 391.722656 268.386719 390.773438 269.433594 389.773438 270.4375 C 388.769531 271.4375 387.722656 272.386719 386.628906 273.285156 C 385.53125 274.1875 384.398438 275.027344 383.21875 275.816406 C 382.042969 276.601562 380.828125 277.332031 379.578125 278 C 378.332031 278.667969 377.050781 279.269531 375.742188 279.8125 C 374.433594 280.355469 373.101562 280.832031 371.746094 281.242188 C 370.390625 281.65625 369.019531 282 367.632812 282.273438 C 366.242188 282.550781 364.84375 282.757812 363.433594 282.898438 C 362.023438 283.035156 360.613281 283.105469 359.195312 283.105469 C 357.777344 283.105469 356.367188 283.035156 354.957031 282.898438 C 353.546875 282.757812 352.148438 282.550781 350.757812 282.273438 C 349.371094 282 347.996094 281.65625 346.640625 281.242188 C 345.289062 280.832031 343.957031 280.355469 342.648438 279.8125 C 341.339844 279.269531 340.058594 278.667969 338.8125 278 C 337.5625 277.332031 336.347656 276.601562 335.171875 275.816406 C 333.992188 275.027344 332.855469 274.1875 331.761719 273.285156 C 330.667969 272.386719 329.621094 271.4375 328.617188 270.4375 C 327.617188 269.433594 326.667969 268.386719 325.769531 267.289062 C 324.871094 266.195312 324.027344 265.058594 323.242188 263.878906 C 322.453125 262.703125 321.726562 261.488281 321.058594 260.238281 C 320.390625 258.988281 319.785156 257.710938 319.246094 256.402344 C 318.703125 255.09375 318.226562 253.757812 317.816406 252.402344 C 317.402344 251.046875 317.058594 249.675781 316.785156 248.285156 C 316.507812 246.894531 316.300781 245.496094 316.160156 244.085938 C 316.023438 242.675781 315.953125 241.261719 315.953125 239.847656 L 315.953125 229.03125 C 315.953125 227.613281 316.023438 226.199219 316.160156 224.789062 C 316.300781 223.378906 316.507812 221.980469 316.785156 220.589844 C 317.058594 219.203125 317.402344 217.828125 317.816406 216.472656 C 318.226562 215.117188 318.703125 213.785156 319.246094 212.476562 C 319.785156 211.167969 320.390625 209.886719 321.058594 208.636719 C 321.726562 207.386719 322.453125 206.175781 323.242188 204.996094 C 324.027344 203.820312 324.871094 202.683594 325.769531 201.585938 C 326.667969 200.492188 327.617188 199.441406 328.617188 198.441406 C 329.621094 197.4375 330.667969 196.488281 331.761719 195.589844 C 332.855469 194.691406 333.992188 193.847656 335.171875 193.0625 C 336.347656 192.273438 337.5625 191.546875 338.8125 190.878906 C 340.058594 190.210938 341.339844 189.605469 342.648438 189.0625 C 343.957031 188.519531 345.289062 188.042969 346.640625 187.632812 C 347.996094 187.222656 349.371094 186.878906 350.757812 186.601562 C 352.148438 186.324219 353.546875 186.117188 354.957031 185.980469 C 356.367188 185.839844 357.777344 185.769531 359.195312 185.769531 Z M 359.195312 185.769531 " fill-opacity="1" fill-rule="nonzero"/><path fill="#7b1919" d="M 283.519531 358.8125 L 283.519531 337.183594 C 283.519531 307.316406 307.722656 283.105469 337.574219 283.105469 L 380.816406 283.105469 C 410.667969 283.105469 434.871094 307.316406 434.871094 337.183594 L 434.871094 358.8125 Z M 283.519531 358.8125 " fill-opacity="1" fill-rule="nonzero"/><g clip-path="url(#ae61a1e454)"><path fill="#e04e3e" d="M 663.730469 566.136719 L 527.378906 429.726562 C 550.6875 397.632812 564.597656 358.261719 564.597656 315.550781 C 564.597656 208.035156 477.476562 120.878906 370.003906 120.878906 C 262.535156 120.878906 175.414062 208.035156 175.414062 315.550781 C 175.414062 423.066406 262.535156 510.222656 370.003906 510.222656 C 412.695312 510.222656 452.050781 496.308594 484.132812 472.988281 L 620.488281 609.398438 C 626.21875 615.128906 634 618.375 642.109375 618.375 C 650.539062 618.375 658.214844 614.914062 663.730469 609.398438 C 669.242188 603.882812 672.703125 596.203125 672.703125 587.769531 C 672.703125 579.65625 669.460938 571.871094 663.730469 566.136719 Z M 207.847656 315.550781 C 207.847656 226.097656 280.589844 153.324219 370.003906 153.324219 C 459.421875 153.324219 532.164062 226.097656 532.164062 315.550781 C 532.164062 405.003906 459.421875 477.777344 370.003906 477.777344 C 280.589844 477.777344 207.847656 405.003906 207.847656 315.550781 Z M 207.847656 315.550781 " fill-opacity="1" fill-rule="nonzero"/></g><path fill="#7b1919" d="M 142.984375 347.996094 L 45.6875 347.996094 C 39.710938 347.996094 34.878906 343.15625 34.878906 337.183594 C 34.878906 331.210938 39.710938 326.367188 45.6875 326.367188 L 142.984375 326.367188 C 148.957031 326.367188 153.792969 331.210938 153.792969 337.183594 C 153.792969 343.15625 148.957031 347.996094 142.984375 347.996094 Z M 142.984375 347.996094 " fill-opacity="1" fill-rule="nonzero"/><path fill="#7b1919" d="M 142.984375 283.105469 L 45.6875 283.105469 C 39.710938 283.105469 34.878906 278.265625 34.878906 272.292969 C 34.878906 266.320312 39.710938 261.476562 45.6875 261.476562 L 142.984375 261.476562 C 148.957031 261.476562 153.792969 266.320312 153.792969 272.292969 C 153.792969 278.265625 148.957031 283.105469 142.984375 283.105469 Z M 142.984375 283.105469 " fill-opacity="1" fill-rule="nonzero"/><path fill="#7b1919" d="M 153.792969 207.402344 L 45.6875 207.402344 C 39.710938 207.402344 34.878906 202.558594 34.878906 196.585938 C 34.878906 190.613281 39.710938 185.769531 45.6875 185.769531 L 153.792969 185.769531 C 159.769531 185.769531 164.605469 190.613281 164.605469 196.585938 C 164.605469 202.558594 159.769531 207.402344 153.792969 207.402344 Z M 153.792969 207.402344 " fill-opacity="1" fill-rule="nonzero"/><path fill="#7b1919" d="M 88.929688 131.695312 L 45.6875 131.695312 C 39.710938 131.695312 34.878906 126.851562 34.878906 120.878906 C 34.878906 114.90625 39.710938 110.066406 45.6875 110.066406 L 88.929688 110.066406 C 94.90625 110.066406 99.742188 114.90625 99.742188 120.878906 C 99.742188 126.851562 94.90625 131.695312 88.929688 131.695312 Z M 88.929688 131.695312 " fill-opacity="1" fill-rule="nonzero"/><path fill="#7b1919" d="M 175.414062 131.695312 L 132.171875 131.695312 C 126.195312 131.695312 121.363281 126.851562 121.363281 120.878906 C 121.363281 114.90625 126.195312 110.066406 132.171875 110.066406 L 175.414062 110.066406 C 181.390625 110.066406 186.226562 114.90625 186.226562 120.878906 C 186.226562 126.851562 181.390625 131.695312 175.414062 131.695312 Z M 175.414062 131.695312 " fill-opacity="1" fill-rule="nonzero"/><path fill="#7b1919" d="M 240.277344 131.695312 L 218.65625 131.695312 C 212.683594 131.695312 207.847656 126.851562 207.847656 120.878906 C 207.847656 114.90625 212.683594 110.066406 218.65625 110.066406 L 240.277344 110.066406 C 246.253906 110.066406 251.089844 114.90625 251.089844 120.878906 C 251.089844 126.851562 246.253906 131.695312 240.277344 131.695312 Z M 240.277344 131.695312 " fill-opacity="1" fill-rule="nonzero"/></svg>