<svg xmlns="http://www.w3.org/2000/svg" xmlns:xlink="http://www.w3.org/1999/xlink" width="900" zoomAndPan="magnify" viewBox="0 0 675 675.000002" height="900" preserveAspectRatio="xMidYMid meet" version="1.0"><defs><clipPath id="32afaf3cec"><path d="M 1 90.683594 L 642 90.683594 L 642 569 L 1 569 Z M 1 90.683594 " clip-rule="nonzero"/></clipPath><clipPath id="f04a967086"><path d="M 1 105 L 625 105 L 625 583.453125 L 1 583.453125 Z M 1 105 " clip-rule="nonzero"/></clipPath><clipPath id="738d100b04"><path d="M 74 105 L 191 105 L 191 583.453125 L 74 583.453125 Z M 74 105 " clip-rule="nonzero"/></clipPath><clipPath id="26e679602f"><path d="M 398.492188 290.78125 L 478.949219 290.78125 L 478.949219 371.238281 L 398.492188 371.238281 Z M 398.492188 290.78125 " clip-rule="nonzero"/></clipPath><clipPath id="b66acd4a29"><path d="M 438.71875 290.78125 C 416.503906 290.78125 398.492188 308.792969 398.492188 331.007812 C 398.492188 353.226562 416.503906 371.238281 438.71875 371.238281 C 460.9375 371.238281 478.949219 353.226562 478.949219 331.007812 C 478.949219 308.792969 460.9375 290.78125 438.71875 290.78125 " clip-rule="nonzero"/></clipPath></defs><g clip-path="url(#32afaf3cec)"><path fill="#881b1f" d="M 641.699219 541.644531 C 641.699219 556.429688 627.152344 568.550781 609.378906 568.550781 L 50.71875 568.550781 C 32.945312 568.550781 18.402344 556.429688 18.402344 541.644531 L 1.746094 130.566406 C 1.746094 115.78125 32.945312 90.773438 50.71875 90.773438 L 609.378906 90.773438 C 627.152344 90.773438 641.699219 102.890625 641.699219 117.679688 L 641.699219 541.644531 " fill-opacity="1" fill-rule="nonzero"/></g><g clip-path="url(#f04a967086)"><path fill="#ffffff" d="M 624.929688 556.757812 C 624.929688 571.542969 610.386719 583.660156 592.613281 583.660156 L 33.925781 583.660156 C 16.148438 583.660156 1.621094 571.542969 1.621094 556.757812 L 1.621094 132.789062 C 1.621094 118.003906 16.148438 105.886719 33.925781 105.886719 L 592.613281 105.886719 C 610.386719 105.886719 624.929688 118.003906 624.929688 132.789062 L 624.929688 556.757812 " fill-opacity="1" fill-rule="nonzero"/></g><path fill="#881b1f" d="M 673.363281 379.144531 C 673.363281 401.367188 655.355469 419.386719 633.136719 419.386719 L 381.609375 419.386719 C 359.363281 419.386719 341.351562 401.367188 341.351562 379.144531 L 341.351562 280.175781 C 341.351562 257.921875 359.363281 239.90625 381.609375 239.90625 L 633.136719 239.90625 C 655.355469 239.90625 673.363281 257.921875 673.363281 280.175781 L 673.363281 379.144531 " fill-opacity="1" fill-rule="nonzero"/><path fill="#ffffff" d="M 496.277344 329.660156 C 496.277344 361.335938 470.625 386.996094 438.929688 386.996094 C 407.292969 386.996094 381.609375 361.335938 381.609375 329.660156 C 381.609375 297.984375 407.292969 272.292969 438.929688 272.292969 C 470.625 272.292969 496.277344 297.984375 496.277344 329.660156 " fill-opacity="1" fill-rule="nonzero"/><g clip-path="url(#738d100b04)"><path fill="#881b1f" d="M 190.984375 583.660156 L 74.746094 583.660156 L 74.746094 105.882812 L 190.984375 105.882812 L 190.984375 583.660156 " fill-opacity="1" fill-rule="nonzero"/></g><g clip-path="url(#26e679602f)"><g clip-path="url(#b66acd4a29)"><path fill="#e04e3e" d="M 398.492188 290.78125 L 478.949219 290.78125 L 478.949219 371.238281 L 398.492188 371.238281 Z M 398.492188 290.78125 " fill-opacity="1" fill-rule="nonzero"/></g></g></svg>