<svg xmlns="http://www.w3.org/2000/svg" xmlns:xlink="http://www.w3.org/1999/xlink" width="900" zoomAndPan="magnify" viewBox="0 0 675 675.000002" height="900" preserveAspectRatio="xMidYMid meet" version="1.0"><path fill="#7b1919" d="M 221.21875 231.28125 C 221.242188 229.878906 221.28125 228.472656 221.339844 227.070312 C 225.171875 131.742188 310.933594 63.140625 397.484375 47.851562 C 516.238281 26.875 673.953125 105.363281 646.332031 245.277344 C 631.539062 320.183594 578.453125 388.085938 503.28125 408.886719 C 482.558594 414.621094 459.140625 418.316406 437.597656 418.316406 C 392.542969 418.316406 356.996094 394.890625 315.558594 424.816406 C 303.441406 433.566406 290.902344 464.289062 271.683594 457.519531 C 257.636719 452.574219 254.691406 424.09375 253.738281 412.21875 C 248.847656 351.269531 220.136719 292.644531 221.21875 231.28125 Z M 221.21875 231.28125 " fill-opacity="1" fill-rule="nonzero"/><path fill="#e04e3e" d="M 564.726562 232.207031 C 564.726562 233.113281 564.683594 234.019531 564.59375 234.921875 C 564.503906 235.828125 564.371094 236.722656 564.195312 237.613281 C 564.019531 238.503906 563.796875 239.382812 563.535156 240.253906 C 563.269531 241.121094 562.964844 241.976562 562.617188 242.8125 C 562.269531 243.652344 561.882812 244.472656 561.453125 245.273438 C 561.027344 246.074219 560.558594 246.851562 560.054688 247.605469 C 559.550781 248.363281 559.011719 249.089844 558.433594 249.792969 C 557.859375 250.492188 557.25 251.164062 556.609375 251.808594 C 555.964844 252.449219 555.292969 253.058594 554.59375 253.632812 C 553.890625 254.210938 553.164062 254.75 552.40625 255.253906 C 551.652344 255.757812 550.875 256.226562 550.074219 256.652344 C 549.273438 257.082031 548.453125 257.46875 547.617188 257.816406 C 546.777344 258.164062 545.921875 258.46875 545.054688 258.734375 C 544.183594 258.996094 543.304688 259.214844 542.414062 259.394531 C 541.523438 259.570312 540.628906 259.703125 539.722656 259.792969 C 538.820312 259.882812 537.914062 259.925781 537.007812 259.925781 C 536.101562 259.925781 535.195312 259.882812 534.289062 259.792969 C 533.386719 259.703125 532.488281 259.570312 531.597656 259.394531 C 530.710938 259.214844 529.828125 258.996094 528.960938 258.734375 C 528.09375 258.46875 527.238281 258.164062 526.398438 257.816406 C 525.5625 257.46875 524.742188 257.082031 523.941406 256.652344 C 523.140625 256.226562 522.363281 255.757812 521.605469 255.253906 C 520.851562 254.75 520.125 254.210938 519.421875 253.632812 C 518.71875 253.058594 518.046875 252.449219 517.40625 251.808594 C 516.765625 251.164062 516.15625 250.492188 515.578125 249.792969 C 515.003906 249.089844 514.464844 248.363281 513.960938 247.605469 C 513.453125 246.851562 512.988281 246.074219 512.558594 245.273438 C 512.132812 244.472656 511.746094 243.652344 511.398438 242.8125 C 511.050781 241.976562 510.746094 241.121094 510.480469 240.253906 C 510.21875 239.382812 509.996094 238.503906 509.820312 237.613281 C 509.644531 236.722656 509.511719 235.828125 509.421875 234.921875 C 509.332031 234.019531 509.289062 233.113281 509.289062 232.207031 C 509.289062 231.296875 509.332031 230.390625 509.421875 229.488281 C 509.511719 228.585938 509.644531 227.6875 509.820312 226.796875 C 509.996094 225.90625 510.21875 225.027344 510.480469 224.160156 C 510.746094 223.289062 511.050781 222.4375 511.398438 221.597656 C 511.746094 220.757812 512.132812 219.941406 512.558594 219.140625 C 512.988281 218.339844 513.453125 217.558594 513.960938 216.804688 C 514.464844 216.050781 515.003906 215.324219 515.578125 214.621094 C 516.15625 213.917969 516.765625 213.246094 517.40625 212.605469 C 518.046875 211.964844 518.71875 211.355469 519.421875 210.777344 C 520.125 210.203125 520.851562 209.660156 521.605469 209.15625 C 522.363281 208.652344 523.140625 208.1875 523.941406 207.757812 C 524.742188 207.332031 525.5625 206.941406 526.398438 206.597656 C 527.238281 206.25 528.09375 205.941406 528.960938 205.679688 C 529.828125 205.414062 530.710938 205.195312 531.597656 205.019531 C 532.488281 204.839844 533.386719 204.707031 534.289062 204.621094 C 535.195312 204.53125 536.101562 204.484375 537.007812 204.484375 C 537.914062 204.484375 538.820312 204.53125 539.722656 204.621094 C 540.628906 204.707031 541.523438 204.839844 542.414062 205.019531 C 543.304688 205.195312 544.183594 205.414062 545.054688 205.679688 C 545.921875 205.941406 546.777344 206.25 547.617188 206.597656 C 548.453125 206.941406 549.273438 207.332031 550.074219 207.757812 C 550.875 208.1875 551.652344 208.652344 552.40625 209.15625 C 553.164062 209.660156 553.890625 210.203125 554.59375 210.777344 C 555.292969 211.355469 555.964844 211.964844 556.609375 212.605469 C 557.25 213.246094 557.859375 213.917969 558.433594 214.621094 C 559.011719 215.324219 559.550781 216.050781 560.054688 216.804688 C 560.558594 217.558594 561.027344 218.339844 561.453125 219.140625 C 561.882812 219.941406 562.269531 220.757812 562.617188 221.597656 C 562.964844 222.4375 563.269531 223.289062 563.535156 224.160156 C 563.796875 225.027344 564.019531 225.90625 564.195312 226.796875 C 564.371094 227.6875 564.503906 228.585938 564.59375 229.488281 C 564.683594 230.390625 564.726562 231.296875 564.726562 232.207031 Z M 564.726562 232.207031 " fill-opacity="1" fill-rule="nonzero"/><path fill="#e04e3e" d="M 466.8125 232.207031 C 466.8125 233.113281 466.769531 234.019531 466.679688 234.921875 C 466.589844 235.828125 466.457031 236.722656 466.28125 237.613281 C 466.105469 238.503906 465.882812 239.382812 465.621094 240.253906 C 465.355469 241.121094 465.050781 241.976562 464.703125 242.816406 C 464.355469 243.652344 463.96875 244.472656 463.539062 245.273438 C 463.113281 246.074219 462.644531 246.851562 462.140625 247.609375 C 461.636719 248.363281 461.097656 249.089844 460.519531 249.792969 C 459.945312 250.496094 459.335938 251.167969 458.695312 251.808594 C 458.050781 252.449219 457.378906 253.058594 456.679688 253.636719 C 455.976562 254.210938 455.25 254.753906 454.492188 255.257812 C 453.738281 255.761719 452.960938 256.226562 452.160156 256.65625 C 451.359375 257.082031 450.539062 257.472656 449.699219 257.816406 C 448.863281 258.164062 448.007812 258.472656 447.140625 258.734375 C 446.269531 259 445.390625 259.21875 444.5 259.394531 C 443.609375 259.574219 442.710938 259.707031 441.808594 259.796875 C 440.90625 259.882812 440 259.929688 439.089844 259.929688 C 438.183594 259.929688 437.277344 259.882812 436.375 259.796875 C 435.472656 259.707031 434.574219 259.574219 433.683594 259.394531 C 432.792969 259.21875 431.914062 259 431.042969 258.734375 C 430.175781 258.472656 429.320312 258.164062 428.484375 257.816406 C 427.644531 257.472656 426.824219 257.082031 426.023438 256.65625 C 425.222656 256.226562 424.445312 255.761719 423.691406 255.257812 C 422.933594 254.753906 422.207031 254.210938 421.503906 253.636719 C 420.800781 253.058594 420.128906 252.449219 419.488281 251.808594 C 418.847656 251.167969 418.238281 250.496094 417.660156 249.792969 C 417.085938 249.089844 416.546875 248.363281 416.039062 247.609375 C 415.535156 246.851562 415.070312 246.074219 414.640625 245.273438 C 414.214844 244.472656 413.828125 243.652344 413.480469 242.816406 C 413.132812 241.976562 412.828125 241.121094 412.5625 240.253906 C 412.300781 239.382812 412.078125 238.503906 411.902344 237.613281 C 411.722656 236.722656 411.589844 235.828125 411.503906 234.921875 C 411.414062 234.019531 411.367188 233.113281 411.367188 232.207031 C 411.367188 231.296875 411.414062 230.390625 411.503906 229.488281 C 411.589844 228.585938 411.722656 227.6875 411.902344 226.796875 C 412.078125 225.90625 412.300781 225.027344 412.5625 224.160156 C 412.828125 223.289062 413.132812 222.4375 413.480469 221.597656 C 413.828125 220.757812 414.214844 219.9375 414.640625 219.136719 C 415.070312 218.335938 415.535156 217.558594 416.039062 216.804688 C 416.546875 216.050781 417.085938 215.320312 417.660156 214.617188 C 418.238281 213.917969 418.847656 213.246094 419.488281 212.601562 C 420.128906 211.960938 420.800781 211.351562 421.503906 210.777344 C 422.207031 210.199219 422.933594 209.660156 423.691406 209.15625 C 424.445312 208.652344 425.222656 208.183594 426.023438 207.757812 C 426.824219 207.328125 427.644531 206.941406 428.484375 206.59375 C 429.320312 206.246094 430.175781 205.941406 431.042969 205.675781 C 431.914062 205.414062 432.792969 205.191406 433.683594 205.015625 C 434.574219 204.839844 435.472656 204.707031 436.375 204.617188 C 437.277344 204.527344 438.183594 204.484375 439.089844 204.484375 C 440 204.484375 440.90625 204.527344 441.808594 204.617188 C 442.710938 204.707031 443.609375 204.839844 444.5 205.015625 C 445.390625 205.191406 446.269531 205.414062 447.140625 205.675781 C 448.007812 205.941406 448.863281 206.246094 449.699219 206.59375 C 450.539062 206.941406 451.359375 207.328125 452.160156 207.757812 C 452.960938 208.183594 453.738281 208.652344 454.492188 209.15625 C 455.25 209.660156 455.976562 210.199219 456.679688 210.777344 C 457.378906 211.351562 458.050781 211.960938 458.695312 212.601562 C 459.335938 213.246094 459.945312 213.917969 460.519531 214.617188 C 461.097656 215.320312 461.636719 216.050781 462.140625 216.804688 C 462.644531 217.558594 463.113281 218.335938 463.539062 219.136719 C 463.96875 219.9375 464.355469 220.757812 464.703125 221.597656 C 465.050781 222.4375 465.355469 223.289062 465.621094 224.160156 C 465.882812 225.027344 466.105469 225.90625 466.28125 226.796875 C 466.457031 227.6875 466.589844 228.585938 466.679688 229.488281 C 466.769531 230.390625 466.8125 231.296875 466.8125 232.207031 Z M 466.8125 232.207031 " fill-opacity="1" fill-rule="nonzero"/><path fill="#e04e3e" d="M 374.082031 232.207031 C 374.082031 233.113281 374.039062 234.019531 373.949219 234.921875 C 373.859375 235.828125 373.726562 236.722656 373.550781 237.613281 C 373.375 238.503906 373.152344 239.382812 372.890625 240.253906 C 372.625 241.121094 372.320312 241.976562 371.972656 242.8125 C 371.625 243.652344 371.238281 244.472656 370.808594 245.273438 C 370.382812 246.074219 369.914062 246.851562 369.410156 247.605469 C 368.90625 248.363281 368.367188 249.089844 367.792969 249.792969 C 367.214844 250.492188 366.605469 251.164062 365.964844 251.808594 C 365.320312 252.449219 364.652344 253.058594 363.949219 253.632812 C 363.246094 254.210938 362.519531 254.75 361.761719 255.253906 C 361.007812 255.757812 360.230469 256.226562 359.429688 256.652344 C 358.628906 257.082031 357.808594 257.46875 356.972656 257.816406 C 356.132812 258.164062 355.277344 258.46875 354.410156 258.734375 C 353.542969 258.996094 352.660156 259.214844 351.769531 259.394531 C 350.878906 259.570312 349.984375 259.703125 349.082031 259.792969 C 348.175781 259.882812 347.269531 259.925781 346.363281 259.925781 C 345.457031 259.925781 344.550781 259.882812 343.644531 259.792969 C 342.742188 259.703125 341.84375 259.570312 340.957031 259.394531 C 340.066406 259.214844 339.183594 258.996094 338.316406 258.734375 C 337.449219 258.46875 336.59375 258.164062 335.753906 257.816406 C 334.917969 257.46875 334.097656 257.082031 333.296875 256.652344 C 332.496094 256.226562 331.71875 255.757812 330.960938 255.253906 C 330.207031 254.75 329.480469 254.210938 328.777344 253.632812 C 328.074219 253.058594 327.402344 252.449219 326.761719 251.808594 C 326.121094 251.164062 325.511719 250.492188 324.933594 249.792969 C 324.359375 249.089844 323.820312 248.363281 323.316406 247.605469 C 322.808594 246.851562 322.34375 246.074219 321.917969 245.273438 C 321.488281 244.472656 321.101562 243.652344 320.753906 242.8125 C 320.40625 241.976562 320.101562 241.121094 319.835938 240.253906 C 319.574219 239.382812 319.351562 238.503906 319.175781 237.613281 C 319 236.722656 318.867188 235.828125 318.777344 234.921875 C 318.6875 234.019531 318.644531 233.113281 318.644531 232.207031 C 318.644531 231.296875 318.6875 230.390625 318.777344 229.488281 C 318.867188 228.585938 319 227.6875 319.175781 226.796875 C 319.351562 225.90625 319.574219 225.027344 319.835938 224.160156 C 320.101562 223.289062 320.40625 222.4375 320.753906 221.597656 C 321.101562 220.757812 321.488281 219.941406 321.917969 219.140625 C 322.34375 218.339844 322.808594 217.558594 323.316406 216.804688 C 323.820312 216.050781 324.359375 215.324219 324.933594 214.621094 C 325.511719 213.917969 326.121094 213.246094 326.761719 212.605469 C 327.402344 211.964844 328.074219 211.355469 328.777344 210.777344 C 329.480469 210.203125 330.207031 209.660156 330.960938 209.15625 C 331.71875 208.652344 332.496094 208.1875 333.296875 207.757812 C 334.097656 207.332031 334.917969 206.941406 335.753906 206.597656 C 336.59375 206.25 337.449219 205.941406 338.316406 205.679688 C 339.183594 205.414062 340.066406 205.195312 340.957031 205.019531 C 341.84375 204.839844 342.742188 204.707031 343.644531 204.621094 C 344.550781 204.53125 345.457031 204.484375 346.363281 204.484375 C 347.269531 204.484375 348.175781 204.53125 349.082031 204.621094 C 349.984375 204.707031 350.878906 204.839844 351.769531 205.019531 C 352.660156 205.195312 353.542969 205.414062 354.410156 205.679688 C 355.277344 205.941406 356.132812 206.25 356.972656 206.597656 C 357.808594 206.941406 358.628906 207.332031 359.429688 207.757812 C 360.230469 208.1875 361.007812 208.652344 361.761719 209.15625 C 362.519531 209.660156 363.246094 210.203125 363.949219 210.777344 C 364.652344 211.355469 365.320312 211.964844 365.964844 212.605469 C 366.605469 213.246094 367.214844 213.917969 367.792969 214.621094 C 368.367188 215.324219 368.90625 216.050781 369.410156 216.804688 C 369.914062 217.558594 370.382812 218.339844 370.808594 219.140625 C 371.238281 219.941406 371.625 220.757812 371.972656 221.597656 C 372.320312 222.4375 372.625 223.289062 372.890625 224.160156 C 373.152344 225.027344 373.375 225.90625 373.550781 226.796875 C 373.726562 227.6875 373.859375 228.585938 373.949219 229.488281 C 374.039062 230.390625 374.082031 231.296875 374.082031 232.207031 Z M 374.082031 232.207031 " fill-opacity="1" fill-rule="nonzero"/><path fill="#ffffff" d="M 453.535156 414.054688 C 453.511719 412.652344 453.472656 411.246094 453.414062 409.84375 C 449.585938 314.515625 363.824219 245.910156 277.269531 230.621094 C 158.519531 209.648438 0.804688 288.136719 28.421875 428.046875 C 43.21875 502.953125 96.300781 570.859375 171.472656 591.65625 C 192.195312 597.394531 215.613281 601.089844 237.15625 601.089844 C 282.210938 601.089844 317.757812 577.664062 359.195312 607.589844 C 371.3125 616.339844 383.851562 647.0625 403.070312 640.289062 C 417.121094 635.34375 420.0625 606.867188 421.015625 594.992188 C 425.910156 534.042969 454.617188 475.421875 453.535156 414.054688 Z M 453.535156 414.054688 " fill-opacity="1" fill-rule="nonzero"/><path fill="#e04e3e" d="M 165.46875 414.976562 C 165.46875 415.886719 165.421875 416.792969 165.335938 417.695312 C 165.246094 418.597656 165.113281 419.496094 164.933594 420.386719 C 164.757812 421.277344 164.539062 422.15625 164.273438 423.023438 C 164.011719 423.894531 163.707031 424.746094 163.359375 425.585938 C 163.011719 426.425781 162.621094 427.246094 162.195312 428.046875 C 161.765625 428.847656 161.300781 429.625 160.796875 430.378906 C 160.292969 431.132812 159.75 431.863281 159.175781 432.5625 C 158.601562 433.265625 157.992188 433.9375 157.347656 434.578125 C 156.707031 435.222656 156.035156 435.832031 155.332031 436.40625 C 154.632812 436.980469 153.902344 437.523438 153.148438 438.027344 C 152.394531 438.53125 151.617188 438.996094 150.816406 439.425781 C 150.015625 439.851562 149.195312 440.242188 148.355469 440.589844 C 147.515625 440.9375 146.664062 441.242188 145.792969 441.503906 C 144.925781 441.769531 144.046875 441.988281 143.15625 442.164062 C 142.265625 442.34375 141.367188 442.476562 140.464844 442.566406 C 139.5625 442.652344 138.65625 442.699219 137.746094 442.699219 C 136.839844 442.699219 135.933594 442.652344 135.03125 442.566406 C 134.128906 442.476562 133.230469 442.34375 132.339844 442.164062 C 131.449219 441.988281 130.570312 441.769531 129.699219 441.503906 C 128.832031 441.242188 127.976562 440.9375 127.140625 440.589844 C 126.300781 440.242188 125.480469 439.851562 124.679688 439.425781 C 123.878906 438.996094 123.101562 438.53125 122.347656 438.027344 C 121.59375 437.523438 120.863281 436.980469 120.164062 436.40625 C 119.460938 435.832031 118.789062 435.222656 118.148438 434.578125 C 117.503906 433.9375 116.894531 433.265625 116.320312 432.5625 C 115.742188 431.863281 115.203125 431.132812 114.699219 430.378906 C 114.195312 429.625 113.730469 428.847656 113.300781 428.046875 C 112.871094 427.246094 112.484375 426.425781 112.136719 425.585938 C 111.789062 424.746094 111.484375 423.894531 111.222656 423.023438 C 110.957031 422.15625 110.738281 421.277344 110.558594 420.386719 C 110.382812 419.496094 110.25 418.597656 110.160156 417.695312 C 110.070312 416.792969 110.027344 415.886719 110.027344 414.976562 C 110.027344 414.070312 110.070312 413.164062 110.160156 412.261719 C 110.25 411.359375 110.382812 410.460938 110.558594 409.570312 C 110.738281 408.679688 110.957031 407.800781 111.222656 406.929688 C 111.484375 406.0625 111.789062 405.210938 112.136719 404.371094 C 112.484375 403.53125 112.871094 402.710938 113.300781 401.910156 C 113.730469 401.109375 114.195312 400.332031 114.699219 399.578125 C 115.203125 398.824219 115.742188 398.09375 116.320312 397.394531 C 116.894531 396.691406 117.503906 396.019531 118.148438 395.378906 C 118.789062 394.734375 119.460938 394.125 120.164062 393.550781 C 120.863281 392.972656 121.59375 392.433594 122.347656 391.929688 C 123.101562 391.425781 123.878906 390.960938 124.679688 390.53125 C 125.480469 390.101562 126.300781 389.714844 127.140625 389.367188 C 127.976562 389.019531 128.832031 388.714844 129.699219 388.453125 C 130.570312 388.1875 131.449219 387.96875 132.339844 387.789062 C 133.230469 387.613281 134.128906 387.480469 135.03125 387.390625 C 135.933594 387.300781 136.839844 387.257812 137.746094 387.257812 C 138.65625 387.257812 139.5625 387.300781 140.464844 387.390625 C 141.367188 387.480469 142.265625 387.613281 143.15625 387.789062 C 144.046875 387.96875 144.925781 388.1875 145.792969 388.453125 C 146.664062 388.714844 147.515625 389.019531 148.355469 389.367188 C 149.195312 389.714844 150.015625 390.101562 150.816406 390.53125 C 151.617188 390.960938 152.394531 391.425781 153.148438 391.929688 C 153.902344 392.433594 154.632812 392.972656 155.332031 393.550781 C 156.035156 394.125 156.707031 394.734375 157.347656 395.378906 C 157.992188 396.019531 158.601562 396.691406 159.175781 397.394531 C 159.75 398.09375 160.292969 398.824219 160.796875 399.578125 C 161.300781 400.332031 161.765625 401.109375 162.195312 401.910156 C 162.621094 402.710938 163.011719 403.53125 163.359375 404.371094 C 163.707031 405.210938 164.011719 406.0625 164.273438 406.929688 C 164.539062 407.800781 164.757812 408.679688 164.933594 409.570312 C 165.113281 410.460938 165.246094 411.359375 165.335938 412.261719 C 165.421875 413.164062 165.46875 414.070312 165.46875 414.976562 Z M 165.46875 414.976562 " fill-opacity="1" fill-rule="nonzero"/><path fill="#e04e3e" d="M 263.386719 414.976562 C 263.386719 415.886719 263.34375 416.792969 263.253906 417.695312 C 263.164062 418.597656 263.03125 419.496094 262.855469 420.386719 C 262.675781 421.277344 262.457031 422.15625 262.191406 423.027344 C 261.929688 423.894531 261.625 424.75 261.277344 425.585938 C 260.929688 426.425781 260.539062 427.246094 260.113281 428.046875 C 259.683594 428.847656 259.21875 429.625 258.714844 430.378906 C 258.210938 431.136719 257.667969 431.863281 257.09375 432.566406 C 256.519531 433.265625 255.910156 433.9375 255.265625 434.582031 C 254.625 435.222656 253.953125 435.832031 253.25 436.410156 C 252.550781 436.984375 251.820312 437.523438 251.066406 438.027344 C 250.3125 438.53125 249.53125 439 248.730469 439.425781 C 247.929688 439.855469 247.113281 440.242188 246.273438 440.589844 C 245.433594 440.9375 244.578125 441.242188 243.710938 441.507812 C 242.84375 441.769531 241.960938 441.992188 241.070312 442.167969 C 240.179688 442.34375 239.285156 442.476562 238.382812 442.566406 C 237.476562 442.65625 236.570312 442.699219 235.664062 442.699219 C 234.753906 442.699219 233.851562 442.65625 232.945312 442.566406 C 232.042969 442.476562 231.144531 442.34375 230.253906 442.167969 C 229.363281 441.992188 228.484375 441.769531 227.617188 441.507812 C 226.746094 441.242188 225.894531 440.9375 225.054688 440.589844 C 224.214844 440.242188 223.394531 439.855469 222.59375 439.425781 C 221.792969 439 221.015625 438.53125 220.261719 438.027344 C 219.507812 437.523438 218.777344 436.984375 218.078125 436.40625 C 217.375 435.832031 216.703125 435.222656 216.0625 434.582031 C 215.417969 433.9375 214.808594 433.265625 214.234375 432.566406 C 213.65625 431.863281 213.117188 431.136719 212.613281 430.378906 C 212.109375 429.625 211.640625 428.847656 211.214844 428.046875 C 210.785156 427.246094 210.398438 426.425781 210.050781 425.585938 C 209.703125 424.75 209.398438 423.894531 209.136719 423.027344 C 208.871094 422.15625 208.652344 421.277344 208.472656 420.386719 C 208.296875 419.496094 208.164062 418.597656 208.074219 417.695312 C 207.984375 416.792969 207.941406 415.886719 207.941406 414.976562 C 207.941406 414.070312 207.984375 413.164062 208.074219 412.261719 C 208.164062 411.359375 208.296875 410.460938 208.472656 409.570312 C 208.652344 408.679688 208.871094 407.800781 209.136719 406.929688 C 209.398438 406.0625 209.703125 405.207031 210.050781 404.371094 C 210.398438 403.53125 210.785156 402.710938 211.214844 401.910156 C 211.640625 401.109375 212.109375 400.332031 212.613281 399.578125 C 213.117188 398.820312 213.65625 398.09375 214.234375 397.390625 C 214.808594 396.691406 215.417969 396.015625 216.0625 395.375 C 216.703125 394.734375 217.375 394.125 218.078125 393.546875 C 218.777344 392.972656 219.507812 392.433594 220.261719 391.929688 C 221.015625 391.421875 221.792969 390.957031 222.59375 390.527344 C 223.394531 390.101562 224.214844 389.714844 225.054688 389.367188 C 225.894531 389.019531 226.746094 388.714844 227.617188 388.449219 C 228.484375 388.1875 229.363281 387.964844 230.253906 387.789062 C 231.144531 387.609375 232.042969 387.476562 232.945312 387.390625 C 233.851562 387.300781 234.753906 387.253906 235.664062 387.253906 C 236.570312 387.253906 237.476562 387.300781 238.382812 387.390625 C 239.285156 387.476562 240.179688 387.609375 241.070312 387.789062 C 241.960938 387.964844 242.84375 388.1875 243.710938 388.449219 C 244.578125 388.714844 245.433594 389.019531 246.273438 389.367188 C 247.113281 389.714844 247.929688 390.101562 248.730469 390.527344 C 249.53125 390.957031 250.3125 391.421875 251.066406 391.929688 C 251.820312 392.433594 252.550781 392.972656 253.25 393.546875 C 253.953125 394.125 254.625 394.734375 255.265625 395.375 C 255.910156 396.015625 256.519531 396.6875 257.09375 397.390625 C 257.667969 398.09375 258.210938 398.820312 258.714844 399.578125 C 259.21875 400.332031 259.683594 401.109375 260.113281 401.910156 C 260.539062 402.710938 260.929688 403.53125 261.277344 404.371094 C 261.625 405.207031 261.929688 406.0625 262.191406 406.929688 C 262.457031 407.800781 262.675781 408.679688 262.855469 409.570312 C 263.03125 410.460938 263.164062 411.359375 263.253906 412.261719 C 263.34375 413.164062 263.386719 414.070312 263.386719 414.976562 Z M 263.386719 414.976562 " fill-opacity="1" fill-rule="nonzero"/><path fill="#e04e3e" d="M 356.113281 414.976562 C 356.113281 415.886719 356.066406 416.792969 355.980469 417.695312 C 355.890625 418.597656 355.757812 419.496094 355.578125 420.386719 C 355.402344 421.277344 355.183594 422.15625 354.917969 423.023438 C 354.65625 423.894531 354.347656 424.746094 354.003906 425.585938 C 353.65625 426.425781 353.265625 427.246094 352.839844 428.046875 C 352.410156 428.847656 351.945312 429.625 351.441406 430.378906 C 350.9375 431.132812 350.394531 431.863281 349.820312 432.5625 C 349.242188 433.265625 348.636719 433.9375 347.992188 434.578125 C 347.351562 435.222656 346.679688 435.832031 345.976562 436.40625 C 345.277344 436.980469 344.546875 437.523438 343.792969 438.027344 C 343.039062 438.53125 342.261719 438.996094 341.460938 439.425781 C 340.660156 439.851562 339.839844 440.242188 339 440.589844 C 338.160156 440.9375 337.308594 441.242188 336.4375 441.503906 C 335.570312 441.769531 334.691406 441.988281 333.800781 442.164062 C 332.910156 442.34375 332.011719 442.476562 331.109375 442.566406 C 330.207031 442.652344 329.300781 442.699219 328.390625 442.699219 C 327.484375 442.699219 326.578125 442.652344 325.675781 442.566406 C 324.773438 442.476562 323.875 442.34375 322.984375 442.164062 C 322.09375 441.988281 321.214844 441.769531 320.34375 441.503906 C 319.476562 441.242188 318.621094 440.9375 317.785156 440.589844 C 316.945312 440.242188 316.125 439.851562 315.324219 439.425781 C 314.523438 438.996094 313.746094 438.53125 312.992188 438.027344 C 312.238281 437.523438 311.507812 436.980469 310.804688 436.40625 C 310.105469 435.832031 309.433594 435.222656 308.789062 434.578125 C 308.148438 433.9375 307.539062 433.265625 306.964844 432.5625 C 306.386719 431.863281 305.847656 431.132812 305.34375 430.378906 C 304.839844 429.625 304.371094 428.847656 303.945312 428.046875 C 303.515625 427.246094 303.128906 426.425781 302.78125 425.585938 C 302.433594 424.746094 302.128906 423.894531 301.867188 423.023438 C 301.601562 422.15625 301.382812 421.277344 301.203125 420.386719 C 301.027344 419.496094 300.894531 418.597656 300.804688 417.695312 C 300.714844 416.792969 300.671875 415.886719 300.671875 414.976562 C 300.671875 414.070312 300.714844 413.164062 300.804688 412.261719 C 300.894531 411.359375 301.027344 410.460938 301.203125 409.570312 C 301.382812 408.679688 301.601562 407.800781 301.867188 406.929688 C 302.128906 406.0625 302.433594 405.210938 302.78125 404.371094 C 303.128906 403.53125 303.515625 402.710938 303.945312 401.910156 C 304.371094 401.109375 304.839844 400.332031 305.34375 399.578125 C 305.847656 398.824219 306.386719 398.09375 306.964844 397.394531 C 307.539062 396.691406 308.148438 396.019531 308.789062 395.378906 C 309.433594 394.734375 310.105469 394.125 310.804688 393.550781 C 311.507812 392.972656 312.238281 392.433594 312.992188 391.929688 C 313.746094 391.425781 314.523438 390.960938 315.324219 390.53125 C 316.125 390.101562 316.945312 389.714844 317.785156 389.367188 C 318.621094 389.019531 319.476562 388.714844 320.34375 388.453125 C 321.214844 388.1875 322.09375 387.96875 322.984375 387.789062 C 323.875 387.613281 324.773438 387.480469 325.675781 387.390625 C 326.578125 387.300781 327.484375 387.257812 328.390625 387.257812 C 329.300781 387.257812 330.207031 387.300781 331.109375 387.390625 C 332.011719 387.480469 332.910156 387.613281 333.800781 387.789062 C 334.691406 387.96875 335.570312 388.1875 336.4375 388.453125 C 337.308594 388.714844 338.160156 389.019531 339 389.367188 C 339.839844 389.714844 340.660156 390.101562 341.460938 390.53125 C 342.261719 390.960938 343.039062 391.425781 343.792969 391.929688 C 344.546875 392.433594 345.277344 392.972656 345.976562 393.550781 C 346.679688 394.125 347.351562 394.734375 347.992188 395.378906 C 348.636719 396.019531 349.242188 396.691406 349.820312 397.394531 C 350.394531 398.09375 350.9375 398.824219 351.441406 399.578125 C 351.945312 400.332031 352.410156 401.109375 352.839844 401.910156 C 353.265625 402.710938 353.65625 403.53125 354.003906 404.371094 C 354.347656 405.210938 354.65625 406.0625 354.917969 406.929688 C 355.183594 407.800781 355.402344 408.679688 355.578125 409.570312 C 355.757812 410.460938 355.890625 411.359375 355.980469 412.261719 C 356.066406 413.164062 356.113281 414.070312 356.113281 414.976562 Z M 356.113281 414.976562 " fill-opacity="1" fill-rule="nonzero"/></svg>