<svg xmlns="http://www.w3.org/2000/svg" xmlns:xlink="http://www.w3.org/1999/xlink" width="900" zoomAndPan="magnify" viewBox="0 0 675 675.000002" height="900" preserveAspectRatio="xMidYMid meet" version="1.0"><defs><clipPath id="a589058c6a"><path d="M 171 53.308594 L 255 53.308594 L 255 137 L 171 137 Z M 171 53.308594 " clip-rule="nonzero"/></clipPath><clipPath id="bdfbb1f396"><path d="M 486 550 L 543 550 L 543 606.738281 L 486 606.738281 Z M 486 550 " clip-rule="nonzero"/></clipPath></defs><path fill="#ffffff" d="M 212.871094 364.4375 C 157.917969 364.4375 113.34375 319.90625 113.34375 264.925781 C 113.34375 209.980469 157.917969 165.414062 212.871094 165.414062 C 267.828125 165.414062 312.398438 209.980469 312.398438 264.925781 C 312.398438 319.90625 267.828125 364.4375 212.871094 364.4375 Z M 212.871094 89.839844 C 116.1875 89.839844 37.789062 168.226562 37.789062 264.925781 C 37.789062 361.628906 116.1875 439.980469 212.871094 439.980469 C 309.589844 439.980469 387.988281 361.628906 387.988281 264.925781 C 387.988281 168.226562 309.589844 89.839844 212.871094 89.839844 " fill-opacity="1" fill-rule="nonzero"/><g clip-path="url(#a589058c6a)"><path fill="#ffffff" d="M 237.042969 136.023438 L 188.699219 136.023438 C 179.210938 136.023438 171.507812 128.320312 171.507812 118.800781 L 171.507812 70.5 C 171.507812 61.011719 179.210938 53.273438 188.699219 53.273438 L 237.042969 53.273438 C 246.566406 53.273438 254.238281 61.011719 254.238281 70.5 L 254.238281 118.800781 C 254.238281 128.320312 246.566406 136.023438 237.042969 136.023438 " fill-opacity="1" fill-rule="nonzero"/></g><path fill="#ffffff" d="M 321.128906 190.871094 L 286.9375 156.6875 C 280.226562 149.976562 280.226562 139.066406 286.9375 132.355469 L 321.128906 98.203125 C 327.839844 91.492188 338.71875 91.492188 345.464844 98.203125 L 379.652344 132.355469 C 386.367188 139.066406 386.367188 149.976562 379.652344 156.6875 L 345.464844 190.871094 C 338.71875 197.582031 327.839844 197.582031 321.128906 190.871094 " fill-opacity="1" fill-rule="nonzero"/><path fill="#ffffff" d="M 341.792969 289.09375 L 341.792969 240.757812 C 341.792969 231.269531 349.5 223.566406 358.988281 223.566406 L 407.328125 223.566406 C 416.851562 223.566406 424.523438 231.269531 424.523438 240.757812 L 424.523438 289.09375 C 424.523438 298.582031 416.851562 306.285156 407.328125 306.285156 L 358.988281 306.285156 C 349.5 306.285156 341.792969 298.582031 341.792969 289.09375 " fill-opacity="1" fill-rule="nonzero"/><path fill="#ffffff" d="M 286.9375 373.167969 L 321.128906 338.980469 C 327.839844 332.269531 338.71875 332.269531 345.464844 338.980469 L 379.652344 373.167969 C 386.367188 379.878906 386.367188 390.789062 379.652344 397.5 L 345.464844 431.648438 C 338.71875 438.394531 327.839844 438.394531 321.128906 431.648438 L 286.9375 397.5 C 280.226562 390.789062 280.226562 379.878906 286.9375 373.167969 " fill-opacity="1" fill-rule="nonzero"/><path fill="#ffffff" d="M 188.699219 393.828125 L 237.042969 393.828125 C 246.566406 393.828125 254.238281 401.53125 254.238281 411.054688 L 254.238281 459.355469 C 254.238281 468.84375 246.566406 476.578125 237.042969 476.578125 L 188.699219 476.578125 C 179.210938 476.578125 171.507812 468.84375 171.507812 459.355469 L 171.507812 411.054688 C 171.507812 401.53125 179.210938 393.828125 188.699219 393.828125 " fill-opacity="1" fill-rule="nonzero"/><path fill="#ffffff" d="M 104.617188 338.980469 L 138.804688 373.167969 C 145.515625 379.878906 145.515625 390.789062 138.804688 397.5 L 104.617188 431.648438 C 97.902344 438.394531 87.023438 438.394531 80.277344 431.648438 L 46.121094 397.5 C 39.410156 390.789062 39.410156 379.878906 46.121094 373.167969 L 80.277344 338.980469 C 87.023438 332.269531 97.902344 332.269531 104.617188 338.980469 " fill-opacity="1" fill-rule="nonzero"/><path fill="#ffffff" d="M 83.949219 240.757812 L 83.949219 289.09375 C 83.949219 298.582031 76.246094 306.285156 66.753906 306.285156 L 18.414062 306.285156 C 8.890625 306.285156 1.21875 298.582031 1.21875 289.09375 L 1.21875 240.757812 C 1.21875 231.269531 8.890625 223.566406 18.414062 223.566406 L 66.753906 223.566406 C 76.246094 223.566406 83.949219 231.269531 83.949219 240.757812 " fill-opacity="1" fill-rule="nonzero"/><path fill="#ffffff" d="M 138.804688 156.6875 L 104.617188 190.871094 C 97.902344 197.582031 87.023438 197.582031 80.277344 190.871094 L 46.121094 156.6875 C 39.410156 149.976562 39.410156 139.066406 46.121094 132.355469 L 80.277344 98.203125 C 87.023438 91.492188 97.902344 91.492188 104.617188 98.203125 L 138.804688 132.355469 C 145.515625 139.066406 145.515625 149.976562 138.804688 156.6875 " fill-opacity="1" fill-rule="nonzero"/><path fill="#e04e3e" d="M 514.460938 531.0625 C 477.328125 531.0625 447.273438 501.011719 447.273438 463.917969 C 447.273438 426.824219 477.328125 396.738281 514.460938 396.738281 C 551.527344 396.738281 581.617188 426.824219 581.617188 463.917969 C 581.617188 501.011719 551.527344 531.0625 514.460938 531.0625 Z M 514.460938 345.726562 C 449.15625 345.726562 396.253906 398.65625 396.253906 463.917969 C 396.253906 529.179688 449.15625 582.074219 514.460938 582.074219 C 579.699219 582.074219 632.636719 529.179688 632.636719 463.917969 C 632.636719 398.65625 579.699219 345.726562 514.460938 345.726562 " fill-opacity="1" fill-rule="nonzero"/><path fill="#e04e3e" d="M 530.761719 376.902344 L 498.128906 376.902344 C 491.714844 376.902344 486.523438 371.710938 486.523438 365.296875 L 486.523438 332.667969 C 486.523438 326.253906 491.714844 321.0625 498.128906 321.0625 L 530.761719 321.0625 C 537.179688 321.0625 542.371094 326.253906 542.371094 332.667969 L 542.371094 365.296875 C 542.371094 371.710938 537.179688 376.902344 530.761719 376.902344 " fill-opacity="1" fill-rule="nonzero"/><path fill="#e04e3e" d="M 587.503906 413.929688 L 564.457031 390.855469 C 559.925781 386.292969 559.925781 378.953125 564.457031 374.421875 L 587.503906 351.347656 C 592.035156 346.816406 599.40625 346.816406 603.9375 351.347656 L 626.984375 374.421875 C 631.546875 378.953125 631.546875 386.292969 626.984375 390.855469 L 603.9375 413.929688 C 599.40625 418.457031 592.035156 418.457031 587.503906 413.929688 " fill-opacity="1" fill-rule="nonzero"/><path fill="#e04e3e" d="M 601.457031 480.214844 L 601.457031 447.585938 C 601.457031 441.171875 606.679688 435.980469 613.0625 435.980469 L 645.699219 435.980469 C 652.113281 435.980469 657.304688 441.171875 657.304688 447.585938 L 657.304688 480.214844 C 657.304688 486.628906 652.113281 491.820312 645.699219 491.820312 L 613.0625 491.820312 C 606.683594 491.820312 601.457031 486.628906 601.457031 480.214844 " fill-opacity="1" fill-rule="nonzero"/><path fill="#e04e3e" d="M 564.457031 536.980469 L 587.503906 513.902344 C 592.035156 509.375 599.40625 509.375 603.9375 513.902344 L 626.984375 536.980469 C 631.546875 541.507812 631.546875 548.847656 626.984375 553.378906 L 603.9375 576.453125 C 599.40625 580.984375 592.035156 580.984375 587.503906 576.453125 L 564.457031 553.378906 C 559.925781 548.847656 559.925781 541.507812 564.457031 536.980469 " fill-opacity="1" fill-rule="nonzero"/><g clip-path="url(#bdfbb1f396)"><path fill="#e04e3e" d="M 498.128906 550.898438 L 530.761719 550.898438 C 537.179688 550.898438 542.371094 556.089844 542.371094 562.535156 L 542.371094 595.132812 C 542.371094 601.546875 537.179688 606.738281 530.761719 606.738281 L 498.128906 606.738281 C 491.714844 606.738281 486.523438 601.546875 486.523438 595.132812 L 486.523438 562.535156 C 486.523438 556.089844 491.714844 550.898438 498.128906 550.898438 " fill-opacity="1" fill-rule="nonzero"/></g><path fill="#e04e3e" d="M 441.386719 513.902344 L 464.433594 536.980469 C 468.996094 541.507812 468.996094 548.847656 464.433594 553.378906 L 441.386719 576.453125 C 436.824219 580.984375 429.484375 580.984375 424.953125 576.453125 L 401.875 553.378906 C 397.34375 548.847656 397.34375 541.507812 401.875 536.980469 L 424.953125 513.902344 C 429.484375 509.375 436.824219 509.375 441.386719 513.902344 " fill-opacity="1" fill-rule="nonzero"/><path fill="#e04e3e" d="M 427.433594 447.585938 L 427.433594 480.214844 C 427.433594 486.628906 422.210938 491.820312 415.792969 491.820312 L 383.191406 491.820312 C 376.777344 491.820312 371.554688 486.628906 371.554688 480.214844 L 371.554688 447.585938 C 371.554688 441.171875 376.777344 435.980469 383.191406 435.980469 L 415.792969 435.980469 C 422.210938 435.980469 427.433594 441.171875 427.433594 447.585938 " fill-opacity="1" fill-rule="nonzero"/><path fill="#e04e3e" d="M 464.433594 390.855469 L 441.386719 413.929688 C 436.824219 418.457031 429.484375 418.457031 424.953125 413.929688 L 401.875 390.855469 C 397.34375 386.292969 397.34375 378.953125 401.875 374.421875 L 424.953125 351.347656 C 429.484375 346.816406 436.824219 346.816406 441.386719 351.347656 L 464.433594 374.421875 C 468.996094 378.953125 468.996094 386.292969 464.433594 390.855469 " fill-opacity="1" fill-rule="nonzero"/></svg>