<svg xmlns="http://www.w3.org/2000/svg" xmlns:xlink="http://www.w3.org/1999/xlink" width="900" zoomAndPan="magnify" viewBox="0 0 675 675.000002" height="900" preserveAspectRatio="xMidYMid meet" version="1.0"><defs><clipPath id="f7de71b67a"><path d="M 80.535156 0 L 498 0 L 498 674 L 80.535156 674 Z M 80.535156 0 " clip-rule="nonzero"/></clipPath><clipPath id="11739a4c47"><path d="M 225 228 L 594.277344 228 L 594.277344 446 L 225 446 Z M 225 228 " clip-rule="nonzero"/></clipPath></defs><g clip-path="url(#f7de71b67a)"><path fill="#ffffff" d="M 497.824219 24.070312 C 497.824219 10.777344 487.050781 0 473.761719 0 L 104.800781 0 C 91.511719 0 80.738281 10.777344 80.738281 24.070312 L 80.738281 649.929688 C 80.738281 663.222656 91.511719 674 104.800781 674 L 473.761719 674 C 487.050781 674 497.824219 663.222656 497.824219 649.929688 Z M 497.824219 24.070312 " fill-opacity="1" fill-rule="evenodd"/></g><g clip-path="url(#11739a4c47)"><path fill="#e04e3e" d="M 582.46875 312.210938 L 487.105469 232.714844 C 486.449219 232.164062 485.753906 231.664062 485.023438 231.214844 C 484.296875 230.761719 483.539062 230.367188 482.75 230.023438 C 481.964844 229.679688 481.160156 229.394531 480.335938 229.164062 C 479.507812 228.9375 478.671875 228.769531 477.820312 228.65625 C 476.96875 228.546875 476.117188 228.5 475.261719 228.511719 C 474.402344 228.523438 473.550781 228.59375 472.703125 228.726562 C 471.855469 228.859375 471.023438 229.050781 470.203125 229.300781 C 469.382812 229.550781 468.585938 229.859375 467.808594 230.222656 C 467.035156 230.585938 466.285156 231 465.570312 231.472656 C 464.851562 231.941406 464.171875 232.457031 463.527344 233.023438 C 462.882812 233.589844 462.28125 234.199219 461.726562 234.851562 C 461.167969 235.503906 460.660156 236.191406 460.199219 236.914062 C 459.742188 237.636719 459.335938 238.390625 458.980469 239.171875 C 458.628906 239.953125 458.332031 240.753906 458.089844 241.578125 C 457.851562 242.402344 457.671875 243.238281 457.550781 244.085938 C 457.429688 244.933594 457.367188 245.789062 457.367188 246.644531 L 457.367188 259.554688 C 457.367188 260.824219 457.308594 262.085938 457.183594 263.347656 C 457.058594 264.613281 456.871094 265.863281 456.625 267.109375 C 456.378906 268.351562 456.070312 269.582031 455.703125 270.792969 C 455.332031 272.007812 454.90625 273.199219 454.421875 274.371094 C 453.9375 275.542969 453.394531 276.6875 452.796875 277.804688 C 452.199219 278.925781 451.546875 280.011719 450.84375 281.066406 C 450.140625 282.121094 449.386719 283.140625 448.582031 284.117188 C 447.777344 285.101562 446.925781 286.039062 446.03125 286.933594 C 445.132812 287.832031 444.195312 288.683594 443.214844 289.488281 C 442.234375 290.292969 441.21875 291.046875 440.164062 291.75 C 439.109375 292.457031 438.023438 293.105469 436.90625 293.707031 C 435.789062 294.300781 434.644531 294.84375 433.472656 295.328125 C 432.300781 295.8125 431.109375 296.242188 429.894531 296.609375 C 428.683594 296.976562 427.453125 297.285156 426.210938 297.53125 C 424.96875 297.78125 423.714844 297.964844 422.453125 298.089844 C 421.191406 298.214844 419.925781 298.277344 418.660156 298.277344 L 263.824219 298.277344 C 262.554688 298.277344 261.292969 298.339844 260.03125 298.464844 C 258.765625 298.589844 257.515625 298.773438 256.269531 299.019531 C 255.027344 299.269531 253.800781 299.578125 252.585938 299.945312 C 251.375 300.3125 250.179688 300.738281 249.011719 301.226562 C 247.839844 301.710938 246.695312 302.253906 245.578125 302.851562 C 244.457031 303.449219 243.371094 304.097656 242.316406 304.804688 C 241.261719 305.507812 240.246094 306.261719 239.265625 307.066406 C 238.285156 307.871094 237.347656 308.722656 236.449219 309.617188 C 235.554688 310.515625 234.703125 311.453125 233.902344 312.4375 C 233.097656 313.414062 232.339844 314.433594 231.636719 315.488281 C 230.933594 316.542969 230.28125 317.628906 229.683594 318.746094 C 229.085938 319.867188 228.546875 321.011719 228.0625 322.183594 C 227.574219 323.355469 227.148438 324.546875 226.78125 325.761719 C 226.414062 326.972656 226.105469 328.203125 225.859375 329.445312 C 225.609375 330.691406 225.425781 331.941406 225.300781 333.207031 C 225.175781 334.46875 225.113281 335.734375 225.113281 337 C 225.113281 338.269531 225.175781 339.535156 225.300781 340.796875 C 225.425781 342.058594 225.609375 343.3125 225.855469 344.554688 C 226.105469 345.800781 226.414062 347.027344 226.78125 348.242188 C 227.148438 349.457031 227.574219 350.648438 228.058594 351.820312 C 228.542969 352.992188 229.085938 354.136719 229.683594 355.253906 C 230.28125 356.375 230.933594 357.460938 231.636719 358.515625 C 232.339844 359.570312 233.09375 360.585938 233.898438 361.566406 C 234.703125 362.546875 235.554688 363.484375 236.449219 364.382812 C 237.347656 365.277344 238.285156 366.128906 239.265625 366.933594 C 240.246094 367.738281 241.261719 368.492188 242.316406 369.195312 C 243.371094 369.902344 244.457031 370.554688 245.574219 371.152344 C 246.691406 371.75 247.835938 372.289062 249.007812 372.777344 C 250.179688 373.261719 251.371094 373.6875 252.585938 374.054688 C 253.800781 374.425781 255.027344 374.734375 256.269531 374.980469 C 257.511719 375.226562 258.765625 375.414062 260.027344 375.539062 C 261.289062 375.660156 262.554688 375.722656 263.824219 375.722656 L 418.660156 375.722656 C 419.925781 375.726562 421.191406 375.785156 422.453125 375.910156 C 423.714844 376.035156 424.96875 376.222656 426.210938 376.46875 C 427.453125 376.714844 428.683594 377.023438 429.894531 377.390625 C 431.109375 377.761719 432.300781 378.1875 433.472656 378.671875 C 434.644531 379.15625 435.789062 379.699219 436.90625 380.296875 C 438.023438 380.894531 439.109375 381.546875 440.164062 382.25 C 441.21875 382.953125 442.238281 383.710938 443.214844 384.515625 C 444.195312 385.320312 445.132812 386.167969 446.03125 387.066406 C 446.925781 387.960938 447.777344 388.902344 448.582031 389.882812 C 449.386719 390.863281 450.140625 391.878906 450.84375 392.933594 C 451.546875 393.988281 452.199219 395.074219 452.796875 396.191406 C 453.394531 397.3125 453.9375 398.457031 454.421875 399.628906 C 454.90625 400.800781 455.332031 401.992188 455.703125 403.207031 C 456.070312 404.421875 456.378906 405.648438 456.625 406.890625 C 456.871094 408.136719 457.058594 409.390625 457.183594 410.652344 C 457.308594 411.914062 457.367188 413.179688 457.367188 414.449219 L 457.367188 427.355469 C 457.371094 428.210938 457.429688 429.066406 457.550781 429.914062 C 457.671875 430.761719 457.851562 431.597656 458.089844 432.421875 C 458.332031 433.246094 458.628906 434.046875 458.980469 434.828125 C 459.332031 435.609375 459.742188 436.363281 460.199219 437.085938 C 460.660156 437.808594 461.167969 438.496094 461.726562 439.148438 C 462.285156 439.800781 462.882812 440.410156 463.527344 440.976562 C 464.171875 441.542969 464.851562 442.058594 465.570312 442.53125 C 466.285156 443 467.03125 443.414062 467.808594 443.78125 C 468.585938 444.144531 469.382812 444.449219 470.203125 444.703125 C 471.023438 444.953125 471.855469 445.144531 472.703125 445.273438 C 473.550781 445.40625 474.402344 445.480469 475.257812 445.492188 C 476.117188 445.503906 476.96875 445.453125 477.820312 445.34375 C 478.671875 445.234375 479.507812 445.0625 480.335938 444.835938 C 481.160156 444.605469 481.96875 444.320312 482.753906 443.976562 C 483.539062 443.632812 484.296875 443.238281 485.023438 442.789062 C 485.753906 442.335938 486.449219 441.835938 487.105469 441.289062 L 582.46875 361.789062 C 583.375 361.035156 584.234375 360.234375 585.054688 359.382812 C 585.871094 358.535156 586.640625 357.644531 587.359375 356.710938 C 588.078125 355.777344 588.746094 354.804688 589.359375 353.800781 C 589.972656 352.792969 590.53125 351.753906 591.03125 350.6875 C 591.527344 349.621094 591.96875 348.527344 592.351562 347.410156 C 592.730469 346.296875 593.046875 345.164062 593.304688 344.011719 C 593.5625 342.859375 593.753906 341.699219 593.882812 340.527344 C 594.011719 339.355469 594.074219 338.179688 594.074219 337 C 594.074219 335.820312 594.011719 334.644531 593.882812 333.472656 C 593.753906 332.300781 593.5625 331.140625 593.304688 329.988281 C 593.046875 328.835938 592.730469 327.703125 592.351562 326.589844 C 591.96875 325.472656 591.53125 324.378906 591.03125 323.3125 C 590.53125 322.246094 589.972656 321.207031 589.359375 320.203125 C 588.746094 319.195312 588.078125 318.222656 587.359375 317.289062 C 586.640625 316.355469 585.871094 315.464844 585.054688 314.617188 C 584.234375 313.765625 583.375 312.964844 582.46875 312.210938 Z M 582.46875 312.210938 " fill-opacity="1" fill-rule="evenodd"/></g></svg>