<svg xmlns="http://www.w3.org/2000/svg" xmlns:xlink="http://www.w3.org/1999/xlink" width="500" zoomAndPan="magnify" viewBox="0 0 675 675.000002" height="500" preserveAspectRatio="xMidYMid meet" version="1.0"><defs><clipPath id="112151952f"><path d="M 178.015625 264.085938 L 496.984375 264.085938 L 496.984375 606 L 178.015625 606 Z M 178.015625 264.085938 " clip-rule="nonzero"/></clipPath><clipPath id="108c4acffd"><path d="M 4 6 L 671 6 L 671 672.980469 L 4 672.980469 Z M 4 6 " clip-rule="nonzero"/></clipPath></defs><g clip-path="url(#112151952f)"><path fill="#e04e3e" d="M 178.015625 264.085938 L 497.113281 264.085938 L 497.113281 605.296875 L 178.015625 605.296875 Z M 178.015625 264.085938 " fill-opacity="1" fill-rule="nonzero"/></g><g clip-path="url(#108c4acffd)"><path fill="#ffffff" d="M 655.195312 302.820312 L 374.1875 21.632812 C 353.863281 1.300781 320.914062 1.300781 300.59375 21.632812 L 19.582031 302.820312 C -0.742188 323.15625 -0.742188 356.128906 19.582031 376.460938 C 35.160156 392.050781 58.152344 395.671875 77.195312 387.363281 L 77.195312 594.792969 C 77.195312 637.929688 112.140625 672.898438 155.253906 672.898438 L 519.527344 672.898438 C 562.636719 672.898438 597.585938 637.929688 597.585938 594.792969 L 597.585938 387.363281 C 616.625 395.671875 639.617188 392.050781 655.195312 376.460938 C 675.519531 356.125 675.519531 323.15625 655.195312 302.820312 Z M 428.457031 568.757812 C 428.457031 583.136719 416.808594 594.792969 402.4375 594.792969 L 272.339844 594.792969 C 257.96875 594.792969 246.320312 583.136719 246.320312 568.757812 L 246.320312 412.542969 C 246.320312 398.160156 257.96875 386.503906 272.339844 386.503906 L 402.4375 386.503906 C 416.808594 386.503906 428.457031 398.160156 428.457031 412.542969 Z M 428.457031 568.757812 " fill-opacity="1" fill-rule="nonzero"/></g></svg>