<svg xmlns="http://www.w3.org/2000/svg" xmlns:xlink="http://www.w3.org/1999/xlink" width="50" zoomAndPan="magnify" viewBox="0 0 224.87999 225" height="50" preserveAspectRatio="xMidYMid meet" version="1.0"><defs><clipPath id="2115c1ce06"><path d="M 28.109375 0.0585938 L 196.769531 0.0585938 L 196.769531 224.9375 L 28.109375 224.9375 Z M 28.109375 0.0585938 " clip-rule="nonzero"/></clipPath></defs><g clip-path="url(#2115c1ce06)"><path fill="#ffffff" d="M 184.472656 43.628906 L 153.199219 12.359375 C 146.171875 5.332031 132.820312 0.0585938 123.332031 0.0585938 L 45.679688 0.0585938 C 35.839844 0.0585938 28.109375 7.789062 28.109375 17.628906 L 28.109375 207.371094 C 28.109375 217.210938 35.839844 224.941406 45.679688 224.941406 L 179.203125 224.941406 C 189.039062 224.941406 196.769531 217.210938 196.769531 207.371094 L 196.769531 73.496094 C 196.769531 63.660156 191.148438 50.304688 184.472656 43.628906 Z M 161.632812 192.964844 L 63.246094 192.964844 C 59.382812 192.964844 56.21875 189.800781 56.21875 185.9375 C 56.21875 182.070312 59.382812 178.910156 63.246094 178.910156 L 161.632812 178.910156 C 165.496094 178.910156 168.660156 182.070312 168.660156 185.9375 C 168.660156 189.800781 165.496094 192.964844 161.632812 192.964844 Z M 161.632812 164.855469 L 63.246094 164.855469 C 59.382812 164.855469 56.21875 161.691406 56.21875 157.828125 C 56.21875 153.960938 59.382812 150.800781 63.246094 150.800781 L 161.632812 150.800781 C 165.496094 150.800781 168.660156 153.960938 168.660156 157.828125 C 168.660156 161.691406 165.496094 164.855469 161.632812 164.855469 Z M 161.632812 136.746094 L 63.246094 136.746094 C 59.382812 136.746094 56.21875 133.582031 56.21875 129.71875 C 56.21875 125.851562 59.382812 122.691406 63.246094 122.691406 L 161.632812 122.691406 C 165.496094 122.691406 168.660156 125.851562 168.660156 129.71875 C 168.660156 133.582031 165.496094 136.746094 161.632812 136.746094 Z M 161.632812 108.636719 L 63.246094 108.636719 C 59.382812 108.636719 56.21875 105.472656 56.21875 101.605469 C 56.21875 97.742188 59.382812 94.578125 63.246094 94.578125 L 161.632812 94.578125 C 165.496094 94.578125 168.660156 97.742188 168.660156 101.605469 C 168.660156 105.472656 165.496094 108.636719 161.632812 108.636719 Z M 175.6875 66.46875 L 140.550781 66.46875 C 134.578125 66.46875 130.007812 61.902344 130.007812 55.929688 L 130.007812 20.792969 C 130.007812 14.816406 133.523438 13.414062 137.386719 17.628906 L 178.851562 59.089844 C 182.714844 63.308594 181.660156 66.46875 175.6875 66.46875 Z M 175.6875 66.46875 " fill-opacity="1" fill-rule="nonzero"/></g></svg>
