<svg xmlns="http://www.w3.org/2000/svg" xmlns:xlink="http://www.w3.org/1999/xlink" width="50" zoomAndPan="magnify" viewBox="0 0 224.87999 225" height="50" preserveAspectRatio="xMidYMid meet" version="1.0"><defs><clipPath id="db2f907a50"><path d="M 0 21 L 224.761719 21 L 224.761719 203.816406 L 0 203.816406 Z M 0 21 " clip-rule="nonzero"/></clipPath></defs><g clip-path="url(#db2f907a50)"><path fill="#ffffff" d="M 52.167969 107.09375 C 44.601562 107.09375 38.449219 113.246094 38.449219 120.8125 C 38.449219 128.378906 44.601562 134.527344 52.167969 134.527344 C 59.734375 134.527344 65.882812 128.378906 65.882812 120.8125 C 65.882812 113.246094 59.734375 107.09375 52.167969 107.09375 Z M 52.167969 107.09375 C 44.601562 107.09375 38.449219 113.246094 38.449219 120.8125 C 38.449219 128.378906 44.601562 134.527344 52.167969 134.527344 C 59.734375 134.527344 65.882812 128.378906 65.882812 120.8125 C 65.882812 113.246094 59.734375 107.09375 52.167969 107.09375 Z M 52.167969 107.09375 C 44.601562 107.09375 38.449219 113.246094 38.449219 120.8125 C 38.449219 128.378906 44.601562 134.527344 52.167969 134.527344 C 59.734375 134.527344 65.882812 128.378906 65.882812 120.8125 C 65.882812 113.246094 59.734375 107.09375 52.167969 107.09375 Z M 52.167969 107.09375 C 44.601562 107.09375 38.449219 113.246094 38.449219 120.8125 C 38.449219 128.378906 44.601562 134.527344 52.167969 134.527344 C 59.734375 134.527344 65.882812 128.378906 65.882812 120.8125 C 65.882812 113.246094 59.734375 107.09375 52.167969 107.09375 Z M 211.785156 64.28125 L 138.628906 64.28125 L 138.628906 82.570312 L 149.851562 82.570312 L 149.851562 90.882812 L 74.199219 90.882812 L 74.199219 82.570312 L 85.421875 82.570312 L 85.421875 64.28125 L 12.679688 64.28125 C 5.570312 64.28125 -0.207031 70.058594 -0.207031 77.167969 L -0.207031 190.644531 C -0.207031 197.753906 5.570312 203.53125 12.679688 203.53125 L 211.785156 203.53125 C 218.894531 203.53125 224.671875 197.753906 224.671875 190.644531 L 224.671875 77.167969 C 224.671875 70.058594 218.894531 64.28125 211.785156 64.28125 Z M 52.167969 98.78125 C 64.304688 98.78125 74.199219 108.675781 74.199219 120.8125 C 74.199219 132.949219 64.304688 142.84375 52.167969 142.84375 C 40.03125 142.84375 30.136719 132.949219 30.136719 120.8125 C 30.136719 108.675781 40.03125 98.78125 52.167969 98.78125 Z M 77.523438 183.578125 C 77.523438 169.613281 66.132812 158.222656 52.167969 158.222656 C 38.199219 158.222656 26.8125 169.613281 26.8125 183.578125 L 18.496094 183.578125 C 18.496094 165 33.585938 149.910156 52.167969 149.910156 C 70.746094 149.910156 85.835938 165 85.835938 183.578125 Z M 154.007812 182.332031 L 107.035156 182.332031 L 107.035156 174.019531 L 154.007812 174.019531 Z M 201.394531 147.414062 L 107.035156 147.414062 L 107.035156 139.101562 L 201.394531 139.101562 Z M 201.394531 112.914062 L 107.035156 112.914062 L 107.035156 104.601562 L 201.394531 104.601562 Z M 52.167969 134.527344 C 59.734375 134.527344 65.882812 128.378906 65.882812 120.8125 C 65.882812 113.246094 59.734375 107.09375 52.167969 107.09375 C 44.601562 107.09375 38.449219 113.246094 38.449219 120.8125 C 38.449219 128.378906 44.601562 134.527344 52.167969 134.527344 Z M 52.167969 107.09375 C 44.601562 107.09375 38.449219 113.246094 38.449219 120.8125 C 38.449219 128.378906 44.601562 134.527344 52.167969 134.527344 C 59.734375 134.527344 65.882812 128.378906 65.882812 120.8125 C 65.882812 113.246094 59.734375 107.09375 52.167969 107.09375 Z M 52.167969 107.09375 C 44.601562 107.09375 38.449219 113.246094 38.449219 120.8125 C 38.449219 128.378906 44.601562 134.527344 52.167969 134.527344 C 59.734375 134.527344 65.882812 128.378906 65.882812 120.8125 C 65.882812 113.246094 59.734375 107.09375 52.167969 107.09375 Z M 52.167969 107.09375 C 44.601562 107.09375 38.449219 113.246094 38.449219 120.8125 C 38.449219 128.378906 44.601562 134.527344 52.167969 134.527344 C 59.734375 134.527344 65.882812 128.378906 65.882812 120.8125 C 65.882812 113.246094 59.734375 107.09375 52.167969 107.09375 Z M 52.167969 107.09375 C 44.601562 107.09375 38.449219 113.246094 38.449219 120.8125 C 38.449219 128.378906 44.601562 134.527344 52.167969 134.527344 C 59.734375 134.527344 65.882812 128.378906 65.882812 120.8125 C 65.882812 113.246094 59.734375 107.09375 52.167969 107.09375 Z M 122.832031 21.050781 L 101.214844 21.050781 C 97.101562 21.050781 93.734375 24.417969 93.734375 28.53125 L 93.734375 82.570312 L 130.3125 82.570312 L 130.3125 28.53125 C 130.3125 24.417969 126.945312 21.050781 122.832031 21.050781 Z M 122.832031 21.050781 " fill-opacity="1" fill-rule="nonzero"/></g></svg>
