<svg xmlns="http://www.w3.org/2000/svg" xmlns:xlink="http://www.w3.org/1999/xlink" width="50" zoomAndPan="magnify" viewBox="0 0 224.87999 225" height="50" preserveAspectRatio="xMidYMid meet" version="1.0"><defs><clipPath id="3c93440f29"><path d="M 0 4.980469 L 224.761719 4.980469 L 224.761719 220.113281 L 0 220.113281 Z M 0 4.980469 " clip-rule="nonzero"/></clipPath></defs><g clip-path="url(#3c93440f29)"><path fill="#ffffff" d="M 38.835938 79.890625 L 57.148438 79.890625 L 59.964844 178.429688 L 36.375 178.429688 L 38.835938 79.886719 Z M 21.582031 181.972656 L 203.277344 181.972656 L 203.277344 194.652344 L 214.164062 194.652344 L 214.164062 207.332031 L 224.722656 207.332031 L 224.722656 220.007812 L 0.136719 220.007812 L 0.136719 207.332031 L 10.695312 207.332031 L 10.695312 194.652344 L 21.582031 194.652344 Z M 212.75 52.378906 L 112.425781 4.980469 L 12.097656 52.378906 L 12.097656 60.128906 L 212.75 60.128906 Z M 31.441406 63.671875 L 193.414062 63.671875 L 193.414062 76.347656 L 31.441406 76.347656 Z M 167.355469 79.890625 L 185.667969 79.890625 L 188.480469 178.433594 L 164.894531 178.433594 L 167.355469 79.898438 Z M 124.515625 79.890625 L 142.828125 79.890625 L 145.644531 178.429688 L 122.054688 178.429688 L 124.515625 79.886719 Z M 81.675781 79.890625 L 99.988281 79.890625 L 102.804688 178.433594 L 79.214844 178.433594 L 81.675781 79.894531 Z M 81.675781 79.890625 " fill-opacity="1" fill-rule="nonzero"/></g></svg>
