<svg xmlns="http://www.w3.org/2000/svg" xmlns:xlink="http://www.w3.org/1999/xlink" width="40" zoomAndPan="magnify" viewBox="0 0 224.87999 225" height="40" preserveAspectRatio="xMidYMid meet" version="1.0"><defs><clipPath id="e7ae8b6aea"><path d="M 16.546875 81.792969 L 37.539062 81.792969 L 37.539062 99 L 16.546875 99 Z M 16.546875 81.792969 " clip-rule="nonzero"/></clipPath><clipPath id="ab78efda5b"><path d="M 15.191406 129.382812 L 35.429688 129.382812 L 35.429688 148.871094 L 15.191406 148.871094 Z M 15.191406 129.382812 " clip-rule="nonzero"/></clipPath><clipPath id="8b8356773b"><path d="M 18.671875 168.085938 L 35.164062 168.085938 L 35.164062 190.574219 L 18.671875 190.574219 Z M 18.671875 168.085938 " clip-rule="nonzero"/></clipPath><clipPath id="3b1872108f"><path d="M 0 12.992188 L 224 12.992188 L 224 212 L 0 212 Z M 0 12.992188 " clip-rule="nonzero"/></clipPath></defs><g clip-path="url(#e7ae8b6aea)"><path fill="#ffffff" d="M 21.347656 89.726562 C 20.652344 89.726562 20.085938 90.292969 20.085938 90.988281 C 20.085938 91.6875 20.652344 92.25 21.347656 92.25 C 22.046875 92.25 22.613281 91.6875 22.613281 90.988281 C 22.613281 90.292969 22.046875 89.726562 21.347656 89.726562 Z M 21.347656 89.726562 C 20.652344 89.726562 20.085938 90.292969 20.085938 90.988281 C 20.085938 91.6875 20.652344 92.25 21.347656 92.25 C 22.046875 92.25 22.613281 91.6875 22.613281 90.988281 C 22.613281 90.292969 22.046875 89.726562 21.347656 89.726562 Z M 21.347656 89.726562 C 20.652344 89.726562 20.085938 90.292969 20.085938 90.988281 C 20.085938 91.6875 20.652344 92.25 21.347656 92.25 C 22.046875 92.25 22.613281 91.6875 22.613281 90.988281 C 22.613281 90.292969 22.046875 89.726562 21.347656 89.726562 Z M 21.347656 89.726562 C 20.652344 89.726562 20.085938 90.292969 20.085938 90.988281 C 20.085938 91.6875 20.652344 92.25 21.347656 92.25 C 22.046875 92.25 22.613281 91.6875 22.613281 90.988281 C 22.613281 90.292969 22.046875 89.726562 21.347656 89.726562 Z M 36.039062 85.785156 L 29.304688 85.785156 L 29.304688 87.46875 L 30.339844 87.46875 L 30.339844 88.234375 L 23.378906 88.234375 L 23.378906 87.46875 L 24.410156 87.46875 L 24.410156 85.785156 L 17.714844 85.785156 C 17.0625 85.785156 16.53125 86.320312 16.53125 86.972656 L 16.53125 97.417969 C 16.53125 98.070312 17.0625 98.601562 17.714844 98.601562 L 36.039062 98.601562 C 36.695312 98.601562 37.226562 98.070312 37.226562 97.417969 L 37.226562 86.972656 C 37.226562 86.320312 36.695312 85.785156 36.039062 85.785156 Z M 21.347656 88.960938 C 22.464844 88.960938 23.378906 89.871094 23.378906 90.988281 C 23.378906 92.105469 22.464844 93.015625 21.347656 93.015625 C 20.234375 93.015625 19.320312 92.105469 19.320312 90.988281 C 19.320312 89.871094 20.234375 88.960938 21.347656 88.960938 Z M 23.683594 96.765625 C 23.683594 95.480469 22.636719 94.433594 21.347656 94.433594 C 20.0625 94.433594 19.015625 95.480469 19.015625 96.765625 L 18.25 96.765625 C 18.25 95.054688 19.640625 93.667969 21.347656 93.667969 C 23.058594 93.667969 24.449219 95.054688 24.449219 96.765625 Z M 30.722656 96.652344 L 26.398438 96.652344 L 26.398438 95.886719 L 30.722656 95.886719 Z M 35.082031 93.4375 L 26.398438 93.4375 L 26.398438 92.671875 L 35.082031 92.671875 Z M 35.082031 90.261719 L 26.398438 90.261719 L 26.398438 89.496094 L 35.082031 89.496094 Z M 21.347656 92.25 C 22.046875 92.25 22.613281 91.6875 22.613281 90.988281 C 22.613281 90.292969 22.046875 89.726562 21.347656 89.726562 C 20.652344 89.726562 20.085938 90.292969 20.085938 90.988281 C 20.085938 91.6875 20.652344 92.25 21.347656 92.25 Z M 21.347656 89.726562 C 20.652344 89.726562 20.085938 90.292969 20.085938 90.988281 C 20.085938 91.6875 20.652344 92.25 21.347656 92.25 C 22.046875 92.25 22.613281 91.6875 22.613281 90.988281 C 22.613281 90.292969 22.046875 89.726562 21.347656 89.726562 Z M 21.347656 89.726562 C 20.652344 89.726562 20.085938 90.292969 20.085938 90.988281 C 20.085938 91.6875 20.652344 92.25 21.347656 92.25 C 22.046875 92.25 22.613281 91.6875 22.613281 90.988281 C 22.613281 90.292969 22.046875 89.726562 21.347656 89.726562 Z M 21.347656 89.726562 C 20.652344 89.726562 20.085938 90.292969 20.085938 90.988281 C 20.085938 91.6875 20.652344 92.25 21.347656 92.25 C 22.046875 92.25 22.613281 91.6875 22.613281 90.988281 C 22.613281 90.292969 22.046875 89.726562 21.347656 89.726562 Z M 21.347656 89.726562 C 20.652344 89.726562 20.085938 90.292969 20.085938 90.988281 C 20.085938 91.6875 20.652344 92.25 21.347656 92.25 C 22.046875 92.25 22.613281 91.6875 22.613281 90.988281 C 22.613281 90.292969 22.046875 89.726562 21.347656 89.726562 Z M 27.851562 81.808594 L 25.863281 81.808594 C 25.484375 81.808594 25.175781 82.117188 25.175781 82.496094 L 25.175781 87.46875 L 28.542969 87.46875 L 28.542969 82.496094 C 28.542969 82.117188 28.230469 81.808594 27.851562 81.808594 Z M 27.851562 81.808594 " fill-opacity="1" fill-rule="nonzero"/></g><g clip-path="url(#ab78efda5b)"><path fill="#ffffff" d="M 18.699219 136.152344 L 20.355469 136.152344 L 20.609375 145.054688 L 18.476562 145.054688 Z M 17.140625 145.375 L 33.558594 145.375 L 33.558594 146.519531 L 34.542969 146.519531 L 34.542969 147.667969 L 35.496094 147.667969 L 35.496094 148.8125 L 15.203125 148.8125 L 15.203125 147.667969 L 16.15625 147.667969 L 16.15625 146.519531 L 17.140625 146.519531 Z M 34.414062 133.664062 L 25.351562 129.382812 L 16.285156 133.664062 L 16.285156 134.363281 L 34.414062 134.363281 Z M 18.03125 134.683594 L 32.667969 134.683594 L 32.667969 135.832031 L 18.03125 135.832031 Z M 30.3125 136.152344 L 31.96875 136.152344 L 32.222656 145.054688 L 30.089844 145.054688 Z M 26.441406 136.152344 L 28.097656 136.152344 L 28.351562 145.054688 L 26.21875 145.054688 Z M 22.570312 136.152344 L 24.226562 136.152344 L 24.480469 145.054688 L 22.347656 145.054688 Z M 22.570312 136.152344 " fill-opacity="1" fill-rule="nonzero"/></g><g clip-path="url(#8b8356773b)"><path fill="#ffffff" d="M 34.285156 172.4375 L 31.164062 169.3125 C 30.460938 168.613281 29.128906 168.085938 28.179688 168.085938 L 20.425781 168.085938 C 19.445312 168.085938 18.671875 168.855469 18.671875 169.839844 L 18.671875 188.785156 C 18.671875 189.765625 19.445312 190.539062 20.425781 190.539062 L 33.757812 190.539062 C 34.742188 190.539062 35.511719 189.765625 35.511719 188.785156 L 35.511719 175.417969 C 35.511719 174.433594 34.953125 173.101562 34.285156 172.4375 Z M 32.003906 187.347656 L 22.179688 187.347656 C 21.796875 187.347656 21.480469 187.03125 21.480469 186.644531 C 21.480469 186.257812 21.796875 185.941406 22.179688 185.941406 L 32.003906 185.941406 C 32.390625 185.941406 32.707031 186.257812 32.707031 186.644531 C 32.707031 187.03125 32.390625 187.347656 32.003906 187.347656 Z M 32.003906 184.539062 L 22.179688 184.539062 C 21.796875 184.539062 21.480469 184.222656 21.480469 183.835938 C 21.480469 183.453125 21.796875 183.136719 22.179688 183.136719 L 32.003906 183.136719 C 32.390625 183.136719 32.707031 183.453125 32.707031 183.835938 C 32.707031 184.222656 32.390625 184.539062 32.003906 184.539062 Z M 32.003906 181.734375 L 22.179688 181.734375 C 21.796875 181.734375 21.480469 181.417969 21.480469 181.03125 C 21.480469 180.644531 21.796875 180.328125 22.179688 180.328125 L 32.003906 180.328125 C 32.390625 180.328125 32.707031 180.644531 32.707031 181.03125 C 32.707031 181.417969 32.390625 181.734375 32.003906 181.734375 Z M 32.003906 178.925781 L 22.179688 178.925781 C 21.796875 178.925781 21.480469 178.609375 21.480469 178.222656 C 21.480469 177.839844 21.796875 177.523438 22.179688 177.523438 L 32.003906 177.523438 C 32.390625 177.523438 32.707031 177.839844 32.707031 178.222656 C 32.707031 178.609375 32.390625 178.925781 32.003906 178.925781 Z M 33.40625 174.714844 L 29.898438 174.714844 C 29.304688 174.714844 28.847656 174.261719 28.847656 173.664062 L 28.847656 170.15625 C 28.847656 169.558594 29.199219 169.417969 29.582031 169.839844 L 33.722656 173.980469 C 34.109375 174.398438 34.003906 174.714844 33.40625 174.714844 Z M 33.40625 174.714844 " fill-opacity="1" fill-rule="nonzero"/></g><g clip-path="url(#3b1872108f)"><path fill="#663092" d="M 44.042969 35.867188 L 107.292969 35.867188 L 107.292969 43.851562 L 44.042969 43.851562 Z M 39.683594 27.140625 C 38.523438 27.140625 37.414062 27.601562 36.597656 28.417969 C 35.777344 29.238281 35.320312 30.347656 35.320312 31.503906 L 35.320312 48.210938 C 35.320312 49.371094 35.777344 50.480469 36.597656 51.296875 C 37.414062 52.113281 38.523438 52.574219 39.683594 52.574219 L 111.65625 52.574219 C 114.0625 52.574219 116.015625 50.621094 116.015625 48.210938 L 116.015625 31.503906 C 116.015625 29.09375 114.0625 27.140625 111.65625 27.140625 Z M 51.660156 78.355469 C 49.253906 78.355469 47.300781 80.308594 47.300781 82.714844 C 47.300781 85.125 49.253906 87.078125 51.660156 87.078125 L 99.136719 87.078125 C 101.542969 87.078125 103.496094 85.125 103.496094 82.71875 C 103.496094 80.308594 101.542969 78.355469 99.136719 78.355469 L 51.730469 78.355469 C 51.707031 78.355469 51.683594 78.355469 51.660156 78.355469 Z M 38.40625 67.8125 C 37.164062 67.8125 35.925781 68.34375 35.066406 69.371094 L 28.199219 77.546875 L 23.160156 74.003906 C 22.398438 73.464844 21.519531 73.210938 20.65625 73.210938 C 19.28125 73.210938 17.929688 73.855469 17.082031 75.0625 C 15.695312 77.035156 16.171875 79.753906 18.140625 81.140625 L 26.457031 86.988281 C 27.21875 87.519531 28.09375 87.78125 28.964844 87.78125 C 30.214844 87.78125 31.449219 87.246094 32.308594 86.222656 L 41.746094 74.980469 C 43.296875 73.136719 43.054688 70.382812 41.210938 68.835938 C 40.394531 68.148438 39.398438 67.8125 38.40625 67.8125 Z M 51.660156 125.828125 C 49.253906 125.828125 47.300781 127.78125 47.300781 130.191406 C 47.300781 132.597656 49.253906 134.550781 51.660156 134.550781 L 99.136719 134.554688 C 101.542969 134.554688 103.496094 132.601562 103.496094 130.191406 C 103.496094 127.78125 101.542969 125.828125 99.136719 125.828125 L 51.730469 125.828125 C 51.707031 125.828125 51.683594 125.828125 51.660156 125.828125 Z M 40.207031 115.480469 C 38.960938 115.480469 37.726562 116.011719 36.863281 117.039062 L 29.996094 125.214844 L 24.957031 121.671875 C 24.195312 121.132812 23.320312 120.875 22.453125 120.875 C 21.082031 120.875 19.730469 121.523438 18.878906 122.730469 C 17.496094 124.703125 17.96875 127.421875 19.941406 128.808594 L 28.253906 134.652344 C 29.015625 135.1875 29.890625 135.449219 30.761719 135.449219 C 32.011719 135.449219 33.246094 134.914062 34.105469 133.890625 L 43.542969 122.648438 C 45.09375 120.804688 44.851562 118.050781 43.007812 116.503906 C 42.191406 115.816406 41.195312 115.480469 40.207031 115.480469 Z M 195.835938 105.71875 C 194.84375 105.71875 193.851562 106.054688 193.035156 106.738281 L 167.042969 128.519531 L 159.382812 120.125 C 158.523438 119.179688 157.34375 118.703125 156.160156 118.703125 C 155.109375 118.703125 154.058594 119.078125 153.21875 119.839844 C 151.441406 121.464844 151.316406 124.226562 152.9375 126.003906 L 163.417969 137.488281 C 164.277344 138.429688 165.457031 138.910156 166.644531 138.910156 C 167.632812 138.910156 168.628906 138.574219 169.441406 137.890625 L 198.636719 113.425781 C 200.484375 111.878906 200.726562 109.125 199.179688 107.28125 C 198.316406 106.25 197.078125 105.71875 195.835938 105.71875 Z M 170.835938 70.863281 C 176.445312 75.300781 182.464844 79.808594 189.636719 83.394531 C 197.066406 87.109375 205.636719 89.78125 213.984375 92.25 L 213.980469 92.25 C 214.90625 116.460938 215.347656 138.6875 208.355469 152.671875 C 201.546875 166.292969 187.277344 172.554688 170.796875 179.175781 C 153.867188 171.914062 139.121094 165.078125 132.28125 151.394531 C 125.335938 137.507812 126.105469 116.023438 127.433594 92.535156 L 127.429688 92.535156 C 135.03125 90.921875 143.007812 89.003906 150.4375 85.289062 C 157.828125 81.59375 164.539062 76.1875 170.832031 70.863281 Z M 51.660156 173.300781 C 49.253906 173.300781 47.300781 175.253906 47.300781 177.664062 C 47.300781 180.074219 49.253906 182.027344 51.660156 182.027344 L 99.136719 182.027344 C 101.542969 182.027344 103.496094 180.074219 103.496094 177.664062 C 103.496094 175.253906 101.542969 173.300781 99.136719 173.300781 L 51.726562 173.300781 C 51.707031 173.300781 51.683594 173.300781 51.660156 173.300781 Z M 40.878906 162.472656 C 39.636719 162.472656 38.398438 163.003906 37.535156 164.03125 L 30.671875 172.207031 L 25.632812 168.664062 C 24.867188 168.128906 23.992188 167.871094 23.125 167.871094 C 21.753906 167.871094 20.402344 168.515625 19.554688 169.722656 C 18.167969 171.695312 18.644531 174.414062 20.613281 175.800781 L 28.929688 181.648438 C 29.691406 182.179688 30.566406 182.441406 31.4375 182.441406 C 32.683594 182.441406 33.921875 181.90625 34.777344 180.882812 L 44.21875 169.640625 C 45.765625 167.796875 45.527344 165.042969 43.683594 163.496094 C 42.863281 162.808594 41.871094 162.472656 40.878906 162.472656 Z M 170.742188 60.847656 C 169.734375 60.847656 168.730469 61.199219 167.914062 61.890625 C 160.652344 68.078125 153.886719 73.808594 146.535156 77.484375 C 139.214844 81.144531 131.128906 82.855469 122.378906 84.679688 C 120.449219 85.082031 119.027344 86.726562 118.914062 88.695312 C 117.542969 112.488281 115.921875 138.1875 124.476562 155.296875 C 133.238281 172.816406 152.199219 180.714844 169.027344 187.90625 C 169.578125 188.140625 170.160156 188.257812 170.742188 188.257812 C 171.292969 188.257812 171.84375 188.15625 172.363281 187.945312 C 188.785156 181.375 207.375 174.144531 216.160156 156.574219 C 224.691406 139.507812 223.535156 113.207031 222.578125 88.777344 C 222.503906 86.90625 221.242188 85.292969 219.445312 84.761719 L 219.378906 84.742188 L 219.378906 84.746094 C 209.953125 81.972656 201.015625 79.332031 193.535156 75.589844 C 186.097656 71.871094 179.972656 67 173.464844 61.804688 C 172.667969 61.167969 171.707031 60.847656 170.742188 60.847656 Z M 147.007812 12.953125 C 147.003906 12.953125 147 12.953125 146.992188 12.953125 L 4.574219 13.375 C 2.167969 13.382812 0.222656 15.332031 0.222656 17.738281 L 0.222656 207.632812 C 0.222656 210.042969 2.175781 211.996094 4.585938 211.996094 L 147.007812 211.996094 C 148.164062 211.996094 149.273438 211.535156 150.089844 210.71875 C 150.910156 209.898438 151.367188 208.789062 151.367188 207.632812 L 151.367188 183.894531 C 151.367188 181.488281 149.414062 179.535156 147.007812 179.535156 C 144.597656 179.535156 142.644531 181.488281 142.644531 183.894531 L 142.644531 203.269531 L 8.949219 203.269531 L 8.949219 22.085938 L 8.949219 22.089844 L 142.644531 21.691406 L 142.644531 65.210938 C 142.644531 67.621094 144.597656 69.574219 147.007812 69.574219 C 149.414062 69.574219 151.367188 67.621094 151.367188 65.210938 L 151.367188 17.316406 C 151.367188 16.15625 150.90625 15.046875 150.085938 14.226562 C 149.269531 13.410156 148.160156 12.953125 147.007812 12.953125 Z M 147.007812 12.953125 " fill-opacity="1" fill-rule="nonzero"/></g></svg>
