<svg xmlns="http://www.w3.org/2000/svg" xmlns:xlink="http://www.w3.org/1999/xlink" width="135" zoomAndPan="magnify" viewBox="0 0 101.25 40.499999" height="54" preserveAspectRatio="xMidYMid meet" version="1.0"><defs><g/><clipPath id="356d7b5a09"><path d="M 4 13 L 27 13 L 27 29.5 L 4 29.5 Z M 4 13 " clip-rule="nonzero"/></clipPath><clipPath id="07419536f7"><path d="M 0.246094 0 L 31 0 L 31 21 L 0.246094 21 Z M 0.246094 0 " clip-rule="nonzero"/></clipPath><clipPath id="538aef46d7"><path d="M 1 0 L 31.695312 0 L 31.695312 20 L 1 20 Z M 1 0 " clip-rule="nonzero"/></clipPath></defs><g clip-path="url(#356d7b5a09)"><path fill="#b16b42" d="M 17.339844 16.933594 C 18.972656 16.019531 19.554688 15.203125 19.554688 15.203125 C 19.554688 15.203125 20.003906 15.632812 19.554688 16.292969 C 19.109375 16.953125 18.835938 17.320312 18.835938 17.320312 C 18.835938 17.320312 20.625 16.992188 21.304688 15.882812 C 21.984375 14.777344 22.546875 14.699219 22.957031 14.855469 L 21.410156 16.613281 C 21.410156 16.613281 21.683594 16.621094 21.789062 16.5625 C 21.898438 16.507812 23.316406 15 23.644531 14.835938 C 23.976562 14.667969 24.34375 14.804688 24.34375 14.804688 L 22.140625 17.003906 C 22.140625 17.003906 22.441406 17.011719 22.769531 16.789062 C 23.101562 16.5625 24.460938 15.058594 24.789062 14.875 C 25.121094 14.6875 25.539062 14.882812 25.539062 14.882812 L 22.957031 17.253906 C 22.957031 17.253906 23.285156 17.300781 23.480469 17.148438 C 23.675781 16.992188 25.152344 15.59375 25.5 15.425781 C 25.851562 15.261719 26.140625 15.464844 26.140625 15.464844 C 26.140625 15.464844 24.199219 17.585938 23.363281 17.964844 C 22.527344 18.34375 18.828125 18.714844 17.183594 19.355469 C 15.648438 19.953125 15.144531 22.863281 15.75 25.914062 C 16.363281 28.078125 18.957031 28.980469 23.027344 29.582031 L 13.558594 29.582031 C 13.175781 26.488281 13.214844 19.242188 17.339844 16.933594 Z M 12.761719 29.558594 L 8.710938 29.558594 C 8.710938 29.558594 11.917969 28.496094 12.617188 27.773438 C 12.617188 27.773438 12.546875 28.59375 12.761719 29.558594 Z M 9.238281 15.242188 C 9.238281 15.242188 8.734375 15.488281 9.171875 16.222656 C 9.605469 16.960938 10.191406 17.972656 9.824219 18.152344 C 9.457031 18.335938 7.742188 17.511719 7.742188 17.511719 C 8.273438 17.648438 8.804688 17.785156 9.324219 17.78125 C 8.835938 17.289062 8.519531 16.003906 8.316406 15.742188 C 8.113281 15.484375 7.847656 15.46875 7.847656 15.46875 L 8.519531 17.183594 L 8.257812 17.117188 C 8.257812 17.117188 7.667969 15.453125 7.503906 15.191406 C 7.34375 14.929688 6.886719 14.824219 6.886719 14.824219 L 7.722656 17.113281 C 7.722656 17.113281 7.46875 17 7.355469 16.816406 C 7.238281 16.636719 6.6875 14.917969 6.523438 14.679688 C 6.355469 14.4375 5.90625 14.289062 5.90625 14.289062 L 6.738281 16.660156 C 6.738281 16.660156 6.492188 16.570312 6.414062 16.402344 C 6.339844 16.238281 5.6875 14.285156 5.570312 14.125 C 5.453125 13.964844 4.824219 13.839844 4.824219 13.839844 C 4.824219 13.839844 5.824219 17.09375 6.242188 17.835938 C 6.660156 18.578125 7.699219 18.980469 10.5625 19.3125 C 13.421875 19.640625 13.144531 21.96875 13.144531 21.96875 C 13.925781 20.164062 14.316406 18.679688 12.136719 17.691406 C 10.527344 16.964844 9.59375 15.859375 9.238281 15.242188 Z M 9.238281 15.242188 " fill-opacity="1" fill-rule="evenodd"/></g><g clip-path="url(#07419536f7)"><path fill="#0e6939" d="M 3.785156 19.601562 L 5.59375 18.105469 L 5.214844 18.640625 C 5.5 19.507812 4.425781 20.421875 3.351562 19.988281 C 3.351562 19.984375 3.195312 18.261719 4.949219 18.320312 Z M 25.933594 19.632812 L 24.242188 18.234375 L 24.59375 18.738281 C 24.332031 19.546875 25.332031 20.402344 26.339844 19.992188 C 26.339844 19.992188 26.484375 18.382812 24.84375 18.4375 Z M 29.390625 16.722656 L 26.78125 16.007812 L 27.433594 16.394531 C 27.546875 17.4375 29.109375 17.890625 30.03125 16.921875 C 30.03125 16.921875 29.378906 15.035156 27.558594 15.929688 Z M 17.085938 14.503906 L 15.179688 16.34375 L 15.832031 15.988281 C 16.765625 16.414062 17.925781 15.328125 17.574219 14.066406 C 17.570312 14.066406 15.660156 13.675781 15.503906 15.648438 Z M 8.289062 14.519531 L 9.878906 14.109375 L 9.476562 14.335938 C 9.398438 14.96875 8.449219 15.230469 7.898438 14.636719 C 7.898438 14.636719 8.3125 13.496094 9.40625 14.050781 Z M 1.988281 13.882812 L 4.375 13.675781 L 3.75 13.910156 C 3.480469 14.800781 2.046875 14.949219 1.398438 13.957031 C 1.398438 13.957031 2.269531 12.414062 3.710938 13.480469 Z M 22.769531 12.34375 L 19.226562 12.117188 L 20.164062 12.441406 C 20.589844 13.75 22.714844 13.917969 23.644531 12.429688 C 23.644531 12.429688 22.300781 10.179688 20.203125 11.808594 Z M 11.460938 10.640625 L 13.945312 12.054688 L 13.171875 11.859375 C 12.304688 12.554688 10.800781 11.726562 10.835938 10.3125 C 10.835938 10.3125 12.734375 9.390625 13.421875 11.414062 Z M 28.8125 8.433594 L 25.414062 9.164062 L 26.382812 9.21875 C 27.132812 10.34375 29.183594 9.933594 29.660156 8.28125 C 29.660156 8.28125 27.796875 6.515625 26.253906 8.613281 Z M 1.101562 8.433594 L 4.5 9.164062 L 3.53125 9.21875 C 2.78125 10.34375 0.730469 9.933594 0.253906 8.28125 C 0.253906 8.28125 2.117188 6.515625 3.660156 8.613281 Z M 6.535156 6.757812 L 10.09375 8.523438 L 9.003906 8.308594 C 7.859375 9.34375 5.703125 8.3125 5.640625 6.347656 C 5.640625 6.347656 8.199219 4.921875 9.320312 7.675781 Z M 23.375 6.757812 L 19.820312 8.523438 L 20.910156 8.308594 C 22.054688 9.34375 24.207031 8.3125 24.273438 6.347656 C 24.273438 6.347656 21.710938 4.921875 20.59375 7.675781 Z M 12.828125 5.363281 L 13.582031 8.027344 L 13.183594 7.363281 C 12.113281 7.257812 11.636719 5.664062 12.621094 4.710938 C 12.621094 4.710938 14.554688 5.363281 13.65625 7.230469 Z M 16.054688 2.265625 L 15.816406 4.878906 L 16.074219 4.195312 C 17.054688 3.90625 17.222656 2.335938 16.136719 1.617188 C 16.136719 1.617188 14.445312 2.566406 15.609375 4.152344 Z M 8.398438 1.078125 L 10.367188 4.296875 L 9.597656 3.574219 C 8.152344 3.824219 6.945312 1.910156 7.882812 0.296875 C 7.882812 0.296875 10.664062 0.445312 10.171875 3.222656 Z M 8.398438 1.078125 " fill-opacity="1" fill-rule="evenodd"/></g><g clip-path="url(#538aef46d7)"><path fill="#c5ff00" d="M 23.789062 19.480469 L 23.113281 18.722656 L 23.238281 18.976562 C 23.058594 19.332031 23.460938 19.792969 23.953125 19.675781 C 23.953125 19.675781 24.132812 18.945312 23.375 18.855469 Z M 5.898438 19.480469 L 6.578125 18.722656 L 6.453125 18.976562 C 6.628906 19.332031 6.226562 19.792969 5.738281 19.675781 C 5.738281 19.675781 5.558594 18.945312 6.316406 18.855469 Z M 27.015625 17.832031 L 25.242188 16.992188 L 25.660156 17.351562 C 25.609375 18.109375 26.667969 18.632812 27.449219 18.054688 C 27.449219 18.054688 27.21875 16.625 25.808594 17.035156 Z M 12.972656 15.203125 L 14.898438 17.351562 L 14.21875 16.914062 C 13.167969 17.304688 11.992188 16.03125 12.476562 14.6875 C 12.476562 14.6875 14.589844 14.410156 14.601562 16.574219 Z M 1.761719 15.898438 L 3.449219 15.4375 L 3.03125 15.6875 C 2.957031 16.363281 1.945312 16.65625 1.347656 16.027344 C 1.347656 16.027344 1.769531 14.808594 2.949219 15.382812 Z M 29.539062 13.972656 L 26.003906 13.667969 L 26.933594 14.007812 C 27.328125 15.332031 29.449219 15.546875 30.414062 14.078125 C 30.414062 14.078125 29.125 11.800781 26.988281 13.378906 Z M 20.097656 13.988281 L 18.296875 14.347656 L 18.808594 14.382812 C 19.195312 14.984375 20.277344 14.785156 20.542969 13.914062 C 20.542969 13.914062 19.574219 12.96875 18.746094 14.0625 Z M 13.160156 13.046875 L 14.570312 14.457031 L 14.085938 14.183594 C 13.375 14.492188 12.511719 13.65625 12.796875 12.710938 C 12.796875 12.710938 14.242188 12.441406 14.335938 13.929688 Z M 7.144531 12.34375 L 10.6875 12.117188 L 9.75 12.441406 C 9.324219 13.75 7.199219 13.917969 6.269531 12.429688 C 6.269531 12.429688 7.609375 10.179688 9.707031 11.808594 Z M 18.886719 12.496094 L 17.0625 12.933594 L 17.585938 12.949219 C 18.003906 13.546875 19.105469 13.300781 19.339844 12.402344 C 19.339844 12.402344 18.3125 11.472656 17.507812 12.625 Z M 31.007812 11.65625 L 28.355469 11.714844 L 29.074219 11.894531 C 29.472656 12.84375 31.066406 12.835938 31.664062 11.667969 C 31.664062 11.667969 30.523438 10.074219 29.066406 11.421875 Z M 27.351562 11.105469 L 24.332031 11.335938 L 25.164062 11.496094 C 25.675781 12.554688 27.488281 12.445312 28.097656 11.078125 C 28.097656 11.078125 26.703125 9.335938 25.121094 10.957031 Z M 2.5625 11.105469 L 5.582031 11.335938 L 4.75 11.496094 C 4.238281 12.554688 2.421875 12.445312 1.8125 11.078125 C 1.8125 11.078125 3.210938 9.335938 4.792969 10.957031 Z M 16.839844 10.414062 L 15.4375 11.640625 L 15.90625 11.414062 C 16.546875 11.746094 17.402344 11.019531 17.195312 10.121094 C 17.195312 10.121094 15.863281 9.777344 15.6875 11.160156 Z M 14.632812 8.917969 L 14.554688 11.355469 L 14.394531 10.691406 C 13.523438 10.316406 13.550781 8.851562 14.632812 8.316406 C 14.632812 8.316406 16.082031 9.378906 14.828125 10.707031 Z M 20.265625 9.976562 L 17.417969 10.996094 L 18.261719 10.933594 C 19.035156 11.816406 20.753906 11.230469 20.980469 9.75 C 20.980469 9.75 19.167969 8.441406 18.078125 10.425781 Z M 24.292969 9.695312 L 21.648438 10.265625 L 22.402344 10.308594 C 22.988281 11.183594 24.582031 10.863281 24.957031 9.578125 C 24.957031 9.578125 23.503906 8.203125 22.300781 9.835938 Z M 5.617188 9.695312 L 8.265625 10.265625 L 7.511719 10.308594 C 6.925781 11.183594 5.332031 10.863281 4.957031 9.578125 C 4.957031 9.578125 6.410156 8.203125 7.609375 9.835938 Z M 8.753906 9.40625 L 10.476562 10.023438 L 9.964844 9.984375 C 9.496094 10.519531 8.457031 10.164062 8.320312 9.269531 C 8.320312 9.269531 9.417969 8.476562 10.078125 9.675781 Z M 11.777344 8.191406 L 13.402344 10.109375 L 12.824219 9.710938 C 11.898438 10.027344 10.90625 8.890625 11.359375 7.730469 C 11.359375 7.730469 13.203125 7.542969 13.164062 9.421875 Z M 16.90625 5.96875 L 15.882812 9.597656 L 16.425781 8.695312 C 17.882812 8.546875 18.53125 6.378906 17.191406 5.078125 C 17.191406 5.078125 14.554688 5.96875 15.78125 8.511719 Z M 20.234375 5.371094 L 18.667969 7.316406 L 19.234375 6.90625 C 20.160156 7.195312 21.117188 6.042969 20.636719 4.902344 C 20.636719 4.902344 18.800781 4.761719 18.886719 6.628906 Z M 14.683594 4.609375 L 14.625 6.347656 L 14.511719 5.875 C 13.890625 5.609375 13.910156 4.5625 14.679688 4.179688 C 14.679688 4.179688 15.714844 4.9375 14.824219 5.886719 Z M 25.855469 5.050781 L 24.433594 6.15625 L 24.898438 5.964844 C 25.5 6.320312 26.367188 5.667969 26.21875 4.789062 C 26.21875 4.789062 24.949219 4.382812 24.699219 5.707031 Z M 4.054688 5.050781 L 5.480469 6.15625 L 5.015625 5.964844 C 4.414062 6.320312 3.546875 5.667969 3.695312 4.789062 C 3.695312 4.789062 4.960938 4.382812 5.214844 5.707031 Z M 23.632812 3.476562 L 21.59375 5.488281 L 22.292969 5.097656 C 23.3125 5.546875 24.554688 4.355469 24.15625 2.996094 C 24.15625 2.996094 22.078125 2.59375 21.933594 4.734375 Z M 6.28125 3.476562 L 8.320312 5.488281 L 7.621094 5.097656 C 6.601562 5.546875 5.359375 4.355469 5.757812 2.996094 C 5.757812 2.996094 7.835938 2.59375 7.980469 4.734375 Z M 11.492188 2.46875 L 12.160156 4.988281 L 11.792969 4.359375 C 10.785156 4.242188 10.363281 2.730469 11.304688 1.847656 C 11.304688 1.847656 13.117188 2.492188 12.242188 4.238281 Z M 21.515625 1.078125 L 19.546875 4.296875 L 20.316406 3.574219 C 21.761719 3.824219 22.972656 1.910156 22.03125 0.296875 C 22.03125 0.296875 19.25 0.445312 19.742188 3.222656 Z M 14.40625 0.527344 L 14.503906 3.105469 L 14.285156 2.417969 C 13.339844 2.082031 13.257812 0.535156 14.359375 -0.113281 C 14.359375 -0.113281 15.96875 0.90625 14.746094 2.398438 Z M 14.40625 0.527344 " fill-opacity="1" fill-rule="evenodd"/></g><path fill="#8fcee0" d="M 2.804688 17.6875 L 5.132812 16.585938 L 4.585938 17.054688 C 4.652344 18.050781 3.265625 18.734375 2.238281 17.976562 C 2.238281 17.976562 2.539062 16.105469 4.390625 16.640625 Z M 10.394531 13.347656 L 12.59375 13.976562 L 11.953125 13.96875 C 11.414062 14.671875 10.085938 14.316406 9.84375 13.210938 C 9.84375 13.210938 11.144531 12.136719 12.066406 13.574219 Z M 16.152344 12.457031 L 14.675781 14.105469 L 15.195312 13.769531 C 16.003906 14.070312 16.90625 13.089844 16.53125 12.058594 C 16.53125 12.058594 14.910156 11.851562 14.902344 13.507812 Z M 25.386719 13.425781 L 23.257812 13.242188 L 23.816406 13.449219 C 24.054688 14.246094 25.332031 14.375 25.914062 13.488281 C 25.914062 13.488281 25.136719 12.117188 23.851562 13.070312 Z M 4.886719 13.144531 L 6.378906 13.015625 L 5.988281 13.160156 C 5.820312 13.71875 4.925781 13.808594 4.519531 13.191406 C 4.519531 13.191406 5.0625 12.230469 5.960938 12.894531 Z M 18.566406 8.15625 L 17.117188 9.59375 L 17.617188 9.3125 C 18.339844 9.632812 19.226562 8.78125 18.941406 7.8125 C 18.941406 7.8125 17.460938 7.53125 17.359375 9.054688 Z M 25.746094 7.332031 L 24.042969 8.179688 L 24.566406 8.074219 C 25.113281 8.570312 26.144531 8.078125 26.175781 7.136719 C 26.175781 7.136719 24.949219 6.453125 24.414062 7.773438 Z M 4.167969 7.332031 L 5.871094 8.179688 L 5.347656 8.074219 C 4.800781 8.570312 3.769531 8.078125 3.738281 7.136719 C 3.738281 7.136719 4.964844 6.453125 5.5 7.773438 Z M 9.679688 5.371094 L 11.246094 7.316406 L 10.679688 6.90625 C 9.753906 7.195312 8.792969 6.042969 9.273438 4.902344 C 9.273438 4.902344 11.113281 4.761719 11.027344 6.628906 Z M 18.464844 2.429688 L 17.839844 4.792969 L 18.183594 4.203125 C 19.128906 4.089844 19.523438 2.675781 18.640625 1.847656 C 18.640625 1.847656 16.941406 2.453125 17.761719 4.089844 Z M 13.515625 3.164062 L 13.8125 4.640625 L 13.625 4.265625 C 13.046875 4.164062 12.855469 3.277344 13.429688 2.800781 C 13.429688 2.800781 14.453125 3.234375 13.886719 4.210938 Z M 13.515625 3.164062 " fill-opacity="1" fill-rule="evenodd"/><g fill="#0e6939" fill-opacity="1"><g transform="translate(32.673406, 14.826693)"><g><path d="M 2.65625 0 L 0.953125 0 L 0.953125 -10.21875 L 3.828125 -10.21875 L 6.140625 -2.0625 L 8.46875 -10.21875 L 11.34375 -10.21875 L 11.34375 0 L 9.640625 0 L 9.640625 -9.015625 L 6.96875 0 L 5.3125 0 L 2.65625 -8.9375 Z M 2.65625 0 "/></g></g></g><g fill="#0e6939" fill-opacity="1"><g transform="translate(44.982225, 14.826693)"><g><path d="M 1.65625 -8.453125 C 1.382812 -8.453125 1.144531 -8.539062 0.9375 -8.71875 C 0.726562 -8.90625 0.625 -9.132812 0.625 -9.40625 C 0.625 -9.695312 0.726562 -9.929688 0.9375 -10.109375 C 1.144531 -10.285156 1.382812 -10.375 1.65625 -10.375 C 1.945312 -10.375 2.191406 -10.285156 2.390625 -10.109375 C 2.585938 -9.929688 2.6875 -9.695312 2.6875 -9.40625 C 2.6875 -9.132812 2.585938 -8.90625 2.390625 -8.71875 C 2.191406 -8.539062 1.945312 -8.453125 1.65625 -8.453125 Z M 2.453125 0 L 0.875 0 L 0.875 -7.484375 L 2.453125 -7.484375 Z M 2.453125 0 "/></g></g></g><g fill="#0e6939" fill-opacity="1"><g transform="translate(48.290471, 14.826693)"><g><path d="M 2.453125 0 L 0.875 0 L 0.875 -7.484375 L 2.453125 -7.484375 L 2.453125 -6.46875 C 2.785156 -6.914062 3.113281 -7.21875 3.4375 -7.375 C 3.769531 -7.539062 4.140625 -7.625 4.546875 -7.625 C 5.191406 -7.625 5.691406 -7.503906 6.046875 -7.265625 C 6.398438 -7.023438 6.660156 -6.738281 6.828125 -6.40625 C 6.992188 -6.070312 7.085938 -5.734375 7.109375 -5.390625 C 7.140625 -5.046875 7.15625 -4.707031 7.15625 -4.375 L 7.15625 0 L 5.578125 0 L 5.578125 -4.375 C 5.578125 -5.132812 5.453125 -5.65625 5.203125 -5.9375 C 4.984375 -6.175781 4.640625 -6.296875 4.171875 -6.296875 C 3.628906 -6.296875 3.222656 -6.132812 2.953125 -5.8125 C 2.773438 -5.613281 2.644531 -5.34375 2.5625 -5 C 2.488281 -4.65625 2.453125 -4.191406 2.453125 -3.609375 Z M 2.453125 0 "/></g></g></g><g fill="#0e6939" fill-opacity="1"><g transform="translate(56.259728, 14.826693)"><g><path d="M 3 0.140625 C 2.28125 0.140625 1.691406 -0.046875 1.234375 -0.421875 C 0.785156 -0.796875 0.5625 -1.332031 0.5625 -2.03125 C 0.5625 -2.394531 0.632812 -2.710938 0.78125 -2.984375 C 0.925781 -3.265625 1.125 -3.5 1.375 -3.6875 C 1.613281 -3.851562 1.878906 -3.988281 2.171875 -4.09375 C 2.460938 -4.195312 2.78125 -4.28125 3.125 -4.34375 L 5.484375 -4.78125 C 5.484375 -5.28125 5.351562 -5.664062 5.09375 -5.9375 C 4.8125 -6.207031 4.4375 -6.34375 3.96875 -6.34375 C 3.59375 -6.34375 3.257812 -6.234375 2.96875 -6.015625 C 2.675781 -5.804688 2.492188 -5.507812 2.421875 -5.125 L 0.84375 -5.125 C 0.9375 -5.6875 1.140625 -6.148438 1.453125 -6.515625 C 1.765625 -6.878906 2.140625 -7.15625 2.578125 -7.34375 C 3.023438 -7.53125 3.492188 -7.625 3.984375 -7.625 C 4.421875 -7.625 4.832031 -7.5625 5.21875 -7.4375 C 5.613281 -7.3125 5.953125 -7.125 6.234375 -6.875 C 6.503906 -6.613281 6.695312 -6.316406 6.8125 -5.984375 C 6.925781 -5.660156 6.992188 -5.328125 7.015625 -4.984375 C 7.046875 -4.648438 7.0625 -4.34375 7.0625 -4.0625 L 7.0625 0 L 5.484375 0 L 5.484375 -1.078125 C 5.285156 -0.734375 5.035156 -0.460938 4.734375 -0.265625 C 4.492188 -0.117188 4.226562 -0.015625 3.9375 0.046875 C 3.65625 0.109375 3.34375 0.140625 3 0.140625 Z M 3.34375 -1.140625 C 3.707031 -1.140625 4.050781 -1.210938 4.375 -1.359375 C 4.820312 -1.585938 5.117188 -1.878906 5.265625 -2.234375 C 5.421875 -2.597656 5.5 -3.050781 5.5 -3.59375 L 3.515625 -3.203125 C 2.992188 -3.097656 2.625 -2.945312 2.40625 -2.75 C 2.226562 -2.570312 2.140625 -2.347656 2.140625 -2.078125 C 2.140625 -1.773438 2.25 -1.539062 2.46875 -1.375 C 2.695312 -1.21875 2.988281 -1.140625 3.34375 -1.140625 Z M 3.34375 -1.140625 "/></g></g></g><g fill="#0e6939" fill-opacity="1"><g transform="translate(64.108445, 14.826693)"><g><path d="M 4.546875 0 L 3.21875 0 C 2.664062 0 2.234375 -0.125 1.921875 -0.375 C 1.609375 -0.632812 1.453125 -1.085938 1.453125 -1.734375 L 1.453125 -6.171875 L 0.328125 -6.171875 L 0.328125 -7.484375 L 1.453125 -7.484375 L 1.453125 -10.21875 L 3.046875 -10.21875 L 3.046875 -7.484375 L 4.5625 -7.484375 L 4.5625 -6.171875 L 3.046875 -6.171875 L 3.046875 -2.171875 C 3.046875 -1.929688 3.082031 -1.726562 3.15625 -1.5625 C 3.226562 -1.40625 3.429688 -1.328125 3.765625 -1.328125 L 4.546875 -1.328125 Z M 4.546875 0 "/></g></g></g><g fill="#0e6939" fill-opacity="1"><g transform="translate(69.144482, 14.826693)"><g><path d="M 3 0.140625 C 2.28125 0.140625 1.691406 -0.046875 1.234375 -0.421875 C 0.785156 -0.796875 0.5625 -1.332031 0.5625 -2.03125 C 0.5625 -2.394531 0.632812 -2.710938 0.78125 -2.984375 C 0.925781 -3.265625 1.125 -3.5 1.375 -3.6875 C 1.613281 -3.851562 1.878906 -3.988281 2.171875 -4.09375 C 2.460938 -4.195312 2.78125 -4.28125 3.125 -4.34375 L 5.484375 -4.78125 C 5.484375 -5.28125 5.351562 -5.664062 5.09375 -5.9375 C 4.8125 -6.207031 4.4375 -6.34375 3.96875 -6.34375 C 3.59375 -6.34375 3.257812 -6.234375 2.96875 -6.015625 C 2.675781 -5.804688 2.492188 -5.507812 2.421875 -5.125 L 0.84375 -5.125 C 0.9375 -5.6875 1.140625 -6.148438 1.453125 -6.515625 C 1.765625 -6.878906 2.140625 -7.15625 2.578125 -7.34375 C 3.023438 -7.53125 3.492188 -7.625 3.984375 -7.625 C 4.421875 -7.625 4.832031 -7.5625 5.21875 -7.4375 C 5.613281 -7.3125 5.953125 -7.125 6.234375 -6.875 C 6.503906 -6.613281 6.695312 -6.316406 6.8125 -5.984375 C 6.925781 -5.660156 6.992188 -5.328125 7.015625 -4.984375 C 7.046875 -4.648438 7.0625 -4.34375 7.0625 -4.0625 L 7.0625 0 L 5.484375 0 L 5.484375 -1.078125 C 5.285156 -0.734375 5.035156 -0.460938 4.734375 -0.265625 C 4.492188 -0.117188 4.226562 -0.015625 3.9375 0.046875 C 3.65625 0.109375 3.34375 0.140625 3 0.140625 Z M 3.34375 -1.140625 C 3.707031 -1.140625 4.050781 -1.210938 4.375 -1.359375 C 4.820312 -1.585938 5.117188 -1.878906 5.265625 -2.234375 C 5.421875 -2.597656 5.5 -3.050781 5.5 -3.59375 L 3.515625 -3.203125 C 2.992188 -3.097656 2.625 -2.945312 2.40625 -2.75 C 2.226562 -2.570312 2.140625 -2.347656 2.140625 -2.078125 C 2.140625 -1.773438 2.25 -1.539062 2.46875 -1.375 C 2.695312 -1.21875 2.988281 -1.140625 3.34375 -1.140625 Z M 3.34375 -1.140625 "/></g></g></g><g fill="#0e6939" fill-opacity="1"><g transform="translate(76.993198, 14.826693)"><g><path d="M 4.015625 0.140625 C 3.429688 0.140625 2.882812 0.046875 2.375 -0.140625 C 1.875 -0.328125 1.457031 -0.613281 1.125 -1 C 0.789062 -1.382812 0.582031 -1.878906 0.5 -2.484375 L 2.09375 -2.484375 C 2.195312 -2.054688 2.410156 -1.722656 2.734375 -1.484375 C 3.066406 -1.253906 3.492188 -1.140625 4.015625 -1.140625 C 4.429688 -1.140625 4.773438 -1.222656 5.046875 -1.390625 C 5.328125 -1.554688 5.46875 -1.789062 5.46875 -2.09375 C 5.46875 -2.351562 5.378906 -2.550781 5.203125 -2.6875 C 5.023438 -2.820312 4.789062 -2.929688 4.5 -3.015625 C 4.21875 -3.097656 3.914062 -3.171875 3.59375 -3.234375 C 3.269531 -3.296875 2.941406 -3.367188 2.609375 -3.453125 C 2.285156 -3.546875 1.984375 -3.664062 1.703125 -3.8125 C 1.429688 -3.96875 1.210938 -4.171875 1.046875 -4.421875 C 0.878906 -4.679688 0.796875 -5.015625 0.796875 -5.421875 C 0.796875 -5.921875 0.925781 -6.332031 1.1875 -6.65625 C 1.445312 -6.988281 1.789062 -7.234375 2.21875 -7.390625 C 2.65625 -7.546875 3.128906 -7.625 3.640625 -7.625 C 4.492188 -7.625 5.207031 -7.40625 5.78125 -6.96875 C 6.351562 -6.539062 6.707031 -5.929688 6.84375 -5.140625 L 5.359375 -5.140625 C 5.242188 -5.554688 5.03125 -5.859375 4.71875 -6.046875 C 4.414062 -6.242188 4.054688 -6.34375 3.640625 -6.34375 C 3.242188 -6.34375 2.925781 -6.265625 2.6875 -6.109375 C 2.457031 -5.960938 2.34375 -5.757812 2.34375 -5.5 C 2.34375 -5.28125 2.425781 -5.101562 2.59375 -4.96875 C 2.769531 -4.84375 2.992188 -4.742188 3.265625 -4.671875 C 3.535156 -4.597656 3.832031 -4.53125 4.15625 -4.46875 C 4.476562 -4.40625 4.8125 -4.332031 5.15625 -4.25 C 5.5 -4.164062 5.804688 -4.046875 6.078125 -3.890625 C 6.359375 -3.734375 6.585938 -3.519531 6.765625 -3.25 C 6.941406 -2.988281 7.03125 -2.644531 7.03125 -2.21875 C 7.03125 -1.519531 6.765625 -0.953125 6.234375 -0.515625 C 5.710938 -0.078125 4.972656 0.140625 4.015625 0.140625 Z M 4.015625 0.140625 "/></g></g></g><g fill="#0e6939" fill-opacity="1"><g transform="translate(32.673406, 26.508297)"><g><path d="M 2.453125 0 L 0.875 0 L 0.875 -7.484375 L 2.453125 -7.484375 L 2.453125 -6.546875 C 2.765625 -6.953125 3.097656 -7.234375 3.453125 -7.390625 C 3.804688 -7.546875 4.210938 -7.625 4.671875 -7.625 L 4.84375 -7.625 L 4.84375 -6.078125 L 4.453125 -6.078125 C 3.847656 -6.078125 3.382812 -5.914062 3.0625 -5.59375 C 2.65625 -5.207031 2.453125 -4.546875 2.453125 -3.609375 Z M 2.453125 0 "/></g></g></g><g fill="#0e6939" fill-opacity="1"><g transform="translate(37.789804, 26.508297)"><g><path d="M 4.296875 0.140625 C 3.546875 0.140625 2.890625 -0.0234375 2.328125 -0.359375 C 1.773438 -0.691406 1.34375 -1.148438 1.03125 -1.734375 C 0.71875 -2.316406 0.5625 -2.972656 0.5625 -3.703125 C 0.5625 -4.203125 0.640625 -4.679688 0.796875 -5.140625 C 0.953125 -5.609375 1.179688 -6.03125 1.484375 -6.40625 C 1.796875 -6.78125 2.179688 -7.078125 2.640625 -7.296875 C 3.097656 -7.515625 3.640625 -7.625 4.265625 -7.625 C 4.898438 -7.625 5.5 -7.484375 6.0625 -7.203125 C 6.632812 -6.929688 7.097656 -6.515625 7.453125 -5.953125 C 7.804688 -5.390625 7.984375 -4.675781 7.984375 -3.8125 L 7.984375 -3.421875 L 2.171875 -3.421875 C 2.191406 -3.273438 2.222656 -3.128906 2.265625 -2.984375 C 2.304688 -2.835938 2.359375 -2.703125 2.421875 -2.578125 C 2.597656 -2.160156 2.851562 -1.832031 3.1875 -1.59375 C 3.53125 -1.351562 3.914062 -1.234375 4.34375 -1.234375 C 4.8125 -1.234375 5.207031 -1.359375 5.53125 -1.609375 C 5.851562 -1.859375 6.082031 -2.148438 6.21875 -2.484375 L 7.84375 -2.484375 C 7.695312 -2.003906 7.46875 -1.5625 7.15625 -1.15625 C 6.851562 -0.757812 6.46875 -0.441406 6 -0.203125 C 5.53125 0.0234375 4.960938 0.140625 4.296875 0.140625 Z M 2.265625 -4.65625 L 6.328125 -4.65625 C 6.328125 -4.769531 6.304688 -4.890625 6.265625 -5.015625 C 6.222656 -5.140625 6.164062 -5.257812 6.09375 -5.375 C 5.914062 -5.695312 5.664062 -5.9375 5.34375 -6.09375 C 5.03125 -6.25 4.6875 -6.328125 4.3125 -6.328125 C 3.507812 -6.328125 2.914062 -6.007812 2.53125 -5.375 C 2.445312 -5.257812 2.382812 -5.132812 2.34375 -5 C 2.3125 -4.875 2.285156 -4.757812 2.265625 -4.65625 Z M 2.265625 -4.65625 "/></g></g></g><g fill="#0e6939" fill-opacity="1"><g transform="translate(46.321599, 26.508297)"><g><path d="M 4.015625 0.140625 C 3.429688 0.140625 2.882812 0.046875 2.375 -0.140625 C 1.875 -0.328125 1.457031 -0.613281 1.125 -1 C 0.789062 -1.382812 0.582031 -1.878906 0.5 -2.484375 L 2.09375 -2.484375 C 2.195312 -2.054688 2.410156 -1.722656 2.734375 -1.484375 C 3.066406 -1.253906 3.492188 -1.140625 4.015625 -1.140625 C 4.429688 -1.140625 4.773438 -1.222656 5.046875 -1.390625 C 5.328125 -1.554688 5.46875 -1.789062 5.46875 -2.09375 C 5.46875 -2.351562 5.378906 -2.550781 5.203125 -2.6875 C 5.023438 -2.820312 4.789062 -2.929688 4.5 -3.015625 C 4.21875 -3.097656 3.914062 -3.171875 3.59375 -3.234375 C 3.269531 -3.296875 2.941406 -3.367188 2.609375 -3.453125 C 2.285156 -3.546875 1.984375 -3.664062 1.703125 -3.8125 C 1.429688 -3.96875 1.210938 -4.171875 1.046875 -4.421875 C 0.878906 -4.679688 0.796875 -5.015625 0.796875 -5.421875 C 0.796875 -5.921875 0.925781 -6.332031 1.1875 -6.65625 C 1.445312 -6.988281 1.789062 -7.234375 2.21875 -7.390625 C 2.65625 -7.546875 3.128906 -7.625 3.640625 -7.625 C 4.492188 -7.625 5.207031 -7.40625 5.78125 -6.96875 C 6.351562 -6.539062 6.707031 -5.929688 6.84375 -5.140625 L 5.359375 -5.140625 C 5.242188 -5.554688 5.03125 -5.859375 4.71875 -6.046875 C 4.414062 -6.242188 4.054688 -6.34375 3.640625 -6.34375 C 3.242188 -6.34375 2.925781 -6.265625 2.6875 -6.109375 C 2.457031 -5.960938 2.34375 -5.757812 2.34375 -5.5 C 2.34375 -5.28125 2.425781 -5.101562 2.59375 -4.96875 C 2.769531 -4.84375 2.992188 -4.742188 3.265625 -4.671875 C 3.535156 -4.597656 3.832031 -4.53125 4.15625 -4.46875 C 4.476562 -4.40625 4.8125 -4.332031 5.15625 -4.25 C 5.5 -4.164062 5.804688 -4.046875 6.078125 -3.890625 C 6.359375 -3.734375 6.585938 -3.519531 6.765625 -3.25 C 6.941406 -2.988281 7.03125 -2.644531 7.03125 -2.21875 C 7.03125 -1.519531 6.765625 -0.953125 6.234375 -0.515625 C 5.710938 -0.078125 4.972656 0.140625 4.015625 0.140625 Z M 4.015625 0.140625 "/></g></g></g><g fill="#0e6939" fill-opacity="1"><g transform="translate(53.942623, 26.508297)"><g><path d="M 4.328125 0.140625 C 3.585938 0.140625 2.929688 -0.0195312 2.359375 -0.34375 C 1.796875 -0.675781 1.351562 -1.132812 1.03125 -1.71875 C 0.71875 -2.3125 0.5625 -3 0.5625 -3.78125 C 0.5625 -4.53125 0.71875 -5.191406 1.03125 -5.765625 C 1.351562 -6.347656 1.796875 -6.800781 2.359375 -7.125 C 2.929688 -7.457031 3.585938 -7.625 4.328125 -7.625 C 5.066406 -7.625 5.71875 -7.457031 6.28125 -7.125 C 6.851562 -6.800781 7.296875 -6.347656 7.609375 -5.765625 C 7.929688 -5.191406 8.09375 -4.53125 8.09375 -3.78125 C 8.09375 -3.007812 7.9375 -2.328125 7.625 -1.734375 C 7.3125 -1.148438 6.867188 -0.691406 6.296875 -0.359375 C 5.734375 -0.0234375 5.078125 0.140625 4.328125 0.140625 Z M 4.328125 -1.234375 C 4.742188 -1.234375 5.113281 -1.34375 5.4375 -1.5625 C 5.769531 -1.78125 6.023438 -2.082031 6.203125 -2.46875 C 6.390625 -2.851562 6.484375 -3.289062 6.484375 -3.78125 C 6.484375 -4.25 6.390625 -4.671875 6.203125 -5.046875 C 6.023438 -5.421875 5.769531 -5.710938 5.4375 -5.921875 C 5.113281 -6.140625 4.742188 -6.25 4.328125 -6.25 C 3.910156 -6.25 3.535156 -6.144531 3.203125 -5.9375 C 2.878906 -5.726562 2.625 -5.4375 2.4375 -5.0625 C 2.257812 -4.6875 2.171875 -4.257812 2.171875 -3.78125 C 2.171875 -3.28125 2.265625 -2.835938 2.453125 -2.453125 C 2.640625 -2.066406 2.894531 -1.765625 3.21875 -1.546875 C 3.539062 -1.335938 3.910156 -1.234375 4.328125 -1.234375 Z M 4.328125 -1.234375 "/></g></g></g><g fill="#0e6939" fill-opacity="1"><g transform="translate(62.608353, 26.508297)"><g><path d="M 3.4375 0.140625 C 2.3125 0.140625 1.550781 -0.265625 1.15625 -1.078125 C 1.039062 -1.328125 0.957031 -1.601562 0.90625 -1.90625 C 0.851562 -2.207031 0.828125 -2.609375 0.828125 -3.109375 L 0.828125 -7.484375 L 2.40625 -7.484375 L 2.40625 -3.09375 C 2.40625 -2.34375 2.535156 -1.828125 2.796875 -1.546875 C 3.015625 -1.296875 3.351562 -1.171875 3.8125 -1.171875 C 4.082031 -1.171875 4.316406 -1.210938 4.515625 -1.296875 C 4.710938 -1.390625 4.878906 -1.507812 5.015625 -1.65625 C 5.203125 -1.863281 5.335938 -2.140625 5.421875 -2.484375 C 5.503906 -2.835938 5.546875 -3.300781 5.546875 -3.875 L 5.546875 -7.484375 L 7.125 -7.484375 L 7.125 0 L 5.546875 0 L 5.546875 -1.015625 C 5.242188 -0.609375 4.925781 -0.3125 4.59375 -0.125 C 4.257812 0.0507812 3.875 0.140625 3.4375 0.140625 Z M 3.4375 0.140625 "/></g></g></g><g fill="#0e6939" fill-opacity="1"><g transform="translate(70.591004, 26.508297)"><g><path d="M 2.453125 0 L 0.875 0 L 0.875 -7.484375 L 2.453125 -7.484375 L 2.453125 -6.546875 C 2.765625 -6.953125 3.097656 -7.234375 3.453125 -7.390625 C 3.804688 -7.546875 4.210938 -7.625 4.671875 -7.625 L 4.84375 -7.625 L 4.84375 -6.078125 L 4.453125 -6.078125 C 3.847656 -6.078125 3.382812 -5.914062 3.0625 -5.59375 C 2.65625 -5.207031 2.453125 -4.546875 2.453125 -3.609375 Z M 2.453125 0 "/></g></g></g><g fill="#0e6939" fill-opacity="1"><g transform="translate(75.707402, 26.508297)"><g><path d="M 4.28125 0.140625 C 3.550781 0.140625 2.90625 -0.0195312 2.34375 -0.34375 C 1.78125 -0.675781 1.34375 -1.132812 1.03125 -1.71875 C 0.71875 -2.3125 0.5625 -3 0.5625 -3.78125 C 0.5625 -4.53125 0.71875 -5.191406 1.03125 -5.765625 C 1.34375 -6.347656 1.773438 -6.800781 2.328125 -7.125 C 2.890625 -7.457031 3.539062 -7.625 4.28125 -7.625 C 5.164062 -7.625 5.914062 -7.398438 6.53125 -6.953125 C 7.144531 -6.503906 7.539062 -5.894531 7.71875 -5.125 L 6 -5.125 C 5.875 -5.5 5.660156 -5.789062 5.359375 -6 C 5.066406 -6.207031 4.707031 -6.3125 4.28125 -6.3125 C 3.65625 -6.3125 3.144531 -6.078125 2.75 -5.609375 C 2.363281 -5.148438 2.171875 -4.539062 2.171875 -3.78125 C 2.171875 -2.988281 2.363281 -2.351562 2.75 -1.875 C 3.144531 -1.40625 3.65625 -1.171875 4.28125 -1.171875 C 4.75 -1.171875 5.132812 -1.289062 5.4375 -1.53125 C 5.738281 -1.769531 5.941406 -2.085938 6.046875 -2.484375 L 7.75 -2.484375 C 7.582031 -1.660156 7.179688 -1.015625 6.546875 -0.546875 C 5.921875 -0.0859375 5.164062 0.140625 4.28125 0.140625 Z M 4.28125 0.140625 "/></g></g></g><g fill="#0e6939" fill-opacity="1"><g transform="translate(83.93114, 26.508297)"><g><path d="M 4.296875 0.140625 C 3.546875 0.140625 2.890625 -0.0234375 2.328125 -0.359375 C 1.773438 -0.691406 1.34375 -1.148438 1.03125 -1.734375 C 0.71875 -2.316406 0.5625 -2.972656 0.5625 -3.703125 C 0.5625 -4.203125 0.640625 -4.679688 0.796875 -5.140625 C 0.953125 -5.609375 1.179688 -6.03125 1.484375 -6.40625 C 1.796875 -6.78125 2.179688 -7.078125 2.640625 -7.296875 C 3.097656 -7.515625 3.640625 -7.625 4.265625 -7.625 C 4.898438 -7.625 5.5 -7.484375 6.0625 -7.203125 C 6.632812 -6.929688 7.097656 -6.515625 7.453125 -5.953125 C 7.804688 -5.390625 7.984375 -4.675781 7.984375 -3.8125 L 7.984375 -3.421875 L 2.171875 -3.421875 C 2.191406 -3.273438 2.222656 -3.128906 2.265625 -2.984375 C 2.304688 -2.835938 2.359375 -2.703125 2.421875 -2.578125 C 2.597656 -2.160156 2.851562 -1.832031 3.1875 -1.59375 C 3.53125 -1.351562 3.914062 -1.234375 4.34375 -1.234375 C 4.8125 -1.234375 5.207031 -1.359375 5.53125 -1.609375 C 5.851562 -1.859375 6.082031 -2.148438 6.21875 -2.484375 L 7.84375 -2.484375 C 7.695312 -2.003906 7.46875 -1.5625 7.15625 -1.15625 C 6.851562 -0.757812 6.46875 -0.441406 6 -0.203125 C 5.53125 0.0234375 4.960938 0.140625 4.296875 0.140625 Z M 2.265625 -4.65625 L 6.328125 -4.65625 C 6.328125 -4.769531 6.304688 -4.890625 6.265625 -5.015625 C 6.222656 -5.140625 6.164062 -5.257812 6.09375 -5.375 C 5.914062 -5.695312 5.664062 -5.9375 5.34375 -6.09375 C 5.03125 -6.25 4.6875 -6.328125 4.3125 -6.328125 C 3.507812 -6.328125 2.914062 -6.007812 2.53125 -5.375 C 2.445312 -5.257812 2.382812 -5.132812 2.34375 -5 C 2.3125 -4.875 2.285156 -4.757812 2.265625 -4.65625 Z M 2.265625 -4.65625 "/></g></g></g><g fill="#0e6939" fill-opacity="1"><g transform="translate(92.462935, 26.508297)"><g><path d="M 4.015625 0.140625 C 3.429688 0.140625 2.882812 0.046875 2.375 -0.140625 C 1.875 -0.328125 1.457031 -0.613281 1.125 -1 C 0.789062 -1.382812 0.582031 -1.878906 0.5 -2.484375 L 2.09375 -2.484375 C 2.195312 -2.054688 2.410156 -1.722656 2.734375 -1.484375 C 3.066406 -1.253906 3.492188 -1.140625 4.015625 -1.140625 C 4.429688 -1.140625 4.773438 -1.222656 5.046875 -1.390625 C 5.328125 -1.554688 5.46875 -1.789062 5.46875 -2.09375 C 5.46875 -2.351562 5.378906 -2.550781 5.203125 -2.6875 C 5.023438 -2.820312 4.789062 -2.929688 4.5 -3.015625 C 4.21875 -3.097656 3.914062 -3.171875 3.59375 -3.234375 C 3.269531 -3.296875 2.941406 -3.367188 2.609375 -3.453125 C 2.285156 -3.546875 1.984375 -3.664062 1.703125 -3.8125 C 1.429688 -3.96875 1.210938 -4.171875 1.046875 -4.421875 C 0.878906 -4.679688 0.796875 -5.015625 0.796875 -5.421875 C 0.796875 -5.921875 0.925781 -6.332031 1.1875 -6.65625 C 1.445312 -6.988281 1.789062 -7.234375 2.21875 -7.390625 C 2.65625 -7.546875 3.128906 -7.625 3.640625 -7.625 C 4.492188 -7.625 5.207031 -7.40625 5.78125 -6.96875 C 6.351562 -6.539062 6.707031 -5.929688 6.84375 -5.140625 L 5.359375 -5.140625 C 5.242188 -5.554688 5.03125 -5.859375 4.71875 -6.046875 C 4.414062 -6.242188 4.054688 -6.34375 3.640625 -6.34375 C 3.242188 -6.34375 2.925781 -6.265625 2.6875 -6.109375 C 2.457031 -5.960938 2.34375 -5.757812 2.34375 -5.5 C 2.34375 -5.28125 2.425781 -5.101562 2.59375 -4.96875 C 2.769531 -4.84375 2.992188 -4.742188 3.265625 -4.671875 C 3.535156 -4.597656 3.832031 -4.53125 4.15625 -4.46875 C 4.476562 -4.40625 4.8125 -4.332031 5.15625 -4.25 C 5.5 -4.164062 5.804688 -4.046875 6.078125 -3.890625 C 6.359375 -3.734375 6.585938 -3.519531 6.765625 -3.25 C 6.941406 -2.988281 7.03125 -2.644531 7.03125 -2.21875 C 7.03125 -1.519531 6.765625 -0.953125 6.234375 -0.515625 C 5.710938 -0.078125 4.972656 0.140625 4.015625 0.140625 Z M 4.015625 0.140625 "/></g></g></g><g fill="#0e6939" fill-opacity="1"><g transform="translate(11.56178, 38.861188)"><g><path d="M 4.171875 -3.46875 L 4.171875 0 L 3.8125 0 L 3.8125 -2.78125 L 2.453125 -0.4375 L 2.28125 -0.4375 L 0.921875 -2.765625 L 0.921875 0 L 0.5625 0 L 0.5625 -3.46875 L 0.859375 -3.46875 L 2.375 -0.890625 L 3.859375 -3.46875 Z M 4.171875 -3.46875 "/></g></g></g><g fill="#0e6939" fill-opacity="1"><g transform="translate(18.758207, 38.861188)"><g><path d="M 0.5625 -3.46875 L 0.9375 -3.46875 L 0.9375 0 L 0.5625 0 Z M 0.5625 -3.46875 "/></g></g></g><g fill="#0e6939" fill-opacity="1"><g transform="translate(22.725797, 38.861188)"><g><path d="M 2.078125 0.03125 C 1.734375 0.03125 1.421875 -0.0390625 1.140625 -0.1875 C 0.867188 -0.34375 0.648438 -0.554688 0.484375 -0.828125 C 0.328125 -1.097656 0.25 -1.398438 0.25 -1.734375 C 0.25 -2.066406 0.328125 -2.367188 0.484375 -2.640625 C 0.648438 -2.910156 0.867188 -3.117188 1.140625 -3.265625 C 1.421875 -3.421875 1.734375 -3.5 2.078125 -3.5 C 2.335938 -3.5 2.570312 -3.453125 2.78125 -3.359375 C 3 -3.273438 3.1875 -3.148438 3.34375 -2.984375 L 3.109375 -2.765625 C 2.835938 -3.035156 2.492188 -3.171875 2.078125 -3.171875 C 1.804688 -3.171875 1.554688 -3.109375 1.328125 -2.984375 C 1.109375 -2.859375 0.9375 -2.6875 0.8125 -2.46875 C 0.6875 -2.25 0.625 -2.003906 0.625 -1.734375 C 0.625 -1.460938 0.6875 -1.21875 0.8125 -1 C 0.9375 -0.78125 1.109375 -0.609375 1.328125 -0.484375 C 1.554688 -0.359375 1.804688 -0.296875 2.078125 -0.296875 C 2.492188 -0.296875 2.835938 -0.4375 3.109375 -0.71875 L 3.34375 -0.484375 C 3.1875 -0.316406 3 -0.1875 2.78125 -0.09375 C 2.5625 -0.0078125 2.328125 0.03125 2.078125 0.03125 Z M 2.078125 0.03125 "/></g></g></g><g fill="#0e6939" fill-opacity="1"><g transform="translate(28.755293, 38.861188)"><g><path d="M 2.9375 0 L 2.140625 -1.109375 C 2.046875 -1.097656 1.953125 -1.09375 1.859375 -1.09375 L 0.9375 -1.09375 L 0.9375 0 L 0.5625 0 L 0.5625 -3.46875 L 1.859375 -3.46875 C 2.304688 -3.46875 2.65625 -3.359375 2.90625 -3.140625 C 3.15625 -2.929688 3.28125 -2.644531 3.28125 -2.28125 C 3.28125 -2.007812 3.210938 -1.78125 3.078125 -1.59375 C 2.941406 -1.40625 2.742188 -1.269531 2.484375 -1.1875 L 3.328125 0 Z M 1.859375 -1.40625 C 2.203125 -1.40625 2.460938 -1.484375 2.640625 -1.640625 C 2.816406 -1.796875 2.90625 -2.007812 2.90625 -2.28125 C 2.90625 -2.5625 2.816406 -2.773438 2.640625 -2.921875 C 2.460938 -3.078125 2.203125 -3.15625 1.859375 -3.15625 L 0.9375 -3.15625 L 0.9375 -1.40625 Z M 1.859375 -1.40625 "/></g></g></g><g fill="#0e6939" fill-opacity="1"><g transform="translate(34.804569, 38.861188)"><g><path d="M 2.078125 0.03125 C 1.734375 0.03125 1.421875 -0.046875 1.140625 -0.203125 C 0.867188 -0.359375 0.648438 -0.566406 0.484375 -0.828125 C 0.328125 -1.097656 0.25 -1.398438 0.25 -1.734375 C 0.25 -2.066406 0.328125 -2.363281 0.484375 -2.625 C 0.648438 -2.894531 0.867188 -3.109375 1.140625 -3.265625 C 1.421875 -3.421875 1.734375 -3.5 2.078125 -3.5 C 2.421875 -3.5 2.726562 -3.421875 3 -3.265625 C 3.28125 -3.117188 3.5 -2.910156 3.65625 -2.640625 C 3.8125 -2.367188 3.890625 -2.066406 3.890625 -1.734375 C 3.890625 -1.398438 3.8125 -1.097656 3.65625 -0.828125 C 3.5 -0.554688 3.28125 -0.34375 3 -0.1875 C 2.726562 -0.0390625 2.421875 0.03125 2.078125 0.03125 Z M 2.078125 -0.296875 C 2.347656 -0.296875 2.59375 -0.359375 2.8125 -0.484375 C 3.039062 -0.609375 3.21875 -0.78125 3.34375 -1 C 3.46875 -1.21875 3.53125 -1.460938 3.53125 -1.734375 C 3.53125 -2.003906 3.46875 -2.25 3.34375 -2.46875 C 3.21875 -2.6875 3.039062 -2.859375 2.8125 -2.984375 C 2.59375 -3.109375 2.347656 -3.171875 2.078125 -3.171875 C 1.804688 -3.171875 1.554688 -3.109375 1.328125 -2.984375 C 1.109375 -2.859375 0.9375 -2.6875 0.8125 -2.46875 C 0.6875 -2.25 0.625 -2.003906 0.625 -1.734375 C 0.625 -1.460938 0.6875 -1.21875 0.8125 -1 C 0.9375 -0.78125 1.109375 -0.609375 1.328125 -0.484375 C 1.554688 -0.359375 1.804688 -0.296875 2.078125 -0.296875 Z M 2.078125 -0.296875 "/></g></g></g><g fill="#0e6939" fill-opacity="1"><g transform="translate(41.427423, 38.861188)"><g/></g></g><g fill="#0e6939" fill-opacity="1"><g transform="translate(45.197226, 38.861188)"><g><path d="M 0.9375 -3.15625 L 0.9375 -1.78125 L 2.71875 -1.78125 L 2.71875 -1.46875 L 0.9375 -1.46875 L 0.9375 0 L 0.5625 0 L 0.5625 -3.46875 L 2.9375 -3.46875 L 2.9375 -3.15625 Z M 0.9375 -3.15625 "/></g></g></g><g fill="#0e6939" fill-opacity="1"><g transform="translate(50.801481, 38.861188)"><g><path d="M 0.5625 -3.46875 L 0.9375 -3.46875 L 0.9375 0 L 0.5625 0 Z M 0.5625 -3.46875 "/></g></g></g><g fill="#0e6939" fill-opacity="1"><g transform="translate(54.769069, 38.861188)"><g><path d="M 3.46875 -3.46875 L 3.46875 0 L 3.15625 0 L 0.9375 -2.8125 L 0.9375 0 L 0.5625 0 L 0.5625 -3.46875 L 0.859375 -3.46875 L 3.09375 -0.65625 L 3.09375 -3.46875 Z M 3.46875 -3.46875 "/></g></g></g><g fill="#0e6939" fill-opacity="1"><g transform="translate(61.263359, 38.861188)"><g><path d="M 2.734375 -0.921875 L 0.8125 -0.921875 L 0.390625 0 L 0.015625 0 L 1.59375 -3.46875 L 1.953125 -3.46875 L 3.546875 0 L 3.15625 0 Z M 2.609375 -1.21875 L 1.765625 -3.078125 L 0.9375 -1.21875 Z M 2.609375 -1.21875 "/></g></g></g><g fill="#0e6939" fill-opacity="1"><g transform="translate(67.282966, 38.861188)"><g><path d="M 3.46875 -3.46875 L 3.46875 0 L 3.15625 0 L 0.9375 -2.8125 L 0.9375 0 L 0.5625 0 L 0.5625 -3.46875 L 0.859375 -3.46875 L 3.09375 -0.65625 L 3.09375 -3.46875 Z M 3.46875 -3.46875 "/></g></g></g><g fill="#0e6939" fill-opacity="1"><g transform="translate(73.777255, 38.861188)"><g><path d="M 2.078125 0.03125 C 1.734375 0.03125 1.421875 -0.0390625 1.140625 -0.1875 C 0.867188 -0.34375 0.648438 -0.554688 0.484375 -0.828125 C 0.328125 -1.097656 0.25 -1.398438 0.25 -1.734375 C 0.25 -2.066406 0.328125 -2.367188 0.484375 -2.640625 C 0.648438 -2.910156 0.867188 -3.117188 1.140625 -3.265625 C 1.421875 -3.421875 1.734375 -3.5 2.078125 -3.5 C 2.335938 -3.5 2.570312 -3.453125 2.78125 -3.359375 C 3 -3.273438 3.1875 -3.148438 3.34375 -2.984375 L 3.109375 -2.765625 C 2.835938 -3.035156 2.492188 -3.171875 2.078125 -3.171875 C 1.804688 -3.171875 1.554688 -3.109375 1.328125 -2.984375 C 1.109375 -2.859375 0.9375 -2.6875 0.8125 -2.46875 C 0.6875 -2.25 0.625 -2.003906 0.625 -1.734375 C 0.625 -1.460938 0.6875 -1.21875 0.8125 -1 C 0.9375 -0.78125 1.109375 -0.609375 1.328125 -0.484375 C 1.554688 -0.359375 1.804688 -0.296875 2.078125 -0.296875 C 2.492188 -0.296875 2.835938 -0.4375 3.109375 -0.71875 L 3.34375 -0.484375 C 3.1875 -0.316406 3 -0.1875 2.78125 -0.09375 C 2.5625 -0.0078125 2.328125 0.03125 2.078125 0.03125 Z M 2.078125 0.03125 "/></g></g></g><g fill="#0e6939" fill-opacity="1"><g transform="translate(79.806748, 38.861188)"><g><path d="M 3.015625 -0.3125 L 3.015625 0 L 0.5625 0 L 0.5625 -3.46875 L 2.9375 -3.46875 L 2.9375 -3.15625 L 0.9375 -3.15625 L 0.9375 -1.921875 L 2.71875 -1.921875 L 2.71875 -1.609375 L 0.9375 -1.609375 L 0.9375 -0.3125 Z M 3.015625 -0.3125 "/></g></g></g></svg>