<svg xmlns="http://www.w3.org/2000/svg" xmlns:xlink="http://www.w3.org/1999/xlink" width="135" zoomAndPan="magnify" viewBox="0 0 101.25 40.499999" height="54" preserveAspectRatio="xMidYMid meet" version="1.0"><defs><g/><clipPath id="2e53399240"><path d="M 5 13 L 27 13 L 27 29.449219 L 5 29.449219 Z M 5 13 " clip-rule="nonzero"/></clipPath><clipPath id="87fb37adbe"><path d="M 0.523438 0 L 31 0 L 31 21 L 0.523438 21 Z M 0.523438 0 " clip-rule="nonzero"/></clipPath><clipPath id="a60435dde3"><path d="M 1 0 L 31.796875 0 L 31.796875 20 L 1 20 Z M 1 0 " clip-rule="nonzero"/></clipPath></defs><g clip-path="url(#2e53399240)"><path fill="#ffffff" d="M 17.523438 16.949219 C 19.144531 16.042969 19.726562 15.230469 19.726562 15.230469 C 19.726562 15.230469 20.171875 15.65625 19.726562 16.3125 C 19.28125 16.96875 19.011719 17.335938 19.011719 17.335938 C 19.011719 17.335938 20.789062 17.007812 21.464844 15.90625 C 22.140625 14.804688 22.703125 14.726562 23.105469 14.882812 L 21.570312 16.632812 C 21.570312 16.632812 21.839844 16.640625 21.949219 16.582031 C 22.054688 16.523438 23.464844 15.027344 23.792969 14.863281 C 24.121094 14.699219 24.488281 14.835938 24.488281 14.835938 L 22.292969 17.019531 C 22.292969 17.019531 22.59375 17.027344 22.921875 16.804688 C 23.25 16.582031 24.605469 15.085938 24.933594 14.902344 C 25.261719 14.71875 25.675781 14.910156 25.675781 14.910156 L 23.105469 17.269531 C 23.105469 17.269531 23.433594 17.316406 23.628906 17.164062 C 23.820312 17.007812 25.292969 15.617188 25.636719 15.453125 C 25.988281 15.289062 26.277344 15.492188 26.277344 15.492188 C 26.277344 15.492188 24.34375 17.597656 23.511719 17.976562 C 22.679688 18.351562 19 18.722656 17.367188 19.359375 C 15.839844 19.957031 15.339844 22.847656 15.941406 25.882812 C 16.554688 28.035156 19.132812 28.933594 23.179688 29.53125 L 13.761719 29.53125 C 13.382812 26.453125 13.421875 19.246094 17.523438 16.949219 Z M 12.96875 29.503906 L 8.941406 29.503906 C 8.941406 29.503906 12.132812 28.449219 12.828125 27.730469 C 12.828125 27.730469 12.753906 28.546875 12.96875 29.503906 Z M 9.464844 15.265625 C 9.464844 15.265625 8.960938 15.511719 9.398438 16.246094 C 9.832031 16.976562 10.414062 17.984375 10.046875 18.164062 C 9.683594 18.34375 7.976562 17.527344 7.976562 17.527344 C 8.507812 17.660156 9.035156 17.796875 9.550781 17.792969 C 9.0625 17.304688 8.75 16.027344 8.550781 15.765625 C 8.347656 15.507812 8.082031 15.496094 8.082031 15.496094 L 8.75 17.199219 L 8.488281 17.132812 C 8.488281 17.132812 7.902344 15.480469 7.742188 15.21875 C 7.582031 14.957031 7.125 14.851562 7.125 14.851562 L 7.957031 17.128906 C 7.957031 17.128906 7.707031 17.015625 7.589844 16.835938 C 7.476562 16.652344 6.929688 14.949219 6.765625 14.707031 C 6.597656 14.46875 6.152344 14.324219 6.152344 14.324219 L 6.980469 16.679688 C 6.980469 16.679688 6.734375 16.589844 6.65625 16.425781 C 6.582031 16.257812 5.933594 14.320312 5.816406 14.160156 C 5.699219 13.996094 5.074219 13.875 5.074219 13.875 C 5.074219 13.875 6.070312 17.109375 6.488281 17.847656 C 6.902344 18.585938 7.9375 18.988281 10.78125 19.316406 C 13.625 19.644531 13.351562 21.960938 13.351562 21.960938 C 14.128906 20.164062 14.515625 18.6875 12.347656 17.707031 C 10.746094 16.980469 9.820312 15.882812 9.464844 15.265625 Z M 9.464844 15.265625 " fill-opacity="1" fill-rule="evenodd"/></g><g clip-path="url(#87fb37adbe)"><path fill="#0e6939" d="M 4.042969 19.601562 L 5.839844 18.117188 L 5.464844 18.648438 C 5.746094 19.511719 4.679688 20.421875 3.613281 19.988281 C 3.613281 19.984375 3.457031 18.273438 5.199219 18.332031 Z M 26.066406 19.636719 L 24.386719 18.246094 L 24.738281 18.746094 C 24.476562 19.550781 25.46875 20.398438 26.46875 19.992188 C 26.46875 19.992188 26.613281 18.390625 24.984375 18.445312 Z M 29.507812 16.742188 L 26.910156 16.03125 L 27.558594 16.414062 C 27.671875 17.453125 29.226562 17.902344 30.144531 16.941406 C 30.144531 16.941406 29.492188 15.0625 27.6875 15.953125 Z M 17.269531 14.535156 L 15.375 16.363281 L 16.019531 16.011719 C 16.953125 16.433594 18.105469 15.351562 17.753906 14.097656 C 17.753906 14.097656 15.851562 13.710938 15.695312 15.675781 Z M 8.519531 14.550781 L 10.101562 14.140625 L 9.703125 14.367188 C 9.625 14.996094 8.679688 15.257812 8.132812 14.664062 C 8.132812 14.664062 8.542969 13.53125 9.632812 14.085938 Z M 2.253906 13.917969 L 4.628906 13.710938 L 4.003906 13.941406 C 3.742188 14.828125 2.316406 14.976562 1.667969 13.988281 C 1.667969 13.988281 2.535156 12.457031 3.96875 13.519531 Z M 22.921875 12.382812 L 19.398438 12.160156 L 20.332031 12.480469 C 20.753906 13.785156 22.867188 13.953125 23.789062 12.472656 C 23.789062 12.472656 22.457031 10.234375 20.371094 11.851562 Z M 11.675781 10.691406 L 14.148438 12.097656 L 13.375 11.902344 C 12.515625 12.59375 11.019531 11.769531 11.054688 10.363281 C 11.054688 10.363281 12.941406 9.449219 13.628906 11.460938 Z M 28.929688 8.496094 L 25.550781 9.226562 L 26.515625 9.277344 C 27.261719 10.394531 29.296875 9.988281 29.773438 8.347656 C 29.773438 8.347656 27.921875 6.59375 26.386719 8.675781 Z M 1.375 8.496094 L 4.753906 9.226562 L 3.789062 9.277344 C 3.042969 10.394531 1.003906 9.988281 0.53125 8.347656 C 0.53125 8.347656 2.382812 6.59375 3.917969 8.675781 Z M 6.777344 6.828125 L 10.316406 8.585938 L 9.230469 8.375 C 8.09375 9.402344 5.949219 8.378906 5.886719 6.425781 C 5.886719 6.425781 8.433594 5.003906 9.546875 7.746094 Z M 23.523438 6.828125 L 19.988281 8.585938 L 21.074219 8.375 C 22.210938 9.402344 24.351562 8.378906 24.417969 6.425781 C 24.417969 6.425781 21.871094 5.003906 20.757812 7.746094 Z M 13.039062 5.445312 L 13.785156 8.09375 L 13.386719 7.433594 C 12.324219 7.328125 11.851562 5.742188 12.828125 4.792969 C 12.828125 4.792969 14.753906 5.445312 13.859375 7.300781 Z M 16.246094 2.363281 L 16.007812 4.964844 L 16.265625 4.28125 C 17.238281 3.996094 17.402344 2.433594 16.324219 1.71875 C 16.324219 1.71875 14.644531 2.664062 15.800781 4.238281 Z M 8.632812 1.183594 L 10.585938 4.382812 L 9.824219 3.664062 C 8.386719 3.914062 7.183594 2.011719 8.117188 0.40625 C 8.117188 0.40625 10.882812 0.554688 10.394531 3.316406 Z M 8.632812 1.183594 " fill-opacity="1" fill-rule="evenodd"/></g><g clip-path="url(#a60435dde3)"><path fill="#c5ff00" d="M 23.9375 19.484375 L 23.261719 18.726562 L 23.386719 18.980469 C 23.210938 19.335938 23.609375 19.792969 24.097656 19.679688 C 24.097656 19.679688 24.277344 18.949219 23.523438 18.863281 Z M 6.144531 19.484375 L 6.820312 18.726562 L 6.695312 18.980469 C 6.871094 19.335938 6.472656 19.792969 5.984375 19.679688 C 5.984375 19.679688 5.804688 18.949219 6.558594 18.863281 Z M 27.144531 17.84375 L 25.382812 17.007812 L 25.796875 17.363281 C 25.746094 18.121094 26.796875 18.640625 27.578125 18.066406 C 27.578125 18.066406 27.347656 16.644531 25.945312 17.050781 Z M 13.179688 15.230469 L 15.09375 17.367188 L 14.417969 16.933594 C 13.371094 17.320312 12.203125 16.050781 12.6875 14.714844 C 12.6875 14.714844 14.785156 14.441406 14.800781 16.589844 Z M 2.03125 15.921875 L 3.710938 15.460938 L 3.292969 15.710938 C 3.21875 16.382812 2.210938 16.675781 1.617188 16.050781 C 1.617188 16.050781 2.039062 14.835938 3.210938 15.410156 Z M 29.652344 14.003906 L 26.136719 13.703125 L 27.0625 14.042969 C 27.457031 15.355469 29.5625 15.570312 30.523438 14.109375 C 30.523438 14.109375 29.242188 11.84375 27.117188 13.417969 Z M 20.261719 14.023438 L 18.472656 14.378906 L 18.984375 14.414062 C 19.367188 15.011719 20.445312 14.8125 20.710938 13.949219 C 20.710938 13.949219 19.746094 13.007812 18.917969 14.09375 Z M 13.363281 13.085938 L 14.765625 14.488281 L 14.285156 14.214844 C 13.578125 14.523438 12.722656 13.691406 13.003906 12.75 C 13.003906 12.75 14.441406 12.480469 14.535156 13.964844 Z M 7.382812 12.382812 L 10.90625 12.160156 L 9.972656 12.480469 C 9.550781 13.785156 7.4375 13.953125 6.515625 12.472656 C 6.515625 12.472656 7.847656 10.234375 9.933594 11.851562 Z M 19.058594 12.535156 L 17.246094 12.972656 L 17.765625 12.988281 C 18.183594 13.582031 19.277344 13.335938 19.511719 12.445312 C 19.511719 12.445312 18.488281 11.519531 17.6875 12.667969 Z M 31.113281 11.703125 L 28.476562 11.761719 L 29.191406 11.941406 C 29.589844 12.886719 31.175781 12.875 31.769531 11.714844 C 31.769531 11.714844 30.632812 10.132812 29.183594 11.46875 Z M 27.476562 11.15625 L 24.476562 11.382812 L 25.300781 11.542969 C 25.8125 12.59375 27.617188 12.488281 28.222656 11.125 C 28.222656 11.125 26.832031 9.394531 25.261719 11.007812 Z M 2.828125 11.15625 L 5.828125 11.382812 L 5.003906 11.542969 C 4.492188 12.59375 2.6875 12.488281 2.082031 11.125 C 2.082031 11.125 3.472656 9.394531 5.042969 11.007812 Z M 17.023438 10.464844 L 15.628906 11.6875 L 16.09375 11.460938 C 16.734375 11.789062 17.582031 11.070312 17.378906 10.175781 C 17.378906 10.175781 16.054688 9.835938 15.878906 11.210938 Z M 14.828125 8.980469 L 14.75 11.402344 L 14.59375 10.742188 C 13.726562 10.371094 13.753906 8.914062 14.828125 8.378906 C 14.828125 8.378906 16.269531 9.4375 15.023438 10.757812 Z M 20.429688 10.03125 L 17.601562 11.046875 L 18.4375 10.984375 C 19.207031 11.859375 20.917969 11.277344 21.140625 9.804688 C 21.140625 9.804688 19.34375 8.503906 18.257812 10.476562 Z M 24.4375 9.753906 L 21.804688 10.320312 L 22.558594 10.359375 C 23.140625 11.230469 24.726562 10.914062 25.09375 9.632812 C 25.09375 9.632812 23.652344 8.269531 22.457031 9.890625 Z M 5.867188 9.753906 L 8.496094 10.320312 L 7.746094 10.359375 C 7.164062 11.230469 5.578125 10.914062 5.207031 9.632812 C 5.207031 9.632812 6.652344 8.269531 7.847656 9.890625 Z M 8.984375 9.464844 L 10.695312 10.078125 L 10.191406 10.039062 C 9.722656 10.570312 8.6875 10.21875 8.550781 9.328125 C 8.550781 9.328125 9.640625 8.539062 10.300781 9.734375 Z M 11.992188 8.257812 L 13.605469 10.164062 L 13.03125 9.769531 C 12.113281 10.082031 11.125 8.949219 11.574219 7.800781 C 11.574219 7.800781 13.410156 7.613281 13.371094 9.480469 Z M 17.089844 6.046875 L 16.074219 9.65625 L 16.613281 8.757812 C 18.0625 8.613281 18.707031 6.453125 17.375 5.160156 C 17.375 5.160156 14.753906 6.046875 15.96875 8.578125 Z M 20.398438 5.449219 L 18.839844 7.386719 L 19.40625 6.980469 C 20.324219 7.265625 21.28125 6.117188 20.800781 4.984375 C 20.800781 4.984375 18.976562 4.84375 19.058594 6.703125 Z M 14.878906 4.695312 L 14.824219 6.425781 L 14.710938 5.953125 C 14.09375 5.6875 14.113281 4.648438 14.878906 4.265625 C 14.878906 4.265625 15.90625 5.023438 15.019531 5.964844 Z M 25.992188 5.132812 L 24.574219 6.230469 L 25.039062 6.039062 C 25.636719 6.394531 26.5 5.746094 26.351562 4.871094 C 26.351562 4.871094 25.089844 4.46875 24.839844 5.789062 Z M 4.3125 5.132812 L 5.730469 6.230469 L 5.265625 6.039062 C 4.667969 6.394531 3.804688 5.746094 3.953125 4.871094 C 3.953125 4.871094 5.214844 4.46875 5.464844 5.789062 Z M 23.78125 3.566406 L 21.753906 5.570312 L 22.445312 5.179688 C 23.460938 5.625 24.695312 4.441406 24.300781 3.089844 C 24.300781 3.089844 22.234375 2.691406 22.089844 4.820312 Z M 6.523438 3.566406 L 8.550781 5.570312 L 7.855469 5.179688 C 6.84375 5.625 5.609375 4.441406 6.003906 3.089844 C 6.003906 3.089844 8.070312 2.691406 8.214844 4.820312 Z M 11.707031 2.5625 L 12.371094 5.070312 L 12.007812 4.445312 C 11.003906 4.328125 10.582031 2.828125 11.519531 1.949219 C 11.519531 1.949219 13.324219 2.589844 12.453125 4.328125 Z M 21.671875 1.183594 L 19.71875 4.382812 L 20.480469 3.664062 C 21.917969 3.914062 23.121094 2.011719 22.1875 0.40625 C 22.1875 0.40625 19.421875 0.554688 19.910156 3.316406 Z M 14.605469 0.632812 L 14.703125 3.199219 L 14.484375 2.515625 C 13.546875 2.183594 13.464844 0.644531 14.558594 0 C 14.558594 0 16.160156 1.011719 14.941406 2.496094 Z M 14.605469 0.632812 " fill-opacity="1" fill-rule="evenodd"/></g><path fill="#8fcee0" d="M 3.070312 17.699219 L 5.382812 16.605469 L 4.839844 17.070312 C 4.90625 18.0625 3.523438 18.742188 2.503906 17.988281 C 2.503906 17.988281 2.804688 16.125 4.644531 16.660156 Z M 10.613281 13.382812 L 12.800781 14.007812 L 12.167969 14 C 11.628906 14.703125 10.308594 14.347656 10.066406 13.25 C 10.066406 13.25 11.359375 12.179688 12.277344 13.613281 Z M 16.339844 12.5 L 14.875 14.140625 L 15.390625 13.804688 C 16.191406 14.101562 17.089844 13.128906 16.71875 12.105469 C 16.71875 12.105469 15.109375 11.894531 15.097656 13.542969 Z M 25.523438 13.460938 L 23.40625 13.277344 L 23.964844 13.484375 C 24.199219 14.277344 25.46875 14.40625 26.046875 13.527344 C 26.046875 13.527344 25.277344 12.160156 23.996094 13.109375 Z M 5.140625 13.183594 L 6.621094 13.054688 L 6.230469 13.199219 C 6.066406 13.753906 5.175781 13.84375 4.773438 13.230469 C 4.773438 13.230469 5.3125 12.273438 6.207031 12.9375 Z M 18.742188 8.222656 L 17.300781 9.652344 L 17.796875 9.371094 C 18.519531 9.6875 19.398438 8.84375 19.113281 7.878906 C 19.113281 7.878906 17.640625 7.597656 17.539062 9.113281 Z M 25.882812 7.402344 L 24.1875 8.242188 L 24.707031 8.140625 C 25.253906 8.632812 26.277344 8.144531 26.308594 7.207031 C 26.308594 7.207031 25.089844 6.53125 24.558594 7.839844 Z M 4.421875 7.402344 L 6.117188 8.242188 L 5.597656 8.140625 C 5.050781 8.632812 4.027344 8.144531 3.996094 7.207031 C 3.996094 7.207031 5.214844 6.53125 5.746094 7.839844 Z M 9.90625 5.449219 L 11.464844 7.386719 L 10.898438 6.980469 C 9.980469 7.265625 9.023438 6.117188 9.5 4.984375 C 9.5 4.984375 11.328125 4.84375 11.246094 6.703125 Z M 18.640625 2.527344 L 18.019531 4.875 L 18.359375 4.289062 C 19.300781 4.179688 19.695312 2.773438 18.816406 1.949219 C 18.816406 1.949219 17.125 2.550781 17.941406 4.179688 Z M 13.71875 3.257812 L 14.015625 4.726562 L 13.828125 4.351562 C 13.253906 4.25 13.0625 3.371094 13.632812 2.898438 C 13.632812 2.898438 14.648438 3.328125 14.089844 4.300781 Z M 13.71875 3.257812 " fill-opacity="1" fill-rule="evenodd"/><g fill="#ffffff" fill-opacity="1"><g transform="translate(32.770748, 14.855356)"><g><path d="M 2.640625 0 L 0.9375 0 L 0.9375 -10.15625 L 3.8125 -10.15625 L 6.109375 -2.046875 L 8.40625 -10.15625 L 11.28125 -10.15625 L 11.28125 0 L 9.578125 0 L 9.578125 -8.953125 L 6.9375 0 L 5.28125 0 L 2.640625 -8.890625 Z M 2.640625 0 "/></g></g></g><g fill="#ffffff" fill-opacity="1"><g transform="translate(45.011415, 14.855356)"><g><path d="M 1.65625 -8.40625 C 1.375 -8.40625 1.128906 -8.492188 0.921875 -8.671875 C 0.722656 -8.859375 0.625 -9.085938 0.625 -9.359375 C 0.625 -9.640625 0.722656 -9.867188 0.921875 -10.046875 C 1.128906 -10.222656 1.375 -10.3125 1.65625 -10.3125 C 1.9375 -10.3125 2.175781 -10.222656 2.375 -10.046875 C 2.570312 -9.867188 2.671875 -9.640625 2.671875 -9.359375 C 2.671875 -9.085938 2.570312 -8.859375 2.375 -8.671875 C 2.175781 -8.492188 1.9375 -8.40625 1.65625 -8.40625 Z M 2.4375 0 L 0.859375 0 L 0.859375 -7.4375 L 2.4375 -7.4375 Z M 2.4375 0 "/></g></g></g><g fill="#ffffff" fill-opacity="1"><g transform="translate(48.301343, 14.855356)"><g><path d="M 2.4375 0 L 0.859375 0 L 0.859375 -7.4375 L 2.4375 -7.4375 L 2.4375 -6.4375 C 2.757812 -6.875 3.082031 -7.171875 3.40625 -7.328125 C 3.738281 -7.492188 4.109375 -7.578125 4.515625 -7.578125 C 5.160156 -7.578125 5.65625 -7.457031 6 -7.21875 C 6.351562 -6.988281 6.617188 -6.703125 6.796875 -6.359375 C 6.960938 -6.035156 7.054688 -5.703125 7.078125 -5.359375 C 7.109375 -5.015625 7.125 -4.679688 7.125 -4.359375 L 7.125 0 L 5.53125 0 L 5.53125 -4.359375 C 5.53125 -5.109375 5.410156 -5.617188 5.171875 -5.890625 C 4.953125 -6.128906 4.613281 -6.25 4.15625 -6.25 C 3.613281 -6.25 3.207031 -6.09375 2.9375 -5.78125 C 2.757812 -5.582031 2.628906 -5.3125 2.546875 -4.96875 C 2.472656 -4.625 2.4375 -4.160156 2.4375 -3.578125 Z M 2.4375 0 "/></g></g></g><g fill="#ffffff" fill-opacity="1"><g transform="translate(56.226476, 14.855356)"><g><path d="M 2.984375 0.140625 C 2.273438 0.140625 1.691406 -0.046875 1.234375 -0.421875 C 0.785156 -0.796875 0.5625 -1.332031 0.5625 -2.03125 C 0.5625 -2.382812 0.632812 -2.695312 0.78125 -2.96875 C 0.925781 -3.238281 1.125 -3.46875 1.375 -3.65625 C 1.601562 -3.820312 1.863281 -3.957031 2.15625 -4.0625 C 2.445312 -4.164062 2.765625 -4.25 3.109375 -4.3125 L 5.453125 -4.75 C 5.441406 -5.25 5.3125 -5.628906 5.0625 -5.890625 C 4.78125 -6.171875 4.40625 -6.3125 3.9375 -6.3125 C 3.5625 -6.3125 3.226562 -6.203125 2.9375 -5.984375 C 2.65625 -5.773438 2.476562 -5.476562 2.40625 -5.09375 L 0.84375 -5.09375 C 0.925781 -5.65625 1.125 -6.117188 1.4375 -6.484375 C 1.75 -6.847656 2.125 -7.117188 2.5625 -7.296875 C 3.007812 -7.484375 3.472656 -7.578125 3.953125 -7.578125 C 4.390625 -7.578125 4.800781 -7.515625 5.1875 -7.390625 C 5.582031 -7.273438 5.914062 -7.085938 6.1875 -6.828125 C 6.46875 -6.566406 6.664062 -6.273438 6.78125 -5.953125 C 6.894531 -5.628906 6.960938 -5.296875 6.984375 -4.953125 C 7.003906 -4.617188 7.015625 -4.3125 7.015625 -4.03125 L 7.015625 0 L 5.4375 0 L 5.4375 -1.0625 C 5.25 -0.726562 5.003906 -0.460938 4.703125 -0.265625 C 4.472656 -0.117188 4.210938 -0.015625 3.921875 0.046875 C 3.628906 0.109375 3.316406 0.140625 2.984375 0.140625 Z M 3.328125 -1.125 C 3.691406 -1.125 4.035156 -1.203125 4.359375 -1.359375 C 4.796875 -1.578125 5.085938 -1.863281 5.234375 -2.21875 C 5.390625 -2.582031 5.46875 -3.03125 5.46875 -3.5625 L 3.484375 -3.1875 C 2.972656 -3.070312 2.609375 -2.921875 2.390625 -2.734375 C 2.210938 -2.554688 2.125 -2.332031 2.125 -2.0625 C 2.125 -1.757812 2.234375 -1.523438 2.453125 -1.359375 C 2.679688 -1.203125 2.972656 -1.125 3.328125 -1.125 Z M 3.328125 -1.125 "/></g></g></g><g fill="#ffffff" fill-opacity="1"><g transform="translate(64.031735, 14.855356)"><g><path d="M 4.53125 0 L 3.1875 0 C 2.644531 0 2.21875 -0.125 1.90625 -0.375 C 1.601562 -0.632812 1.453125 -1.082031 1.453125 -1.71875 L 1.453125 -6.140625 L 0.328125 -6.140625 L 0.328125 -7.4375 L 1.453125 -7.4375 L 1.453125 -10.15625 L 3.015625 -10.15625 L 3.015625 -7.4375 L 4.546875 -7.4375 L 4.546875 -6.140625 L 3.015625 -6.140625 L 3.015625 -2.15625 C 3.015625 -1.914062 3.050781 -1.710938 3.125 -1.546875 C 3.207031 -1.390625 3.410156 -1.3125 3.734375 -1.3125 L 4.53125 -1.3125 Z M 4.53125 0 "/></g></g></g><g fill="#ffffff" fill-opacity="1"><g transform="translate(69.039888, 14.855356)"><g><path d="M 2.984375 0.140625 C 2.273438 0.140625 1.691406 -0.046875 1.234375 -0.421875 C 0.785156 -0.796875 0.5625 -1.332031 0.5625 -2.03125 C 0.5625 -2.382812 0.632812 -2.695312 0.78125 -2.96875 C 0.925781 -3.238281 1.125 -3.46875 1.375 -3.65625 C 1.601562 -3.820312 1.863281 -3.957031 2.15625 -4.0625 C 2.445312 -4.164062 2.765625 -4.25 3.109375 -4.3125 L 5.453125 -4.75 C 5.441406 -5.25 5.3125 -5.628906 5.0625 -5.890625 C 4.78125 -6.171875 4.40625 -6.3125 3.9375 -6.3125 C 3.5625 -6.3125 3.226562 -6.203125 2.9375 -5.984375 C 2.65625 -5.773438 2.476562 -5.476562 2.40625 -5.09375 L 0.84375 -5.09375 C 0.925781 -5.65625 1.125 -6.117188 1.4375 -6.484375 C 1.75 -6.847656 2.125 -7.117188 2.5625 -7.296875 C 3.007812 -7.484375 3.472656 -7.578125 3.953125 -7.578125 C 4.390625 -7.578125 4.800781 -7.515625 5.1875 -7.390625 C 5.582031 -7.273438 5.914062 -7.085938 6.1875 -6.828125 C 6.46875 -6.566406 6.664062 -6.273438 6.78125 -5.953125 C 6.894531 -5.628906 6.960938 -5.296875 6.984375 -4.953125 C 7.003906 -4.617188 7.015625 -4.3125 7.015625 -4.03125 L 7.015625 0 L 5.4375 0 L 5.4375 -1.0625 C 5.25 -0.726562 5.003906 -0.460938 4.703125 -0.265625 C 4.472656 -0.117188 4.210938 -0.015625 3.921875 0.046875 C 3.628906 0.109375 3.316406 0.140625 2.984375 0.140625 Z M 3.328125 -1.125 C 3.691406 -1.125 4.035156 -1.203125 4.359375 -1.359375 C 4.796875 -1.578125 5.085938 -1.863281 5.234375 -2.21875 C 5.390625 -2.582031 5.46875 -3.03125 5.46875 -3.5625 L 3.484375 -3.1875 C 2.972656 -3.070312 2.609375 -2.921875 2.390625 -2.734375 C 2.210938 -2.554688 2.125 -2.332031 2.125 -2.0625 C 2.125 -1.757812 2.234375 -1.523438 2.453125 -1.359375 C 2.679688 -1.203125 2.972656 -1.125 3.328125 -1.125 Z M 3.328125 -1.125 "/></g></g></g><g fill="#ffffff" fill-opacity="1"><g transform="translate(76.845147, 14.855356)"><g><path d="M 4 0.140625 C 3.40625 0.140625 2.859375 0.046875 2.359375 -0.140625 C 1.859375 -0.328125 1.441406 -0.613281 1.109375 -1 C 0.785156 -1.382812 0.582031 -1.875 0.5 -2.46875 L 2.078125 -2.46875 C 2.179688 -2.050781 2.394531 -1.722656 2.71875 -1.484375 C 3.050781 -1.242188 3.476562 -1.125 4 -1.125 C 4.414062 -1.125 4.757812 -1.207031 5.03125 -1.375 C 5.300781 -1.539062 5.4375 -1.773438 5.4375 -2.078125 C 5.4375 -2.335938 5.347656 -2.535156 5.171875 -2.671875 C 4.992188 -2.804688 4.765625 -2.914062 4.484375 -3 C 4.203125 -3.082031 3.894531 -3.15625 3.5625 -3.21875 C 3.25 -3.28125 2.925781 -3.351562 2.59375 -3.4375 C 2.269531 -3.519531 1.972656 -3.632812 1.703125 -3.78125 C 1.429688 -3.9375 1.210938 -4.140625 1.046875 -4.390625 C 0.878906 -4.648438 0.796875 -4.984375 0.796875 -5.390625 C 0.796875 -5.890625 0.925781 -6.300781 1.1875 -6.625 C 1.445312 -6.945312 1.789062 -7.1875 2.21875 -7.34375 C 2.644531 -7.5 3.113281 -7.578125 3.625 -7.578125 C 4.46875 -7.578125 5.175781 -7.359375 5.75 -6.921875 C 6.320312 -6.492188 6.671875 -5.890625 6.796875 -5.109375 L 5.328125 -5.109375 C 5.210938 -5.523438 5 -5.828125 4.6875 -6.015625 C 4.382812 -6.210938 4.03125 -6.3125 3.625 -6.3125 C 3.21875 -6.3125 2.898438 -6.234375 2.671875 -6.078125 C 2.441406 -5.929688 2.328125 -5.726562 2.328125 -5.46875 C 2.328125 -5.25 2.410156 -5.070312 2.578125 -4.9375 C 2.742188 -4.8125 2.960938 -4.710938 3.234375 -4.640625 C 3.503906 -4.578125 3.800781 -4.515625 4.125 -4.453125 C 4.457031 -4.390625 4.789062 -4.3125 5.125 -4.21875 C 5.457031 -4.132812 5.765625 -4.015625 6.046875 -3.859375 C 6.328125 -3.710938 6.550781 -3.503906 6.71875 -3.234375 C 6.894531 -2.972656 6.984375 -2.628906 6.984375 -2.203125 C 6.984375 -1.503906 6.722656 -0.9375 6.203125 -0.5 C 5.679688 -0.0703125 4.945312 0.140625 4 0.140625 Z M 4 0.140625 "/></g></g></g><g fill="#ffffff" fill-opacity="1"><g transform="translate(32.770748, 26.47228)"><g><path d="M 2.4375 0 L 0.859375 0 L 0.859375 -7.4375 L 2.4375 -7.4375 L 2.4375 -6.515625 C 2.75 -6.910156 3.078125 -7.1875 3.421875 -7.34375 C 3.773438 -7.5 4.179688 -7.578125 4.640625 -7.578125 L 4.8125 -7.578125 L 4.8125 -6.046875 L 4.421875 -6.046875 C 3.828125 -6.046875 3.367188 -5.882812 3.046875 -5.5625 C 2.640625 -5.1875 2.4375 -4.53125 2.4375 -3.59375 Z M 2.4375 0 "/></g></g></g><g fill="#ffffff" fill-opacity="1"><g transform="translate(37.858818, 26.47228)"><g><path d="M 4.265625 0.140625 C 3.523438 0.140625 2.875 -0.0234375 2.3125 -0.359375 C 1.757812 -0.691406 1.328125 -1.144531 1.015625 -1.71875 C 0.710938 -2.300781 0.5625 -2.957031 0.5625 -3.6875 C 0.5625 -4.175781 0.640625 -4.648438 0.796875 -5.109375 C 0.953125 -5.566406 1.179688 -5.984375 1.484375 -6.359375 C 1.785156 -6.734375 2.164062 -7.03125 2.625 -7.25 C 3.082031 -7.46875 3.617188 -7.578125 4.234375 -7.578125 C 4.867188 -7.578125 5.46875 -7.441406 6.03125 -7.171875 C 6.59375 -6.898438 7.050781 -6.484375 7.40625 -5.921875 C 7.757812 -5.359375 7.9375 -4.648438 7.9375 -3.796875 L 7.9375 -3.390625 L 2.15625 -3.390625 C 2.175781 -3.253906 2.207031 -3.113281 2.25 -2.96875 C 2.289062 -2.820312 2.34375 -2.6875 2.40625 -2.5625 C 2.582031 -2.144531 2.835938 -1.816406 3.171875 -1.578125 C 3.503906 -1.335938 3.882812 -1.21875 4.3125 -1.21875 C 4.78125 -1.21875 5.175781 -1.34375 5.5 -1.59375 C 5.820312 -1.84375 6.046875 -2.132812 6.171875 -2.46875 L 7.796875 -2.46875 C 7.660156 -1.988281 7.4375 -1.550781 7.125 -1.15625 C 6.820312 -0.757812 6.4375 -0.441406 5.96875 -0.203125 C 5.5 0.0234375 4.929688 0.140625 4.265625 0.140625 Z M 2.25 -4.625 L 6.296875 -4.625 C 6.285156 -4.738281 6.257812 -4.859375 6.21875 -4.984375 C 6.175781 -5.109375 6.125 -5.226562 6.0625 -5.34375 C 5.882812 -5.65625 5.632812 -5.890625 5.3125 -6.046875 C 5 -6.210938 4.65625 -6.296875 4.28125 -6.296875 C 3.488281 -6.296875 2.898438 -5.976562 2.515625 -5.34375 C 2.429688 -5.226562 2.367188 -5.101562 2.328125 -4.96875 C 2.296875 -4.84375 2.269531 -4.726562 2.25 -4.625 Z M 2.25 -4.625 "/></g></g></g><g fill="#ffffff" fill-opacity="1"><g transform="translate(46.343373, 26.47228)"><g><path d="M 4 0.140625 C 3.40625 0.140625 2.859375 0.046875 2.359375 -0.140625 C 1.859375 -0.328125 1.441406 -0.613281 1.109375 -1 C 0.785156 -1.382812 0.582031 -1.875 0.5 -2.46875 L 2.078125 -2.46875 C 2.179688 -2.050781 2.394531 -1.722656 2.71875 -1.484375 C 3.050781 -1.242188 3.476562 -1.125 4 -1.125 C 4.414062 -1.125 4.757812 -1.207031 5.03125 -1.375 C 5.300781 -1.539062 5.4375 -1.773438 5.4375 -2.078125 C 5.4375 -2.335938 5.347656 -2.535156 5.171875 -2.671875 C 4.992188 -2.804688 4.765625 -2.914062 4.484375 -3 C 4.203125 -3.082031 3.894531 -3.15625 3.5625 -3.21875 C 3.25 -3.28125 2.925781 -3.351562 2.59375 -3.4375 C 2.269531 -3.519531 1.972656 -3.632812 1.703125 -3.78125 C 1.429688 -3.9375 1.210938 -4.140625 1.046875 -4.390625 C 0.878906 -4.648438 0.796875 -4.984375 0.796875 -5.390625 C 0.796875 -5.890625 0.925781 -6.300781 1.1875 -6.625 C 1.445312 -6.945312 1.789062 -7.1875 2.21875 -7.34375 C 2.644531 -7.5 3.113281 -7.578125 3.625 -7.578125 C 4.46875 -7.578125 5.175781 -7.359375 5.75 -6.921875 C 6.320312 -6.492188 6.671875 -5.890625 6.796875 -5.109375 L 5.328125 -5.109375 C 5.210938 -5.523438 5 -5.828125 4.6875 -6.015625 C 4.382812 -6.210938 4.03125 -6.3125 3.625 -6.3125 C 3.21875 -6.3125 2.898438 -6.234375 2.671875 -6.078125 C 2.441406 -5.929688 2.328125 -5.726562 2.328125 -5.46875 C 2.328125 -5.25 2.410156 -5.070312 2.578125 -4.9375 C 2.742188 -4.8125 2.960938 -4.710938 3.234375 -4.640625 C 3.503906 -4.578125 3.800781 -4.515625 4.125 -4.453125 C 4.457031 -4.390625 4.789062 -4.3125 5.125 -4.21875 C 5.457031 -4.132812 5.765625 -4.015625 6.046875 -3.859375 C 6.328125 -3.710938 6.550781 -3.503906 6.71875 -3.234375 C 6.894531 -2.972656 6.984375 -2.628906 6.984375 -2.203125 C 6.984375 -1.503906 6.722656 -0.9375 6.203125 -0.5 C 5.679688 -0.0703125 4.945312 0.140625 4 0.140625 Z M 4 0.140625 "/></g></g></g><g fill="#ffffff" fill-opacity="1"><g transform="translate(53.9222, 26.47228)"><g><path d="M 4.296875 0.140625 C 3.554688 0.140625 2.90625 -0.0195312 2.34375 -0.34375 C 1.78125 -0.675781 1.34375 -1.132812 1.03125 -1.71875 C 0.71875 -2.300781 0.5625 -2.976562 0.5625 -3.75 C 0.5625 -4.5 0.71875 -5.160156 1.03125 -5.734375 C 1.34375 -6.316406 1.78125 -6.769531 2.34375 -7.09375 C 2.90625 -7.414062 3.554688 -7.578125 4.296875 -7.578125 C 5.035156 -7.578125 5.6875 -7.414062 6.25 -7.09375 C 6.8125 -6.769531 7.25 -6.316406 7.5625 -5.734375 C 7.882812 -5.160156 8.046875 -4.5 8.046875 -3.75 C 8.046875 -2.988281 7.890625 -2.316406 7.578125 -1.734375 C 7.265625 -1.148438 6.828125 -0.691406 6.265625 -0.359375 C 5.703125 -0.0234375 5.046875 0.140625 4.296875 0.140625 Z M 4.296875 -1.21875 C 4.710938 -1.21875 5.082031 -1.328125 5.40625 -1.546875 C 5.726562 -1.765625 5.976562 -2.0625 6.15625 -2.4375 C 6.34375 -2.820312 6.4375 -3.257812 6.4375 -3.75 C 6.4375 -4.21875 6.34375 -4.640625 6.15625 -5.015625 C 5.976562 -5.390625 5.726562 -5.679688 5.40625 -5.890625 C 5.082031 -6.109375 4.710938 -6.21875 4.296875 -6.21875 C 3.878906 -6.21875 3.507812 -6.113281 3.1875 -5.90625 C 2.863281 -5.695312 2.609375 -5.40625 2.421875 -5.03125 C 2.242188 -4.65625 2.15625 -4.226562 2.15625 -3.75 C 2.15625 -3.257812 2.25 -2.820312 2.4375 -2.4375 C 2.625 -2.050781 2.878906 -1.75 3.203125 -1.53125 C 3.523438 -1.320312 3.890625 -1.21875 4.296875 -1.21875 Z M 4.296875 -1.21875 "/></g></g></g><g fill="#ffffff" fill-opacity="1"><g transform="translate(62.539949, 26.47228)"><g><path d="M 3.421875 0.140625 C 2.304688 0.140625 1.546875 -0.265625 1.140625 -1.078125 C 1.023438 -1.316406 0.941406 -1.585938 0.890625 -1.890625 C 0.847656 -2.191406 0.828125 -2.59375 0.828125 -3.09375 L 0.828125 -7.4375 L 2.390625 -7.4375 L 2.390625 -3.078125 C 2.390625 -2.328125 2.519531 -1.8125 2.78125 -1.53125 C 3 -1.289062 3.335938 -1.171875 3.796875 -1.171875 C 4.054688 -1.171875 4.285156 -1.210938 4.484375 -1.296875 C 4.679688 -1.378906 4.851562 -1.5 5 -1.65625 C 5.175781 -1.851562 5.304688 -2.125 5.390625 -2.46875 C 5.472656 -2.820312 5.515625 -3.28125 5.515625 -3.84375 L 5.515625 -7.4375 L 7.078125 -7.4375 L 7.078125 0 L 5.515625 0 L 5.515625 -1.015625 C 5.210938 -0.609375 4.894531 -0.3125 4.5625 -0.125 C 4.238281 0.0507812 3.859375 0.140625 3.421875 0.140625 Z M 3.421875 0.140625 "/></g></g></g><g fill="#ffffff" fill-opacity="1"><g transform="translate(70.478401, 26.47228)"><g><path d="M 2.4375 0 L 0.859375 0 L 0.859375 -7.4375 L 2.4375 -7.4375 L 2.4375 -6.515625 C 2.75 -6.910156 3.078125 -7.1875 3.421875 -7.34375 C 3.773438 -7.5 4.179688 -7.578125 4.640625 -7.578125 L 4.8125 -7.578125 L 4.8125 -6.046875 L 4.421875 -6.046875 C 3.828125 -6.046875 3.367188 -5.882812 3.046875 -5.5625 C 2.640625 -5.1875 2.4375 -4.53125 2.4375 -3.59375 Z M 2.4375 0 "/></g></g></g><g fill="#ffffff" fill-opacity="1"><g transform="translate(75.56647, 26.47228)"><g><path d="M 4.265625 0.140625 C 3.535156 0.140625 2.890625 -0.0195312 2.328125 -0.34375 C 1.765625 -0.675781 1.328125 -1.132812 1.015625 -1.71875 C 0.710938 -2.300781 0.5625 -2.976562 0.5625 -3.75 C 0.5625 -4.5 0.710938 -5.160156 1.015625 -5.734375 C 1.328125 -6.316406 1.757812 -6.769531 2.3125 -7.09375 C 2.875 -7.414062 3.523438 -7.578125 4.265625 -7.578125 C 5.140625 -7.578125 5.882812 -7.351562 6.5 -6.90625 C 7.113281 -6.46875 7.503906 -5.863281 7.671875 -5.09375 L 5.96875 -5.09375 C 5.84375 -5.46875 5.628906 -5.753906 5.328125 -5.953125 C 5.035156 -6.160156 4.679688 -6.265625 4.265625 -6.265625 C 3.640625 -6.265625 3.128906 -6.035156 2.734375 -5.578125 C 2.347656 -5.117188 2.15625 -4.507812 2.15625 -3.75 C 2.15625 -2.96875 2.347656 -2.34375 2.734375 -1.875 C 3.128906 -1.40625 3.640625 -1.171875 4.265625 -1.171875 C 4.722656 -1.171875 5.101562 -1.285156 5.40625 -1.515625 C 5.707031 -1.753906 5.90625 -2.070312 6 -2.46875 L 7.703125 -2.46875 C 7.535156 -1.644531 7.140625 -1.003906 6.515625 -0.546875 C 5.890625 -0.0859375 5.140625 0.140625 4.265625 0.140625 Z M 4.265625 0.140625 "/></g></g></g><g fill="#ffffff" fill-opacity="1"><g transform="translate(83.744674, 26.47228)"><g><path d="M 4.265625 0.140625 C 3.523438 0.140625 2.875 -0.0234375 2.3125 -0.359375 C 1.757812 -0.691406 1.328125 -1.144531 1.015625 -1.71875 C 0.710938 -2.300781 0.5625 -2.957031 0.5625 -3.6875 C 0.5625 -4.175781 0.640625 -4.648438 0.796875 -5.109375 C 0.953125 -5.566406 1.179688 -5.984375 1.484375 -6.359375 C 1.785156 -6.734375 2.164062 -7.03125 2.625 -7.25 C 3.082031 -7.46875 3.617188 -7.578125 4.234375 -7.578125 C 4.867188 -7.578125 5.46875 -7.441406 6.03125 -7.171875 C 6.59375 -6.898438 7.050781 -6.484375 7.40625 -5.921875 C 7.757812 -5.359375 7.9375 -4.648438 7.9375 -3.796875 L 7.9375 -3.390625 L 2.15625 -3.390625 C 2.175781 -3.253906 2.207031 -3.113281 2.25 -2.96875 C 2.289062 -2.820312 2.34375 -2.6875 2.40625 -2.5625 C 2.582031 -2.144531 2.835938 -1.816406 3.171875 -1.578125 C 3.503906 -1.335938 3.882812 -1.21875 4.3125 -1.21875 C 4.78125 -1.21875 5.175781 -1.34375 5.5 -1.59375 C 5.820312 -1.84375 6.046875 -2.132812 6.171875 -2.46875 L 7.796875 -2.46875 C 7.660156 -1.988281 7.4375 -1.550781 7.125 -1.15625 C 6.820312 -0.757812 6.4375 -0.441406 5.96875 -0.203125 C 5.5 0.0234375 4.929688 0.140625 4.265625 0.140625 Z M 2.25 -4.625 L 6.296875 -4.625 C 6.285156 -4.738281 6.257812 -4.859375 6.21875 -4.984375 C 6.175781 -5.109375 6.125 -5.226562 6.0625 -5.34375 C 5.882812 -5.65625 5.632812 -5.890625 5.3125 -6.046875 C 5 -6.210938 4.65625 -6.296875 4.28125 -6.296875 C 3.488281 -6.296875 2.898438 -5.976562 2.515625 -5.34375 C 2.429688 -5.226562 2.367188 -5.101562 2.328125 -4.96875 C 2.296875 -4.84375 2.269531 -4.726562 2.25 -4.625 Z M 2.25 -4.625 "/></g></g></g><g fill="#ffffff" fill-opacity="1"><g transform="translate(92.22923, 26.47228)"><g><path d="M 4 0.140625 C 3.40625 0.140625 2.859375 0.046875 2.359375 -0.140625 C 1.859375 -0.328125 1.441406 -0.613281 1.109375 -1 C 0.785156 -1.382812 0.582031 -1.875 0.5 -2.46875 L 2.078125 -2.46875 C 2.179688 -2.050781 2.394531 -1.722656 2.71875 -1.484375 C 3.050781 -1.242188 3.476562 -1.125 4 -1.125 C 4.414062 -1.125 4.757812 -1.207031 5.03125 -1.375 C 5.300781 -1.539062 5.4375 -1.773438 5.4375 -2.078125 C 5.4375 -2.335938 5.347656 -2.535156 5.171875 -2.671875 C 4.992188 -2.804688 4.765625 -2.914062 4.484375 -3 C 4.203125 -3.082031 3.894531 -3.15625 3.5625 -3.21875 C 3.25 -3.28125 2.925781 -3.351562 2.59375 -3.4375 C 2.269531 -3.519531 1.972656 -3.632812 1.703125 -3.78125 C 1.429688 -3.9375 1.210938 -4.140625 1.046875 -4.390625 C 0.878906 -4.648438 0.796875 -4.984375 0.796875 -5.390625 C 0.796875 -5.890625 0.925781 -6.300781 1.1875 -6.625 C 1.445312 -6.945312 1.789062 -7.1875 2.21875 -7.34375 C 2.644531 -7.5 3.113281 -7.578125 3.625 -7.578125 C 4.46875 -7.578125 5.175781 -7.359375 5.75 -6.921875 C 6.320312 -6.492188 6.671875 -5.890625 6.796875 -5.109375 L 5.328125 -5.109375 C 5.210938 -5.523438 5 -5.828125 4.6875 -6.015625 C 4.382812 -6.210938 4.03125 -6.3125 3.625 -6.3125 C 3.21875 -6.3125 2.898438 -6.234375 2.671875 -6.078125 C 2.441406 -5.929688 2.328125 -5.726562 2.328125 -5.46875 C 2.328125 -5.25 2.410156 -5.070312 2.578125 -4.9375 C 2.742188 -4.8125 2.960938 -4.710938 3.234375 -4.640625 C 3.503906 -4.578125 3.800781 -4.515625 4.125 -4.453125 C 4.457031 -4.390625 4.789062 -4.3125 5.125 -4.21875 C 5.457031 -4.132812 5.765625 -4.015625 6.046875 -3.859375 C 6.328125 -3.710938 6.550781 -3.503906 6.71875 -3.234375 C 6.894531 -2.972656 6.984375 -2.628906 6.984375 -2.203125 C 6.984375 -1.503906 6.722656 -0.9375 6.203125 -0.5 C 5.679688 -0.0703125 4.945312 0.140625 4 0.140625 Z M 4 0.140625 "/></g></g></g><g fill="#ffffff" fill-opacity="1"><g transform="translate(11.776016, 38.756769)"><g><path d="M 4.140625 -3.453125 L 4.140625 0 L 3.796875 0 L 3.796875 -2.75 L 2.4375 -0.4375 L 2.265625 -0.4375 L 0.90625 -2.734375 L 0.90625 0 L 0.5625 0 L 0.5625 -3.453125 L 0.859375 -3.453125 L 2.359375 -0.890625 L 3.84375 -3.453125 Z M 4.140625 -3.453125 "/></g></g></g><g fill="#ffffff" fill-opacity="1"><g transform="translate(18.932598, 38.756769)"><g><path d="M 0.5625 -3.453125 L 0.921875 -3.453125 L 0.921875 0 L 0.5625 0 Z M 0.5625 -3.453125 "/></g></g></g><g fill="#ffffff" fill-opacity="1"><g transform="translate(22.878219, 38.756769)"><g><path d="M 2.0625 0.03125 C 1.71875 0.03125 1.40625 -0.0390625 1.125 -0.1875 C 0.851562 -0.34375 0.640625 -0.550781 0.484375 -0.8125 C 0.328125 -1.082031 0.25 -1.382812 0.25 -1.71875 C 0.25 -2.050781 0.328125 -2.347656 0.484375 -2.609375 C 0.640625 -2.878906 0.851562 -3.085938 1.125 -3.234375 C 1.40625 -3.390625 1.71875 -3.46875 2.0625 -3.46875 C 2.320312 -3.46875 2.554688 -3.425781 2.765625 -3.34375 C 2.984375 -3.257812 3.171875 -3.132812 3.328125 -2.96875 L 3.09375 -2.734375 C 2.820312 -3.015625 2.484375 -3.15625 2.078125 -3.15625 C 1.796875 -3.15625 1.546875 -3.09375 1.328125 -2.96875 C 1.109375 -2.84375 0.929688 -2.671875 0.796875 -2.453125 C 0.671875 -2.234375 0.609375 -1.988281 0.609375 -1.71875 C 0.609375 -1.445312 0.671875 -1.203125 0.796875 -0.984375 C 0.929688 -0.773438 1.109375 -0.609375 1.328125 -0.484375 C 1.546875 -0.359375 1.796875 -0.296875 2.078125 -0.296875 C 2.484375 -0.296875 2.820312 -0.429688 3.09375 -0.703125 L 3.328125 -0.484375 C 3.171875 -0.316406 2.984375 -0.1875 2.765625 -0.09375 C 2.546875 -0.0078125 2.3125 0.03125 2.0625 0.03125 Z M 2.0625 0.03125 "/></g></g></g><g fill="#ffffff" fill-opacity="1"><g transform="translate(28.87433, 38.756769)"><g><path d="M 2.90625 0 L 2.125 -1.109375 C 2.039062 -1.097656 1.945312 -1.09375 1.84375 -1.09375 L 0.921875 -1.09375 L 0.921875 0 L 0.5625 0 L 0.5625 -3.453125 L 1.84375 -3.453125 C 2.289062 -3.453125 2.640625 -3.34375 2.890625 -3.125 C 3.140625 -2.914062 3.265625 -2.628906 3.265625 -2.265625 C 3.265625 -1.992188 3.191406 -1.765625 3.046875 -1.578125 C 2.910156 -1.390625 2.71875 -1.257812 2.46875 -1.1875 L 3.3125 0 Z M 1.84375 -1.40625 C 2.1875 -1.40625 2.445312 -1.476562 2.625 -1.625 C 2.800781 -1.78125 2.890625 -1.992188 2.890625 -2.265625 C 2.890625 -2.546875 2.800781 -2.757812 2.625 -2.90625 C 2.445312 -3.050781 2.1875 -3.125 1.84375 -3.125 L 0.921875 -3.125 L 0.921875 -1.40625 Z M 1.84375 -1.40625 "/></g></g></g><g fill="#ffffff" fill-opacity="1"><g transform="translate(34.890111, 38.756769)"><g><path d="M 2.0625 0.03125 C 1.726562 0.03125 1.421875 -0.0390625 1.140625 -0.1875 C 0.859375 -0.34375 0.640625 -0.550781 0.484375 -0.8125 C 0.328125 -1.082031 0.25 -1.382812 0.25 -1.71875 C 0.25 -2.050781 0.328125 -2.347656 0.484375 -2.609375 C 0.640625 -2.878906 0.859375 -3.085938 1.140625 -3.234375 C 1.421875 -3.390625 1.726562 -3.46875 2.0625 -3.46875 C 2.40625 -3.46875 2.710938 -3.390625 2.984375 -3.234375 C 3.265625 -3.085938 3.484375 -2.878906 3.640625 -2.609375 C 3.796875 -2.347656 3.875 -2.050781 3.875 -1.71875 C 3.875 -1.382812 3.796875 -1.082031 3.640625 -0.8125 C 3.484375 -0.550781 3.265625 -0.34375 2.984375 -0.1875 C 2.710938 -0.0390625 2.40625 0.03125 2.0625 0.03125 Z M 2.0625 -0.296875 C 2.332031 -0.296875 2.578125 -0.359375 2.796875 -0.484375 C 3.023438 -0.609375 3.203125 -0.773438 3.328125 -0.984375 C 3.453125 -1.203125 3.515625 -1.445312 3.515625 -1.71875 C 3.515625 -1.988281 3.453125 -2.234375 3.328125 -2.453125 C 3.203125 -2.671875 3.023438 -2.84375 2.796875 -2.96875 C 2.578125 -3.09375 2.332031 -3.15625 2.0625 -3.15625 C 1.789062 -3.15625 1.546875 -3.09375 1.328125 -2.96875 C 1.109375 -2.84375 0.929688 -2.671875 0.796875 -2.453125 C 0.671875 -2.234375 0.609375 -1.988281 0.609375 -1.71875 C 0.609375 -1.445312 0.671875 -1.203125 0.796875 -0.984375 C 0.929688 -0.773438 1.109375 -0.609375 1.328125 -0.484375 C 1.546875 -0.359375 1.789062 -0.296875 2.0625 -0.296875 Z M 2.0625 -0.296875 "/></g></g></g><g fill="#ffffff" fill-opacity="1"><g transform="translate(41.476294, 38.756769)"><g/></g></g><g fill="#ffffff" fill-opacity="1"><g transform="translate(45.225224, 38.756769)"><g><path d="M 0.921875 -3.125 L 0.921875 -1.78125 L 2.703125 -1.78125 L 2.703125 -1.46875 L 0.921875 -1.46875 L 0.921875 0 L 0.5625 0 L 0.5625 -3.453125 L 2.921875 -3.453125 L 2.921875 -3.125 Z M 0.921875 -3.125 "/></g></g></g><g fill="#ffffff" fill-opacity="1"><g transform="translate(50.798449, 38.756769)"><g><path d="M 0.5625 -3.453125 L 0.921875 -3.453125 L 0.921875 0 L 0.5625 0 Z M 0.5625 -3.453125 "/></g></g></g><g fill="#ffffff" fill-opacity="1"><g transform="translate(54.744069, 38.756769)"><g><path d="M 3.4375 -3.453125 L 3.4375 0 L 3.140625 0 L 0.921875 -2.796875 L 0.921875 0 L 0.5625 0 L 0.5625 -3.453125 L 0.859375 -3.453125 L 3.078125 -0.65625 L 3.078125 -3.453125 Z M 3.4375 -3.453125 "/></g></g></g><g fill="#ffffff" fill-opacity="1"><g transform="translate(61.202399, 38.756769)"><g><path d="M 2.71875 -0.921875 L 0.796875 -0.921875 L 0.390625 0 L 0.015625 0 L 1.578125 -3.453125 L 1.9375 -3.453125 L 3.515625 0 L 3.140625 0 Z M 2.59375 -1.21875 L 1.765625 -3.0625 L 0.9375 -1.21875 Z M 2.59375 -1.21875 "/></g></g></g><g fill="#ffffff" fill-opacity="1"><g transform="translate(67.188676, 38.756769)"><g><path d="M 3.4375 -3.453125 L 3.4375 0 L 3.140625 0 L 0.921875 -2.796875 L 0.921875 0 L 0.5625 0 L 0.5625 -3.453125 L 0.859375 -3.453125 L 3.078125 -0.65625 L 3.078125 -3.453125 Z M 3.4375 -3.453125 "/></g></g></g><g fill="#ffffff" fill-opacity="1"><g transform="translate(73.647007, 38.756769)"><g><path d="M 2.0625 0.03125 C 1.71875 0.03125 1.40625 -0.0390625 1.125 -0.1875 C 0.851562 -0.34375 0.640625 -0.550781 0.484375 -0.8125 C 0.328125 -1.082031 0.25 -1.382812 0.25 -1.71875 C 0.25 -2.050781 0.328125 -2.347656 0.484375 -2.609375 C 0.640625 -2.878906 0.851562 -3.085938 1.125 -3.234375 C 1.40625 -3.390625 1.71875 -3.46875 2.0625 -3.46875 C 2.320312 -3.46875 2.554688 -3.425781 2.765625 -3.34375 C 2.984375 -3.257812 3.171875 -3.132812 3.328125 -2.96875 L 3.09375 -2.734375 C 2.820312 -3.015625 2.484375 -3.15625 2.078125 -3.15625 C 1.796875 -3.15625 1.546875 -3.09375 1.328125 -2.96875 C 1.109375 -2.84375 0.929688 -2.671875 0.796875 -2.453125 C 0.671875 -2.234375 0.609375 -1.988281 0.609375 -1.71875 C 0.609375 -1.445312 0.671875 -1.203125 0.796875 -0.984375 C 0.929688 -0.773438 1.109375 -0.609375 1.328125 -0.484375 C 1.546875 -0.359375 1.796875 -0.296875 2.078125 -0.296875 C 2.484375 -0.296875 2.820312 -0.429688 3.09375 -0.703125 L 3.328125 -0.484375 C 3.171875 -0.316406 2.984375 -0.1875 2.765625 -0.09375 C 2.546875 -0.0078125 2.3125 0.03125 2.0625 0.03125 Z M 2.0625 0.03125 "/></g></g></g><g fill="#ffffff" fill-opacity="1"><g transform="translate(79.643115, 38.756769)"><g><path d="M 3 -0.3125 L 3 0 L 0.5625 0 L 0.5625 -3.453125 L 2.921875 -3.453125 L 2.921875 -3.125 L 0.921875 -3.125 L 0.921875 -1.90625 L 2.703125 -1.90625 L 2.703125 -1.59375 L 0.921875 -1.59375 L 0.921875 -0.3125 Z M 3 -0.3125 "/></g></g></g></svg>