<svg xmlns="http://www.w3.org/2000/svg" xmlns:xlink="http://www.w3.org/1999/xlink" width="500" zoomAndPan="magnify" viewBox="0 0 375 374.999991" height="500" preserveAspectRatio="xMidYMid meet" version="1.0"><defs><clipPath id="fb89732dc3"><path d="M 0 12.421875 L 375 12.421875 L 375 362.671875 L 0 362.671875 Z M 0 12.421875 " clip-rule="nonzero"/></clipPath></defs><g clip-path="url(#fb89732dc3)"><path fill="#ffc00e" d="M 52.5 362.5 L 322.5 362.5 C 329.789062 362.5 336.789062 359.601562 341.949219 354.449219 C 347.101562 349.289062 350 342.289062 350 335 L 350 184.238281 C 363.574219 175.125 372.960938 160.261719 374.675781 143.164062 C 374.6875 143.113281 374.6875 143.074219 374.6875 143.039062 C 375.113281 138.386719 374.335938 133.710938 372.4375 129.449219 C 366.136719 114.988281 338.273438 52.300781 327.835938 28.835938 C 323.425781 18.898438 313.574219 12.5 302.710938 12.5 L 72.210938 12.5 C 61.335938 12.5 51.488281 18.898438 47.074219 28.835938 C 36.664062 52.289062 8.824219 114.914062 2.375 129.398438 C 0.476562 133.664062 -0.3125 138.363281 0.113281 143.023438 C 0.113281 143.101562 0.125 143.164062 0.125 143.238281 C 1.9375 160.351562 11.386719 175.199219 25 184.300781 L 25 335 C 25 342.289062 27.898438 349.289062 33.050781 354.449219 C 38.210938 359.601562 45.210938 362.5 52.5 362.5 Z M 175 337.5 L 322.5 337.5 C 323.164062 337.5 323.800781 337.238281 324.261719 336.761719 C 324.738281 336.300781 325 335.664062 325 335 L 325 193.398438 C 322.9375 193.636719 320.835938 193.75 318.710938 193.75 C 301.050781 193.75 285.273438 185.585938 274.960938 172.835938 C 264.648438 185.585938 248.875 193.75 231.210938 193.75 C 213.550781 193.75 197.773438 185.585938 187.460938 172.835938 C 177.148438 185.585938 161.375 193.75 143.710938 193.75 C 126.050781 193.75 110.273438 185.585938 99.960938 172.835938 C 89.648438 185.585938 73.875 193.75 56.210938 193.75 C 54.113281 193.75 52.039062 193.636719 50 193.414062 L 50 335 C 50 335.664062 50.261719 336.300781 50.738281 336.761719 C 51.199219 337.238281 51.835938 337.5 52.5 337.5 L 75 337.5 L 75 240 C 75 232.710938 77.898438 225.710938 83.050781 220.550781 C 88.210938 215.398438 95.210938 212.5 102.5 212.5 C 115.574219 212.5 134.425781 212.5 147.5 212.5 C 154.789062 212.5 161.789062 215.398438 166.949219 220.550781 C 172.101562 225.710938 175 232.710938 175 240 Z M 150 337.5 L 150 240 C 150 239.335938 149.738281 238.699219 149.261719 238.238281 C 148.800781 237.761719 148.164062 237.5 147.5 237.5 L 102.5 237.5 C 101.835938 237.5 101.199219 237.761719 100.738281 238.238281 C 100.261719 238.699219 100 239.335938 100 240 L 100 337.5 Z M 146.476562 37.5 L 174.960938 37.5 L 174.960938 137.5 C 174.960938 154.75 160.960938 168.75 143.710938 168.75 C 127.085938 168.75 113.488281 155.75 112.511719 139.363281 Z M 120.113281 37.5 L 72.210938 37.5 C 71.226562 37.5 70.324219 38.085938 69.925781 38.988281 L 25.210938 139.574219 C 25.050781 139.9375 24.976562 140.335938 25.011719 140.789062 C 26.761719 156.488281 40.0625 168.75 56.210938 168.75 C 73.386719 168.75 87.351562 154.863281 87.460938 137.699219 C 87.4375 136.324219 87.636719 134.925781 88.101562 133.550781 Z M 228.449219 37.5 L 262.398438 139.363281 C 261.4375 155.75 247.835938 168.75 231.210938 168.75 C 213.960938 168.75 199.960938 154.75 199.960938 137.5 L 199.960938 37.5 Z M 254.800781 37.5 L 286.824219 133.550781 C 287.273438 134.925781 287.488281 136.324219 287.460938 137.699219 C 287.574219 154.863281 301.523438 168.75 318.710938 168.75 C 334.863281 168.75 348.175781 156.476562 349.800781 140.75 L 349.800781 140.699219 C 349.8125 140.324219 349.75 139.949219 349.601562 139.601562 C 349.585938 139.574219 349.574219 139.550781 349.5625 139.523438 C 343.226562 125 315.414062 62.414062 305 38.988281 C 304.601562 38.085938 303.699219 37.5 302.710938 37.5 Z M 254.800781 37.5 " fill-opacity="1" fill-rule="evenodd"/></g><path fill="#ffc00e" d="M 299.996094 285.0625 L 299.996094 239.984375 C 299.996094 224.789062 287.6875 212.476562 272.488281 212.476562 C 259.425781 212.476562 240.570312 212.476562 227.488281 212.476562 C 212.308594 212.476562 200 224.789062 200 239.984375 L 200 285.0625 C 200 300.253906 212.308594 312.566406 227.488281 312.566406 C 240.570312 312.566406 259.425781 312.566406 272.488281 312.566406 C 287.6875 312.566406 299.996094 300.253906 299.996094 285.0625 Z M 275 239.984375 L 275 285.0625 C 275 286.449219 273.875 287.5625 272.488281 287.5625 L 227.488281 287.5625 C 226.121094 287.5625 224.992188 286.449219 224.992188 285.0625 C 224.992188 285.0625 224.992188 239.984375 224.992188 239.984375 C 224.992188 238.59375 226.121094 237.480469 227.488281 237.480469 L 272.488281 237.480469 C 273.875 237.480469 275 238.59375 275 239.984375 Z M 275 239.984375 " fill-opacity="1" fill-rule="evenodd"/></svg>
