<svg xmlns="http://www.w3.org/2000/svg" xmlns:xlink="http://www.w3.org/1999/xlink" width="100" zoomAndPan="magnify" viewBox="0 0 375 374.999991" height="100" preserveAspectRatio="xMidYMid meet" version="1.0"><path fill="#ffc00e" d="M 141.425781 0 L 145.492188 0 C 151.140625 0.265625 156.207031 0.882812 160.6875 1.851562 C 178.898438 5.804688 195.789062 15.9375 207.472656 30.503906 C 219.84375 45.925781 226.03125 63.5 226.035156 83.21875 C 226.042969 110.109375 212.191406 136.125 189.789062 151.132812 C 173.414062 162.097656 155.300781 166.71875 135.449219 165 C 130.386719 164.558594 125.378906 163.609375 120.425781 162.148438 C 103.917969 157.261719 90.320312 148.300781 79.636719 135.277344 C 65.191406 117.667969 59.046875 97.152344 61.207031 73.734375 C 61.675781 68.621094 62.675781 63.65625 64.207031 58.828125 C 70.183594 39.988281 81.097656 25.136719 96.953125 14.265625 C 109.988281 5.328125 124.8125 0.574219 141.425781 0 Z M 204.089844 82.71875 C 204.089844 80.730469 203.992188 78.746094 203.796875 76.765625 C 203.601562 74.789062 203.3125 72.824219 202.921875 70.875 C 202.535156 68.921875 202.054688 66.996094 201.476562 65.09375 C 200.898438 63.191406 200.230469 61.320312 199.46875 59.484375 C 198.707031 57.648438 197.859375 55.851562 196.921875 54.097656 C 195.984375 52.34375 194.960938 50.640625 193.859375 48.988281 C 192.753906 47.335938 191.570312 45.738281 190.308594 44.203125 C 189.046875 42.664062 187.714844 41.191406 186.308594 39.789062 C 184.902344 38.382812 183.429688 37.046875 181.894531 35.785156 C 180.355469 34.523438 178.761719 33.339844 177.109375 32.238281 C 175.453125 31.132812 173.75 30.109375 171.996094 29.175781 C 170.242188 28.238281 168.449219 27.386719 166.609375 26.625 C 164.773438 25.867188 162.902344 25.195312 161 24.621094 C 159.097656 24.042969 157.171875 23.558594 155.222656 23.171875 C 153.273438 22.785156 151.308594 22.492188 149.328125 22.296875 C 147.347656 22.101562 145.367188 22.003906 143.378906 22.003906 C 141.390625 22.003906 139.40625 22.101562 137.425781 22.296875 C 135.449219 22.492188 133.484375 22.785156 131.53125 23.171875 C 129.582031 23.558594 127.65625 24.042969 125.753906 24.621094 C 123.851562 25.195312 121.980469 25.867188 120.144531 26.625 C 118.308594 27.386719 116.511719 28.238281 114.757812 29.175781 C 113.003906 30.109375 111.300781 31.132812 109.648438 32.238281 C 107.992188 33.339844 106.398438 34.523438 104.863281 35.785156 C 103.324219 37.046875 101.851562 38.382812 100.449219 39.789062 C 99.042969 41.191406 97.707031 42.664062 96.445312 44.203125 C 95.183594 45.738281 94 47.335938 92.898438 48.988281 C 91.792969 50.640625 90.769531 52.34375 89.832031 54.097656 C 88.898438 55.851562 88.046875 57.648438 87.285156 59.484375 C 86.527344 61.320312 85.855469 63.191406 85.277344 65.09375 C 84.703125 66.996094 84.21875 68.921875 83.832031 70.875 C 83.445312 72.824219 83.152344 74.789062 82.957031 76.765625 C 82.761719 78.746094 82.664062 80.730469 82.664062 82.71875 C 82.664062 84.707031 82.761719 86.691406 82.957031 88.667969 C 83.152344 90.648438 83.445312 92.613281 83.832031 94.5625 C 84.21875 96.511719 84.703125 98.4375 85.277344 100.339844 C 85.855469 102.246094 86.527344 104.113281 87.285156 105.949219 C 88.046875 107.789062 88.898438 109.582031 89.832031 111.335938 C 90.769531 113.089844 91.792969 114.792969 92.898438 116.449219 C 94 118.101562 95.183594 119.695312 96.445312 121.234375 C 97.707031 122.769531 99.042969 124.242188 100.449219 125.648438 C 101.851562 127.054688 103.324219 128.386719 104.863281 129.648438 C 106.398438 130.910156 107.992188 132.09375 109.648438 133.199219 C 111.300781 134.304688 113.003906 135.324219 114.757812 136.261719 C 116.511719 137.199219 118.308594 138.046875 120.144531 138.808594 C 121.980469 139.570312 123.851562 140.238281 125.753906 140.816406 C 127.65625 141.394531 129.582031 141.875 131.53125 142.261719 C 133.484375 142.652344 135.449219 142.941406 137.425781 143.136719 C 139.40625 143.332031 141.390625 143.429688 143.378906 143.429688 C 145.367188 143.429688 147.347656 143.332031 149.328125 143.136719 C 151.308594 142.941406 153.273438 142.652344 155.222656 142.261719 C 157.171875 141.875 159.097656 141.394531 161 140.816406 C 162.902344 140.238281 164.773438 139.570312 166.609375 138.808594 C 168.449219 138.046875 170.242188 137.199219 171.996094 136.261719 C 173.75 135.324219 175.453125 134.304688 177.109375 133.199219 C 178.761719 132.09375 180.355469 130.910156 181.894531 129.648438 C 183.429688 128.386719 184.902344 127.054688 186.308594 125.648438 C 187.714844 124.242188 189.046875 122.769531 190.308594 121.234375 C 191.570312 119.695312 192.753906 118.101562 193.859375 116.449219 C 194.960938 114.792969 195.984375 113.089844 196.921875 111.335938 C 197.859375 109.582031 198.707031 107.789062 199.46875 105.949219 C 200.230469 104.113281 200.898438 102.246094 201.476562 100.339844 C 202.054688 98.4375 202.535156 96.511719 202.921875 94.5625 C 203.3125 92.613281 203.601562 90.648438 203.796875 88.667969 C 203.992188 86.691406 204.089844 84.707031 204.089844 82.71875 Z M 204.089844 82.71875 " fill-opacity="1" fill-rule="nonzero"/><path fill="#ffc00e" d="M 375 252.414062 L 375 365.484375 C 374.433594 371.296875 371.230469 374.46875 365.386719 375 L 9.523438 375 C 3.683594 374.414062 0.511719 371.203125 0 365.371094 L 0 317.078125 C 0.46875 295.976562 5.148438 276.335938 14.039062 258.15625 C 22.21875 241.433594 33.011719 226.851562 46.417969 214.410156 C 59.171875 202.574219 74.074219 193.328125 91.117188 186.675781 C 102.722656 182.140625 114.6875 179.113281 127.011719 177.59375 C 131.421875 177.050781 135.832031 176.902344 140.296875 176.722656 C 145.789062 176.503906 151.730469 176.746094 158.113281 177.457031 C 187.019531 180.699219 214.148438 191.84375 236.136719 210.808594 C 236.289062 210.941406 236.464844 211.015625 236.664062 211.035156 C 236.863281 211.054688 237.050781 211.015625 237.226562 210.914062 C 238.726562 210.054688 240.371094 209.625 242.160156 209.625 C 262.386719 209.625 283.6875 209.609375 306.066406 209.574219 C 309.578125 209.566406 312.058594 209.878906 313.507812 210.503906 C 316.238281 211.6875 318.140625 213.863281 319.214844 217.027344 C 322.140625 225.664062 324.941406 234.039062 327.621094 242.160156 C 327.667969 242.304688 327.753906 242.417969 327.875 242.507812 C 327.996094 242.597656 328.132812 242.640625 328.28125 242.640625 C 340.300781 242.601562 352.308594 242.625 364.304688 242.714844 C 370.878906 242.769531 374.445312 246.003906 375 252.414062 Z M 183.433594 243.039062 C 185.039062 242.730469 186.546875 242.4375 188.191406 242.4375 C 199.894531 242.4375 211.515625 242.4375 223.058594 242.4375 C 223.238281 242.4375 223.402344 242.382812 223.550781 242.277344 C 223.699219 242.171875 223.800781 242.03125 223.859375 241.859375 L 226.777344 233.054688 C 226.949219 232.546875 226.835938 232.105469 226.449219 231.734375 C 214.253906 220.207031 199.941406 211.3125 184.199219 205.859375 C 155.390625 195.890625 126.941406 196.375 98.859375 207.316406 C 76.019531 216.210938 57 231.457031 43.09375 251.886719 C 31.066406 269.574219 24.203125 288.925781 22.507812 309.953125 C 22.175781 314.011719 22.039062 318.886719 22.085938 324.570312 C 22.167969 333.714844 22.171875 342.960938 22.101562 352.3125 C 22.101562 352.46875 22.15625 352.601562 22.265625 352.710938 C 22.378906 352.820312 22.507812 352.875 22.664062 352.875 L 176.039062 352.875 C 176.203125 352.875 176.289062 352.796875 176.289062 352.636719 C 176.273438 318.671875 176.273438 285.957031 176.289062 254.496094 C 176.289062 252.203125 176.542969 249.996094 177.472656 247.867188 C 178.476562 245.550781 180.808594 243.546875 183.433594 243.039062 Z M 304.066406 242.4375 C 304.164062 242.4375 304.238281 242.398438 304.296875 242.320312 C 304.351562 242.238281 304.367188 242.15625 304.335938 242.0625 L 300.90625 231.757812 C 300.863281 231.628906 300.773438 231.5625 300.636719 231.5625 L 250.964844 231.5625 C 250.828125 231.5625 250.738281 231.628906 250.695312 231.757812 L 247.289062 242.0625 C 247.257812 242.15625 247.273438 242.238281 247.328125 242.320312 C 247.386719 242.398438 247.460938 242.4375 247.558594 242.4375 Z M 219.226562 306.285156 C 220.933594 306.910156 222.632812 307.453125 224.316406 307.914062 C 225.175781 308.148438 226.011719 308.273438 226.824219 308.289062 C 229.011719 308.324219 231.089844 308.664062 233.324219 308.65625 C 261.441406 308.636719 289.730469 308.636719 318.195312 308.65625 C 320.234375 308.664062 322.175781 308.398438 324.203125 308.308594 C 325.667969 308.238281 327.140625 307.980469 328.628906 307.53125 C 337.671875 304.769531 344.472656 299.269531 349.027344 291.03125 C 349.78125 289.660156 350.46875 288.066406 351.082031 286.246094 C 351.898438 283.820312 352.335938 282.140625 352.402344 281.203125 C 352.789062 275.863281 352.941406 270.488281 352.867188 265.078125 C 352.867188 264.859375 352.753906 264.75 352.53125 264.75 L 199.140625 264.75 C 198.898438 264.75 198.777344 264.871094 198.773438 265.117188 C 198.71875 268.140625 198.699219 271.15625 198.710938 274.15625 C 198.726562 277.246094 198.902344 279.730469 199.238281 281.609375 C 199.734375 284.421875 200.421875 286.824219 201.300781 288.824219 C 203.816406 294.53125 207.90625 299.34375 213.578125 303.261719 C 215.542969 304.617188 217.425781 305.625 219.226562 306.285156 Z M 343.898438 325.671875 C 336.773438 329.058594 329.226562 330.78125 321.261719 330.847656 C 320.664062 330.847656 320.226562 331.078125 319.628906 331.078125 C 290.632812 331.105469 261.621094 331.105469 232.589844 331.078125 C 231.769531 331.078125 230.957031 331.003906 230.152344 330.855469 C 229.390625 330.71875 228.574219 330.671875 227.699219 330.703125 C 226.570312 330.753906 225.445312 330.707031 224.324219 330.5625 C 214.773438 329.316406 206.375 325.941406 199.125 320.4375 C 198.855469 320.226562 198.71875 320.292969 198.71875 320.632812 L 198.71875 352.484375 C 198.71875 352.746094 198.851562 352.875 199.109375 352.875 L 352.3125 352.875 C 352.46875 352.875 352.601562 352.820312 352.710938 352.710938 C 352.820312 352.601562 352.875 352.46875 352.875 352.3125 L 352.875 320.617188 C 352.875 320.191406 352.703125 320.109375 352.363281 320.371094 C 349.785156 322.378906 346.746094 324.324219 343.898438 325.671875 Z M 343.898438 325.671875 " fill-opacity="1" fill-rule="nonzero"/></svg>
